<svg width="40" height="40" viewBox="0 0 40 40" fill="none" xmlns="http://www.w3.org/2000/svg">
<g clip-path="url(#clip0_174_2025)">
<path fill-rule="evenodd" clip-rule="evenodd" d="M2.34028 18.8299H37.6597V25.8507H2.34028V18.8299ZM7.10155 11.809H32.8985V16.4896H7.10155V11.809ZM30.6389 7.10155H32.8985V9.36113H30.6389V7.10155ZM25.9583 7.10155H28.2179V9.36113H25.9583V7.10155ZM21.1701 7.10155H23.5104V9.36113H21.1701V7.10155ZM16.4896 7.10155H18.8299V9.36113H16.4896V7.10155ZM11.809 7.10155H14.0686V9.36113H11.809V7.10155ZM7.10155 7.10155H9.36113V9.36113H7.10155V7.10155ZM4.68056 16.4896H2.58238C2.39408 16.4896 2.34028 16.4358 2.34028 16.2475V2.58238C2.34028 2.39408 2.39408 2.34028 2.58238 2.34028H37.4445C37.6328 2.34028 37.6866 2.39408 37.6866 2.58238V16.2475C37.6866 16.4358 37.6328 16.4896 37.4445 16.4896H35.3463V4.68056H4.68056V16.4896ZM0 40H7.10155V37.6597H4.76126V28.2717H35.2387V37.6597H32.8985V40H40V37.6597H37.6597V28.2717H40V0H0V28.2986H2.34028V37.6597H0V40Z" fill="white"/>
<path fill-rule="evenodd" clip-rule="evenodd" d="M4.68054 23.5104H12.9657V21.1702H4.68054V23.5104Z" fill="white"/>
<path fill-rule="evenodd" clip-rule="evenodd" d="M28.2179 23.5104H30.6389V21.1702H28.2179V23.5104Z" fill="white"/>
<path fill-rule="evenodd" clip-rule="evenodd" d="M32.8984 23.5104H35.3194V21.1702H32.8984V23.5104Z" fill="white"/>
</g>
<defs>
<clipPath id="clip0_174_2025">
<rect width="40" height="40" fill="white"/>
</clipPath>
</defs>
</svg>
