<svg width="39" height="38" viewBox="0 0 39 38" fill="none" xmlns="http://www.w3.org/2000/svg">
<g clip-path="url(#clip0_174_2022)">
<path fill-rule="evenodd" clip-rule="evenodd" d="M32.075 19.0798C32.0516 18.9202 32.1686 18.5099 32.4025 18.2819C32.5897 18.0768 32.847 17.94 33.1746 17.9172C34.6251 17.826 34.7888 20.0144 33.2915 20.1056C32.6365 20.1284 32.1452 19.6269 32.075 19.0798ZM19.5117 0H19.5351C20.3305 0 21.1026 0.25075 21.6641 0.729454C22.0384 1.04859 22.6701 1.66407 22.7169 2.23395H32.1686V0.957409C32.1686 0.5015 32.6833 0 33.1512 0H38.0174C38.4853 0 39 0.5015 39 0.957409V5.69886C39 6.15477 38.4853 6.65627 38.0174 6.65627H33.1512C32.6833 6.65627 32.1686 6.15477 32.1686 5.69886V4.44511H27.5129C27.7469 4.76425 29.8758 5.67606 32.0984 9.02699C32.7067 9.96161 33.2214 10.9646 33.5957 12.1044C33.8062 12.6971 33.9466 13.2442 34.087 13.928C34.204 14.4523 34.3677 15.3413 34.3677 15.8884C34.9526 15.934 35.6311 16.5723 35.9352 16.937C36.4967 17.5753 36.6371 18.3503 36.6371 19.2166C36.6371 20.7666 35.0228 22.3395 33.4319 22.3395H32.964C31.3731 22.3395 29.7588 20.7666 29.7588 19.2166V18.7607C29.7588 17.4841 30.9286 16.0936 31.958 15.8656C31.958 13.7457 30.7415 11.033 29.4781 9.39172C28.7762 8.47991 28.4253 8.16077 27.6065 7.43131L26.1326 6.35993C24.0036 5.08338 23.4421 5.24295 22.5297 4.83263C22.4361 5.26575 21.781 5.88122 21.4301 6.13197C20.775 6.56509 20.2136 6.70186 19.3479 6.70186C18.0612 6.70186 16.6575 5.67606 16.4469 4.85543C16.1662 4.9922 15.7451 5.06059 15.4175 5.17457C13.6161 5.76725 11.5573 7.06659 10.3407 8.45711C8.74985 10.3035 8.11818 11.2609 7.36953 13.7229C7.22915 14.2016 7.0186 15.3413 7.0186 15.9112C8.04799 16.1392 9.21776 17.5297 9.21776 18.8062V19.2621C9.21776 20.8122 7.60348 22.3851 6.0126 22.3851H5.54469C3.95381 22.3851 2.33953 20.8122 2.33953 19.2621V18.8062C2.33953 17.4841 3.67307 15.9796 4.63227 15.9112C4.63227 14.8854 5.07678 13.0846 5.40432 12.1272C6.12957 9.9844 7.34613 8.11518 8.96041 6.54229C9.63887 5.88122 10.06 5.4937 10.832 4.94661C10.9724 4.85543 11.066 4.78704 11.183 4.69586L11.4871 4.46791H6.85483V5.72166C6.85483 6.17757 6.34013 6.67906 5.87223 6.67906H0.982603C0.514697 6.67906 0 6.17757 0 5.72166V0.957409C0 0.5015 0.514697 0 0.982603 0H5.84883C6.31674 0 6.83143 0.5015 6.83143 0.957409V2.21116H16.2831C16.3299 1.64127 16.985 0.980204 17.3593 0.683863C17.9442 0.227954 18.7163 0 19.5117 0ZM4.65567 19.0798C4.58548 18.6923 4.9832 17.9628 5.73185 17.9172C7.18236 17.826 7.34613 20.0144 5.84883 20.1056C5.21716 20.1284 4.72585 19.6269 4.65567 19.0798ZM34.4145 2.23395H36.7073V4.46791H34.4145V2.23395ZM2.29274 2.23395H4.58548V4.46791H2.29274V2.23395ZM18.3653 3.41932C18.3653 3.35093 18.4355 3.05459 18.4589 2.9862C18.8098 1.91482 20.5411 2.05159 20.6347 3.28254C20.7049 4.19436 19.5351 4.83263 18.763 4.14877C18.5525 3.96641 18.3887 3.67007 18.3653 3.41932Z" fill="white"/>
<path fill-rule="evenodd" clip-rule="evenodd" d="M17.6635 33.4637H21.3132C22.3192 33.4637 23.0444 33.6689 23.6527 34.0792C23.91 34.2387 24.261 34.5807 24.4247 34.8086C24.8692 35.4013 24.7055 35.2645 24.9628 35.766H14.0138C14.1074 35.6065 14.1074 35.4925 14.2244 35.2873C14.4583 34.8542 14.856 34.3755 15.2772 34.102C15.9088 33.6917 16.6575 33.4637 17.6635 33.4637ZM18.3653 23.5249C18.3419 23.3653 18.4589 22.955 18.6929 22.727C19.4415 21.952 20.5879 22.4991 20.6347 23.3881C20.7283 24.5735 19.0438 24.961 18.5291 23.958C18.4823 23.9352 18.3653 23.5477 18.3653 23.5249ZM16.0726 23.2285V23.6845C16.0726 25.2345 17.6869 26.8074 19.2778 26.8074H19.7457C21.3366 26.8074 22.9508 25.2345 22.9508 23.6845C22.9508 22.8182 22.8105 22.0432 22.249 21.4049C21.9214 21.0402 21.2664 20.4019 20.6815 20.3563V13.8824C20.8686 14.0192 21.3366 14.7486 21.5003 14.9994C21.7811 15.4097 22.0384 15.7744 22.3192 16.2075C22.7403 16.8458 27.045 23.0006 27.1386 23.3653C26.9748 23.6161 26.2964 24.3455 25.8051 25.0522C24.9394 26.3059 24.2844 27.5597 23.7931 29.0186C23.5123 29.8164 23.3719 30.5459 23.1848 31.3893C21.9214 31.1158 18.3653 31.2297 16.868 31.2297C16.4703 31.2297 16.213 31.2981 15.8854 31.3893C15.6749 30.5459 15.5345 29.8164 15.2772 29.0186C14.9964 28.2207 14.2946 26.6479 13.85 25.9412L12.2826 23.7528C12.1422 23.5705 12.0486 23.5249 11.9316 23.3425C12.0018 23.0462 12.4931 22.4307 12.6803 22.1344L16.7277 16.2075C16.9616 15.8656 18.2016 13.9736 18.4121 13.8368V20.2879C17.4061 20.4019 16.0726 21.9064 16.0726 23.2285ZM9.21777 23.4565C9.21777 23.9808 9.80266 24.5963 10.177 24.961C11.6275 26.3515 13.1482 29.4745 13.4757 31.5261C13.6863 32.7798 13.6863 32.3695 12.9142 33.1446C12.0018 34.0564 11.4871 35.4469 11.4871 37.0198C11.4871 37.4757 12.0018 37.9772 12.4697 37.9772H26.4835C27.2556 37.9772 27.4661 37.2477 27.4661 36.6323C27.4661 35.2873 26.7409 33.8284 26.039 33.1218C25.267 32.3467 25.267 32.7342 25.4775 31.5033C25.922 28.8362 27.4661 26.2375 29.3611 24.2999C30.297 23.3425 29.4313 22.5675 28.6593 21.4505L20.5879 9.64246C19.9796 8.75344 19.0204 8.77623 18.4589 9.59687C18.225 9.91601 18.0378 10.2123 17.8273 10.5315L9.73247 22.3851C9.47512 22.6815 9.21777 22.955 9.21777 23.4565Z" fill="white"/>
</g>
<defs>
<clipPath id="clip0_174_2022">
<rect width="39" height="38" fill="white"/>
</clipPath>
</defs>
</svg>
