<svg width="33" height="34" viewBox="0 0 33 34" fill="none" xmlns="http://www.w3.org/2000/svg">
<g clip-path="url(#clip0_174_2030)">
<path fill-rule="evenodd" clip-rule="evenodd" d="M17.6436 29.6448V20.1139C17.6436 17.9468 18.8075 18.1993 20.6658 18.1993V23.0804C20.6658 24.0483 21.3193 24.7426 22.2178 24.4691C22.7283 24.3007 23.974 23.2067 24.1782 23.2277L25.9752 24.4059C26.7512 24.7636 27.6293 24.1955 27.6293 23.2908V18.1782C29.1405 18.1782 30.6516 17.9468 30.6516 19.7351V30.0025C30.6516 31.0334 30.1411 31.5594 29.1405 31.5594H19.1547C17.9703 31.5594 17.6436 30.8651 17.6436 29.6448ZM13.8453 31.5594H3.87995C2.87933 31.5594 2.36881 31.0334 2.36881 30.0025V19.7351C2.36881 17.9468 3.87995 18.1782 5.39109 18.1782V23.2698C5.39109 24.0903 6.16708 24.7426 6.98391 24.4059C7.35149 24.2587 8.67884 23.2067 8.82178 23.2067C9.06683 23.2698 9.53651 23.6485 9.76114 23.7958C10.0062 23.9641 10.435 24.3007 10.7413 24.427C11.6603 24.7636 12.3546 24.0483 12.3546 23.0594V18.1782C14.1925 18.1782 15.3769 17.9468 15.3769 20.0928V29.6238C15.3564 30.8651 15.0501 31.5594 13.8453 31.5594ZM23.0347 21.0606V18.1782H25.2605V20.9975C24.5458 20.8082 24.5458 20.0297 23.0347 21.0606ZM7.73948 20.9975V18.1782H9.96535V21.0606C8.47463 20.0297 8.45421 20.8082 7.73948 20.9975ZM21.0334 15.8218H11.987C11.0885 15.8218 10.047 15.6745 10.047 14.4963V3.76609C10.047 2.14604 11.8645 2.44059 13.0693 2.44059V7.67946C13.0693 8.20545 13.5594 8.7104 14.3558 8.7104C14.6826 8.7104 15.9895 7.80569 16.3979 7.4901C16.5204 7.3849 16.4387 7.44802 16.5204 7.3849C17.3985 7.99505 18.0724 8.7104 18.9505 8.7104C19.3998 8.7104 19.9511 8.14233 19.9511 7.67946V2.44059C21.1559 2.44059 22.9734 2.14604 22.9734 3.76609V14.328C22.953 15.5693 22.1974 15.8218 21.0334 15.8218ZM15.3564 5.23886V2.44059H17.6436V5.2599C17.2556 5.1547 17.0514 4.75495 16.5 4.75495C15.9486 4.75495 15.7444 5.13366 15.3564 5.23886ZM7.67822 3.61881V14.1807C7.67822 14.6436 7.82116 15.5062 7.96411 15.8007C7.00433 15.8007 6.04455 15.8007 5.08478 15.8007C3.92079 15.8007 3.41027 15.6535 2.4505 15.9691C1.20483 16.4319 0 17.8205 0 19.5248V30.1708C0 32.2537 1.65408 34.021 3.65532 34.021H13.5594C14.4988 34.021 15.4994 33.7686 16.2345 33.2215C16.3571 33.1163 16.3775 33.0743 16.5204 32.9901C16.9288 33.2636 16.9697 33.4319 17.7457 33.7265C18.2153 33.8948 18.828 34.021 19.461 34.021H29.3651C31.3459 34.021 33.0204 32.2958 33.0204 30.255V19.5248C33.0204 17.8626 31.836 16.453 30.6108 16.0111C29.6306 15.6535 29.1813 15.8218 27.9969 15.8218C27.0167 15.8218 26.0365 15.8218 25.0563 15.8218C25.1993 15.5272 25.3422 14.6646 25.3422 14.2017V3.61881C25.3218 1.62005 23.586 0 21.6052 0H11.4152C10.8026 0 10.3738 0.126238 9.92451 0.294554C8.78094 0.736386 7.67822 2.14604 7.67822 3.61881Z" fill="white"/>
</g>
<defs>
<clipPath id="clip0_174_2030">
<rect width="33" height="34" fill="white"/>
</clipPath>
</defs>
</svg>
