<svg width="39" height="39" viewBox="0 0 39 39" fill="none" xmlns="http://www.w3.org/2000/svg">
<g clip-path="url(#clip0_174_2017)">
<path fill-rule="evenodd" clip-rule="evenodd" d="M15.8396 34.4212C15.8662 34.0485 15.9993 33.942 15.9993 33.516V32.1584H29.8689C29.8689 34.3945 29.7092 34.4478 27.4198 34.4478H15.8396V34.4212ZM11.4205 33.0635V18.2887H27.5795V29.8689H14.6949C13.2041 29.8689 13.843 32.4246 13.6833 33.4096C13.4437 34.8205 11.4205 34.7672 11.4205 33.0635ZM34.4212 22.841H36.7106V27.5529H34.4212V22.841ZM2.28942 22.841H4.57884V27.5529H2.28942V22.841ZM6.84164 16.9843C6.84164 18.5283 7.98635 18.2887 9.13106 18.2887V20.5782H2.28942V9.13106H9.13106V12.6983C9.13106 13.1775 9.66348 13.6833 10.116 13.6833H28.8573C29.3365 13.6833 29.8423 13.1509 29.8423 12.6983V9.13106H36.684V20.5515H29.8423V18.2621H31.1468C32.4512 18.2621 32.4512 15.9727 31.1468 15.9727H7.85324C7.37406 15.9993 6.84164 16.5051 6.84164 16.9843ZM11.4205 2.28942H27.5795V11.4205H11.4205V2.28942ZM9.13106 0.984983V6.84164H0.984983C0.505802 6.84164 0 7.37406 0 7.82662V28.8573C0 29.3365 0.532423 29.8423 0.984983 29.8423H2.28942V36.684H0.984983C-0.319454 36.684 -0.319454 38.9734 0.984983 38.9734H5.85666C7.16109 38.9734 7.16109 36.684 5.85666 36.684H4.55222V29.8423H5.85666C6.33584 29.8423 6.84164 29.3099 6.84164 28.8573V22.841H9.13106V33.4362C9.13106 35.1932 10.8082 36.7106 12.3256 36.7106H28.8573C29.8689 36.7106 30.5611 36.258 31.0935 35.7522C32.4778 34.3679 32.1317 33.1167 32.1317 30.8539C32.1317 30.3747 31.5993 29.8689 31.1468 29.8689H29.8423V22.841H32.1317V28.8573C32.1317 29.3365 32.6642 29.8423 33.1167 29.8423H34.4212V36.684H33.1167C31.8123 36.684 31.8123 38.9734 33.1167 38.9734H37.9884C39.2928 38.9734 39.2928 36.684 37.9884 36.684H36.684V29.8423H37.9884C38.4676 29.8423 38.9734 29.3099 38.9734 28.8573V7.82662C38.9734 7.34744 38.441 6.84164 37.9884 6.84164H29.8423V0.984983C29.8423 0.505802 29.3099 0 28.8573 0H10.1427C9.66348 0 9.13106 0.532423 9.13106 0.984983Z" fill="white"/>
<path fill-rule="evenodd" clip-rule="evenodd" d="M13.71 7.85326C13.71 9.76998 15.9994 9.31742 15.9994 8.14609C15.9994 6.22937 13.71 6.68193 13.71 7.85326Z" fill="white"/>
<path fill-rule="evenodd" clip-rule="evenodd" d="M18.342 7.85326C18.342 9.76998 20.6315 9.31742 20.6315 8.14609C20.6315 6.22937 18.342 6.68193 18.342 7.85326Z" fill="white"/>
<path fill-rule="evenodd" clip-rule="evenodd" d="M23.0007 7.85326C23.0007 9.76998 25.2902 9.31742 25.2902 8.14609C25.2902 6.22937 23.0007 6.68193 23.0007 7.85326Z" fill="white"/>
</g>
<defs>
<clipPath id="clip0_174_2017">
<rect width="39" height="39" fill="white"/>
</clipPath>
</defs>
</svg>
