<svg width="86" height="51" viewBox="0 0 86 51" fill="none" xmlns="http://www.w3.org/2000/svg">
<g clip-path="url(#clip0_270_1410)">
<path d="M26.5392 43.9539C25.8673 43.9539 25.1115 43.7861 25.0275 42.5279C24.7755 36.069 25.0275 29.1907 25.6994 20.8864C25.9513 18.0345 26.5392 15.1825 27.2111 12.4983C27.463 11.2401 27.799 9.98183 28.0509 8.72361C28.3029 7.3815 28.5548 6.0394 28.7228 4.69729C28.8068 4.194 28.9747 3.52295 29.9826 3.52295C32.5861 3.52295 35.1896 3.52295 37.7931 3.52295C38.549 3.52295 38.9689 3.85848 39.0529 4.61341C39.3888 7.12986 39.8927 9.73019 40.4806 12.2466C40.9005 14.0081 41.2365 15.7697 41.5724 17.5312C42.0763 20.2154 42.2443 22.9835 42.3283 25.4999C42.4962 29.5262 42.6642 33.3848 42.6642 37.4111C42.6642 38.4177 42.6642 39.3404 42.5802 40.347C42.5802 41.1019 42.4962 41.8568 42.4962 42.6118C42.4962 42.8634 42.4962 43.2828 42.1603 43.6183C41.8244 43.9539 41.4884 43.9539 41.0685 43.9539C39.2208 43.9539 37.4572 43.9539 35.6095 43.9539H33.6779H31.7462C30.0665 43.9539 28.3029 43.9539 26.5392 43.9539ZM27.547 16.4407C27.2951 17.9506 27.0431 19.4604 26.8751 20.9703C26.2033 29.2746 26.0353 36.1529 26.2033 42.5279C26.2033 42.6956 26.2033 42.7795 26.2033 42.7795C26.2033 42.7795 26.2872 42.7795 26.4552 42.7795C26.4552 42.7795 26.4552 42.7795 26.5392 42.7795C28.3029 42.7795 29.9826 42.7795 31.7462 42.7795H33.6779H35.6095C37.4572 42.7795 39.2208 42.7795 41.0685 42.7795C41.1525 42.7795 41.2365 42.7795 41.3204 42.7795C41.3204 42.7795 41.3204 42.6956 41.3204 42.6118C41.3204 41.8568 41.3204 41.1019 41.4044 40.2631C41.4044 39.3404 41.4884 38.3338 41.4884 37.4111C41.4044 33.4687 41.3204 29.5262 41.1525 25.5838C40.9845 23.0674 40.8165 20.3831 40.3966 17.6989C40.3126 17.2795 40.2286 16.7762 40.1447 16.3568C40.1447 16.3568 40.1447 16.4407 40.0607 16.4407C39.7247 16.8601 39.1369 16.8601 38.8009 16.8601C37.6251 16.8601 36.4494 16.8601 35.3576 16.8601H33.9298H32.5861C31.3263 16.8601 29.9826 16.8601 28.7228 16.8601C28.3869 16.8601 27.8829 16.8601 27.547 16.4407ZM36.6173 15.6019C37.2892 15.6019 38.0451 15.6019 38.7169 15.6019C38.8849 15.6019 38.9689 15.6019 38.9689 15.6019C38.9689 15.518 38.9689 15.4341 38.8849 15.3503C38.7169 14.5953 38.549 13.8404 38.381 13.0016C37.7931 10.569 37.2892 8.13644 36.9533 5.61999C36.9533 5.61999 36.9533 5.61999 36.8693 5.61999C34.7697 5.61999 32.6701 5.61999 30.5704 5.61999C30.5704 5.61999 30.5704 5.61999 30.4865 5.61999C30.1505 7.96867 29.6466 10.3174 29.1427 12.5822C28.8908 13.5887 28.7228 14.5953 28.4708 15.6019C29.7306 15.6019 31.0744 15.6019 32.3341 15.6019H33.6779H35.1056C35.6935 15.6019 36.1974 15.6019 36.6173 15.6019Z" fill="#4606C8"/>
<path d="M83.816 50.9999C82.1363 50.9999 80.4566 50.9999 78.8609 50.9999H76.4254V50.916C76.0055 50.916 75.5856 50.916 75.1656 50.916C73.6539 50.916 72.0582 50.916 70.5465 50.916C69.5387 50.916 68.9508 50.4966 68.8668 49.4901C68.7828 48.9029 68.7828 48.3996 68.6988 47.8124C68.6149 46.9736 68.5309 46.1348 68.4469 45.2121C68.1109 40.1792 68.2789 35.1463 68.4469 30.1973V28.9391C68.6149 22.2285 69.5387 15.6019 71.3024 8.47196C71.5543 7.3815 71.7223 6.29104 71.8902 5.1167L71.9742 4.61341C72.0582 3.85848 72.4781 3.52295 73.234 3.52295C75.8375 3.52295 78.525 3.52295 81.1285 3.52295C82.0524 3.52295 82.3043 4.11012 82.3043 4.52953C82.5563 7.12986 83.1441 9.73019 83.732 12.2466C84.068 13.9243 84.4879 15.6019 84.8238 17.3634C85.3277 20.2993 85.4957 23.319 85.6637 26.171C85.9996 31.4555 86.0836 35.5657 85.9996 39.4243V40.5147C85.9156 43.5345 85.9156 46.6381 85.4117 49.6578C85.1598 50.5805 84.7399 50.9999 83.816 50.9999ZM77.2652 48.9029C79.1969 48.9029 81.2125 48.9029 83.1441 48.9029C83.2281 48.9029 83.3121 48.9029 83.3121 48.9029C83.3121 48.9029 83.3121 48.819 83.3121 48.7351C83.3961 47.7285 83.4801 46.8897 83.5641 46.0509C83.5641 46.0509 83.5641 46.0509 83.5641 45.967H83.4801C81.9684 45.967 80.3727 45.967 78.8609 45.967H77.0133H75.2496C73.6539 45.967 72.1422 45.967 70.5465 45.967C70.4625 45.967 70.4625 45.967 70.4625 45.967C70.4625 45.967 70.4625 45.967 70.4625 46.0509C70.6305 47.0575 70.7145 47.9802 70.7984 48.7351C70.7984 48.819 70.7984 48.819 70.7984 48.819C70.7984 48.819 70.8824 48.819 70.9664 48.819C73.15 48.9029 75.1656 48.9029 77.2652 48.9029ZM70.8824 16.4407C70.1266 20.7187 69.7906 24.9128 69.6227 29.0229V30.2812C69.4547 35.1463 69.3707 40.1792 69.6227 45.1282C69.8746 44.7927 70.2945 44.7927 70.7145 44.7927C72.3102 44.7927 73.8219 44.7927 75.4176 44.7927H77.1813H79.0289C80.5406 44.7927 82.0524 44.7927 83.6481 44.7927C83.984 44.7927 84.4039 44.7927 84.6559 45.1282C84.7399 43.5345 84.7399 42.0246 84.8238 40.5147V39.4243C84.9078 35.6496 84.8238 31.5394 84.4879 26.2549C84.3199 23.4029 84.152 20.3831 83.6481 17.5312C83.5641 17.1118 83.4801 16.6924 83.3961 16.3568C83.3961 16.3568 83.3961 16.4407 83.3121 16.4407C82.9762 16.8601 82.4723 16.8601 82.1363 16.7762C80.9606 16.7762 79.7008 16.7762 78.525 16.7762H77.0133C76.5094 16.7762 76.0055 16.7762 75.5016 16.7762C74.3258 16.7762 73.15 16.7762 72.0582 16.7762C71.7223 16.8601 71.2184 16.8601 70.8824 16.4407ZM71.8902 15.6858H71.9742C73.15 15.6858 74.3258 15.6858 75.5016 15.6858C76.0055 15.6858 76.5094 15.6858 77.0133 15.6858H78.441C79.7008 15.6858 80.8766 15.6858 82.1363 15.6858C82.2203 15.6858 82.3043 15.6858 82.3043 15.6858C82.3043 15.6019 82.3043 15.6019 82.3043 15.518C82.0524 14.5114 81.8844 13.5049 81.6324 12.4983C81.1285 10.3174 80.6246 8.05256 80.3727 5.78775C80.3727 5.78775 80.3727 5.78775 80.3727 5.70387C80.3727 5.70387 80.3727 5.70387 80.2887 5.70387C78.1891 5.70387 76.0895 5.70387 73.9899 5.70387C73.6539 8.13644 73.15 10.4012 72.6461 12.666C72.3941 13.5887 72.2262 14.5953 72.0582 15.518C71.8902 15.6019 71.8902 15.6019 71.8902 15.6858ZM78.1051 35.9851C75.9215 35.9851 73.9898 34.4753 73.6539 32.3782C73.5699 32.1266 73.4859 31.6233 73.8219 31.2039C73.9059 31.12 73.9898 31.0361 74.0738 31.0361C73.4859 30.8683 72.982 30.5328 72.5621 30.1134C71.9742 29.4424 71.6383 28.6035 71.6383 27.7647C71.7223 26.0871 73.234 24.5772 74.9137 24.5772C75.7535 24.5772 76.5934 24.9128 77.1813 25.5838C77.6852 26.0871 78.0211 26.7581 78.1051 27.5131C78.1891 27.4292 78.2731 27.3453 78.357 27.2614C78.777 27.0098 79.1969 27.1776 79.5328 27.2614C81.5484 28.0164 82.8082 30.1134 82.4723 32.0427C82.1363 34.3914 80.3727 35.9851 78.1051 35.9851C78.1891 35.9851 78.1051 35.9851 78.1051 35.9851ZM74.8297 32.0427C74.8297 32.0427 74.8297 32.1266 74.8297 32.2105C75.0816 33.7203 76.5094 34.8108 78.1051 34.8108C79.7848 34.8108 81.0445 33.6364 81.2965 31.8749C81.5484 30.5328 80.5406 28.9391 79.1969 28.4358C79.1129 28.4358 79.1129 28.3519 79.0289 28.3519C78.693 30.6167 77.1813 31.9588 74.8297 32.0427C74.9137 32.0427 74.8297 32.0427 74.8297 32.0427ZM74.9977 25.8354C73.9059 25.8354 72.8981 26.842 72.8981 27.8486C72.8981 28.4358 73.066 28.9391 73.4859 29.3585C73.9059 29.7779 74.4098 30.0295 74.9977 30.0295C75.6695 30.0295 76.1734 29.8618 76.5094 29.5262C76.9293 29.1907 77.0973 28.6874 77.0973 28.0164C77.0973 27.4292 76.9293 26.842 76.5094 26.5065C76.0895 26.0032 75.5856 25.8354 74.9977 25.8354ZM77.6852 28.0164H78.0211H77.6852Z" fill="#4606C8"/>
<path d="M48.711 51.0001C47.7032 51.0001 47.5352 50.3291 47.4512 49.9096C47.0313 47.0577 47.1993 44.2057 48.1231 41.186C48.627 39.4245 49.0469 37.5791 48.963 35.6498C48.963 35.482 48.879 34.8948 49.2989 34.6432C49.7188 34.3077 50.2227 34.5593 50.4747 34.6432C53.7501 35.9014 57.1094 37.2435 60.3848 38.5018L61.6446 39.005C61.8966 39.0889 62.4005 39.3406 62.5684 39.9277C63.4083 42.7797 64.1641 46.2189 63.5762 49.8258C63.4083 50.9162 62.7364 51.0001 62.1485 51.0001C60.7208 51.0001 59.377 51.0001 57.9493 51.0001H56.9415L56.3536 51.084H54.4219C52.4903 50.9162 50.5587 50.9162 48.711 51.0001ZM49.3829 48.9031C49.4669 48.9031 49.5508 48.9031 49.6348 48.9031C50.9786 48.9031 52.3223 48.9031 53.6661 48.9031H57.1094C58.5372 48.9031 59.9649 48.9031 61.3926 48.9031C61.4766 48.9031 61.5606 48.9031 61.6446 48.9031C61.7286 47.2254 61.8126 45.5478 61.3926 43.8702C61.3926 43.7024 61.3087 43.7024 61.3087 43.6185C61.3087 43.6185 61.2247 43.6185 61.1407 43.6185C57.1934 43.6185 53.5821 43.6185 49.9708 43.6185C49.8868 43.6185 49.8028 43.6185 49.8028 43.6185C49.8028 43.6185 49.8028 43.7024 49.7188 43.8702C49.2149 45.38 49.2989 46.9738 49.3829 48.9031ZM50.0548 35.7337C50.1387 37.7468 49.7188 39.6761 49.1309 41.4376C49.0469 41.857 48.879 42.2764 48.795 42.6958C49.0469 42.5281 49.3829 42.3603 49.8028 42.3603C53.4141 42.3603 57.0255 42.3603 60.9727 42.3603C61.3926 42.3603 61.7286 42.4442 61.9805 42.6958C61.8126 41.857 61.5606 40.9343 61.3087 40.1794C61.3087 40.1794 61.3087 40.0955 61.0567 40.0116L59.7969 39.5083C56.6055 38.334 53.3301 37.0758 50.0548 35.7337Z" fill="#4606C8"/>
<path d="M62.0645 28.0164C61.8125 28.0164 61.6445 27.9325 61.3926 27.8486C57.2773 26.2549 53.0781 24.5772 48.459 22.8157C47.7871 22.5641 47.5352 22.1447 47.5352 21.3897C47.5352 18.5378 48.207 15.7697 48.7949 13.0016C48.9629 12.4144 49.0469 11.8272 49.2148 11.1562C49.6348 9.05913 50.1387 6.96209 50.3066 4.86505C50.4746 3.60683 51.3145 3.52295 51.9023 3.52295C52.7422 3.52295 53.582 3.52295 54.4219 3.52295H55.4297H56.5215C57.4453 3.52295 58.2852 3.52295 59.209 3.52295C59.9648 3.52295 60.3848 3.85848 60.5527 4.69729C60.8047 7.12986 61.3926 9.56242 61.8965 11.9111C62.4004 14.1759 62.9043 16.4407 63.1562 18.7894C63.5762 21.8091 63.2402 24.745 62.9883 27.0098C62.9883 27.1776 62.9043 27.6808 62.4844 27.9325C62.4004 28.0164 62.2324 28.0164 62.0645 28.0164ZM48.7109 21.6414C48.7109 21.6414 48.7949 21.6414 48.8789 21.7253C53.498 23.4868 57.7812 25.1644 61.8125 26.7581C61.9805 25.0805 62.2324 22.9835 62.1484 20.8864C61.8125 21.3058 61.3086 21.3058 60.8887 21.3058C59.6289 21.3058 58.2852 21.3058 57.0254 21.3058H54.8418C54.5059 21.3058 54.1699 21.3058 53.834 21.3058C52.5742 21.3058 51.3145 21.3058 50.0547 21.3058C49.7188 21.3058 49.2148 21.3058 48.8789 20.9703L48.7949 20.8864C48.7949 21.0542 48.7949 21.222 48.7949 21.4736C48.7109 21.5575 48.7109 21.6414 48.7109 21.6414ZM49.7188 20.1315C49.8027 20.1315 49.8867 20.1315 49.9707 20.1315C51.2305 20.0476 52.5742 20.1315 53.834 20.1315C54.3379 20.1315 54.8418 20.1315 55.4297 20.1315H57.0254C58.2852 20.1315 59.6289 20.1315 60.9727 20.1315C61.1406 20.1315 61.2246 20.1315 61.3086 20.1315C61.3086 20.1315 61.3086 20.0476 61.3086 19.8799C61.2246 19.3766 61.1406 18.8733 61.0566 18.37C60.9727 17.7828 60.8887 17.1956 60.8047 16.6924C60.5527 15.2664 60.2168 13.7565 59.8809 12.4144C59.377 10.2335 58.957 8.05256 58.6211 5.78775C58.6211 5.70387 58.6211 5.70387 58.6211 5.70387H58.5371C56.5215 5.70387 54.5059 5.70387 52.4902 5.70387H52.4063C52.4063 5.70387 52.4063 5.78775 52.4063 5.87163C52.1543 7.71703 51.8184 9.56242 51.3984 11.3239L51.0625 12.5822C50.5586 14.9308 50.0547 17.3634 49.8027 19.796C49.7188 20.0476 49.7188 20.1315 49.7188 20.1315Z" fill="#4606C8"/>
<path d="M40.648 50.9999C36.1128 50.9999 31.4937 50.9999 26.9585 50.9999C26.2027 50.9999 25.6988 50.6644 25.6148 49.8256C25.4468 48.7351 25.3628 47.5608 25.2789 46.4703C25.1949 45.8831 25.1949 45.3798 25.1109 44.7927C25.1109 44.6249 25.0269 44.1216 25.3628 43.7022C25.6988 43.3667 26.2027 43.2828 26.4546 43.3667C28.2183 43.3667 30.066 43.3667 31.8296 43.3667H33.7613H35.7769C37.5406 43.3667 39.3043 43.3667 41.0679 43.3667C41.4039 43.3667 41.9078 43.3667 42.2437 43.7861C42.5796 44.1216 42.5796 44.6249 42.4957 44.8765C42.4117 45.4637 42.4117 45.967 42.3277 46.5542C42.2437 47.6446 42.1597 48.819 41.9918 49.9094C41.8238 50.6644 41.4039 50.9999 40.648 50.9999ZM33.5933 48.9029C35.6929 48.9029 37.7086 48.9029 39.8082 48.9029C39.8921 48.9029 39.9761 48.9029 39.9761 48.9029C39.9761 48.9029 39.9761 48.819 39.9761 48.7351C39.9761 47.9802 40.0601 47.0575 40.2281 46.0509H40.1441C38.5484 46.0509 36.8687 46.0509 35.273 46.0509H33.7613H31.9976C30.4859 46.0509 29.0582 46.0509 27.5464 46.0509C27.3785 46.0509 27.2945 46.0509 27.2105 46.0509C27.2105 46.1348 27.2105 46.1348 27.2105 46.2187C27.3785 47.0575 27.3785 47.8124 27.4625 48.7351C27.4625 48.819 27.4625 48.9029 27.4625 48.9029C27.4625 48.9029 27.5464 48.9029 27.6304 48.9029C29.73 48.9029 31.6617 48.9029 33.5933 48.9029ZM26.2867 44.6249C26.2867 44.6249 26.2867 44.7088 26.2867 44.7927C26.2867 44.9604 26.2867 45.1282 26.3707 45.296C26.7066 44.8765 27.2945 44.8765 27.7144 44.8765C29.1421 44.8765 30.6539 44.8765 32.0816 44.8765H33.8453H35.357C36.9527 44.8765 38.6324 44.8765 40.2281 44.8765C40.48 44.8765 40.9839 44.8765 41.2359 45.2121C41.2359 45.0443 41.2359 44.9604 41.2359 44.7927C41.2359 44.7088 41.2359 44.6249 41.2359 44.6249C41.1519 44.6249 41.1519 44.6249 40.9839 44.6249C39.2203 44.6249 37.4566 44.6249 35.6929 44.6249H33.7613H31.8296C30.066 44.6249 28.2183 44.6249 26.4546 44.6249C26.3707 44.541 26.2867 44.541 26.2867 44.6249Z" fill="#4606C8"/>
<path d="M61.8967 36.4884L59.3772 35.2302C58.0334 34.5591 56.6897 33.8881 55.4299 33.217C54.758 32.8815 54.0862 32.546 53.4983 32.2105C52.1545 31.5394 50.8108 30.7845 49.467 30.1973C48.8791 29.9457 48.2072 29.4424 48.1233 28.268C48.1233 28.1003 48.1233 27.9325 48.0393 27.7647C48.0393 27.597 47.9553 27.3453 47.9553 27.1776V27.0937C47.7033 26.5065 47.8713 26.0871 48.2912 25.8355C48.7951 25.4999 49.299 25.8355 49.551 26.0032C49.635 26.0032 49.635 26.0871 49.719 26.0871C50.8108 26.6743 51.9026 27.1776 53.0783 27.7647C55.5979 29.023 58.2014 30.3651 60.8049 31.7072C61.6447 32.1266 62.4846 32.7976 62.2326 34.2236C62.1487 34.4753 62.1487 34.8108 62.1487 35.1463C62.1487 35.3141 62.1487 35.4818 62.0647 35.6496L61.8967 36.4884ZM49.1311 27.1776C49.1311 27.3453 49.1311 27.5131 49.2151 27.6809C49.2151 27.8486 49.299 28.1003 49.299 28.268C49.299 28.6036 49.383 28.8552 49.9709 29.1068C51.3147 29.7779 52.7424 30.4489 54.0862 31.2039C54.758 31.5394 55.4299 31.8749 56.0178 32.2105C57.3615 32.8815 58.6213 33.5526 59.9651 34.2236L60.9729 34.7269C60.9729 34.4753 61.0569 34.3075 61.0569 34.0559C61.1408 33.4687 61.0569 33.217 60.301 32.7976C57.6975 31.5394 55.094 30.1973 52.4905 28.8552C51.3147 28.268 50.2229 27.7647 49.1311 27.1776Z" fill="#4606C8"/>
<path d="M72.6464 4.19408C71.8906 4.19408 71.4706 3.77467 71.3867 3.01974C71.3027 1.59375 71.3027 0.922697 71.7226 0.50329C72.2265 0 72.8984 0 74.2421 0H76.4257C78.1054 0 79.7851 0 81.4648 0C81.8007 0 82.2206 0 82.5566 0.335526C82.8925 0.671053 82.8925 1.09046 82.8925 1.42599C82.8925 3.94243 82.6406 4.19408 80.0371 4.19408H75.8378C74.746 4.19408 73.7382 4.19408 72.6464 4.19408ZM72.5624 3.01974C72.5624 3.01974 72.6464 3.01974 72.5624 3.01974C73.6542 3.01974 74.746 3.01974 75.8378 3.01974H80.0371C80.7089 3.01974 81.4648 3.01974 81.5488 2.93586C81.6328 2.85197 81.6327 2.18092 81.6327 1.50987C81.6327 1.34211 81.6327 1.25822 81.6327 1.25822C81.6327 1.25822 81.5488 1.25822 81.3808 1.25822C79.7011 1.25822 78.0214 1.25822 76.3417 1.25822H74.1581C73.4023 1.25822 72.6464 1.25822 72.5624 1.34211C72.4785 1.50987 72.4785 2.2648 72.5624 2.93586V3.01974Z" fill="#4606C8"/>
<path d="M29.3109 4.19408C28.4711 4.19408 28.0511 3.77467 28.0511 2.93586C28.0511 1.59375 27.9672 0.922697 28.4711 0.419408C28.891 0 29.5629 0 30.9066 0H32.9222C34.6019 0 36.3656 0 38.0453 0C38.3812 0 38.8011 0 39.1371 0.335526C39.473 0.671053 39.473 1.09046 39.473 1.42599C39.473 3.94243 39.2211 4.19408 36.7015 4.19408H32.4183C31.4105 4.19408 30.4027 4.19408 29.3109 4.19408ZM29.2269 3.01974C29.2269 3.01974 29.3109 3.01974 29.2269 3.01974C30.4027 3.01974 31.4105 3.01974 32.5023 3.01974H36.7855C37.4574 3.01974 38.1293 3.01974 38.2133 2.93586C38.2972 2.85197 38.2972 2.18092 38.2972 1.50987C38.2972 1.34211 38.2972 1.25822 38.2972 1.17434C38.2972 1.17434 38.2133 1.17434 38.0453 1.17434C36.3656 1.17434 34.6019 1.17434 32.9222 1.17434H30.9066C30.1508 1.17434 29.3949 1.17434 29.3109 1.25822C29.2269 1.34211 29.2269 2.18092 29.2269 2.85197C29.2269 2.93586 29.2269 3.01974 29.2269 3.01974Z" fill="#4606C8"/>
<path d="M51.0624 4.19408C50.2226 4.19408 49.8027 3.77467 49.8027 2.93586C49.7187 1.59375 49.7187 0.922697 50.1386 0.419408C50.6425 0 51.3144 0 52.6581 0H54.5898C56.2695 0 58.0331 0 59.7128 0C60.0488 0 61.0566 0 61.0566 1.25822C61.0566 2.60033 61.1406 3.27138 60.6367 3.69079C60.2167 4.19408 59.6288 4.19408 58.2851 4.19408H55.4296H54.1699C53.162 4.19408 52.1542 4.19408 51.0624 4.19408C51.1464 4.19408 51.0624 4.19408 51.0624 4.19408ZM50.9785 3.01974H51.0624C52.0703 3.01974 53.0781 3.01974 54.0859 3.01974H55.3456H58.2011C58.957 3.01974 59.6288 3.01974 59.7968 2.93586C59.8808 2.85197 59.8808 2.09704 59.8808 1.42599C59.8808 1.34211 59.8808 1.25822 59.8808 1.25822C59.8808 1.25822 59.7968 1.25822 59.7128 1.25822C58.0331 1.25822 56.2695 1.25822 54.5898 1.25822H52.6581C51.9023 1.25822 51.1464 1.25822 50.9785 1.34211C50.8945 1.50987 50.8945 2.18092 50.8945 2.93586C50.9785 2.93586 50.9785 3.01974 50.9785 3.01974Z" fill="#4606C8"/>
<path d="M5.37478 48.3158C4.199 48.3158 4.11502 47.3931 4.03103 47.0576C3.77908 44.7089 3.44314 42.3602 3.1072 39.8438C3.02322 39.4244 3.02322 38.9211 3.35916 38.5017C3.6951 38.0823 4.28299 38.0823 4.61892 38.0823C6.46658 38.1662 8.39822 38.0823 10.2459 38.0823C11.0017 38.0823 11.6736 38.0823 12.4295 38.0823H14.697C16.6287 38.0823 18.4763 38.0823 20.408 38.0823C20.6599 38.0823 21.2478 38.0823 21.5838 38.4178C21.9197 38.7533 21.8357 39.2566 21.8357 39.5083C21.4998 42.1086 21.1638 44.7928 20.9119 47.1415C20.8279 47.8964 20.408 48.2319 19.6521 48.2319C14.949 48.3158 10.1619 48.3158 5.37478 48.3158ZM5.2908 47.0576H5.37478C10.1619 47.0576 14.949 47.0576 19.6521 47.0576C19.6521 47.0576 19.6521 47.0576 19.6521 46.9737C19.9041 44.625 20.24 41.9408 20.576 39.3405C20.576 39.2566 20.576 39.2566 20.576 39.1727C20.492 39.1727 20.492 39.1727 20.408 39.1727C18.4763 39.1727 16.5447 39.1727 14.697 39.1727H12.4295C11.6736 39.1727 11.0017 39.1727 10.2459 39.1727C8.39822 39.1727 6.46658 39.1727 4.61892 39.1727C4.36697 39.1727 4.28299 39.1727 4.28299 39.1727C4.28299 39.1727 4.28299 39.2566 4.28299 39.5083C4.61892 42.0247 4.95486 44.4573 5.20681 46.806C5.20681 46.9737 5.2908 47.0576 5.2908 47.0576Z" fill="#4606C8"/>
<path d="M21.1643 33.8881C15.8733 33.8881 10.1624 33.8881 3.86353 33.8881C3.27563 33.8881 2.43579 33.7203 2.35181 32.546C2.26782 31.5394 2.09985 30.6167 2.01587 29.6101C1.93188 29.0229 1.8479 28.3519 1.76392 27.7647C1.67993 27.3453 1.76392 27.0937 2.01587 26.842C2.35181 26.5065 2.77173 26.5904 3.02368 26.5904C3.10767 26.5904 3.10767 26.5904 3.10767 26.5904C5.54321 26.5904 7.89477 26.5904 10.3303 26.5904H12.5979V27.1775V26.5904H15.1174C17.385 26.5904 19.7366 26.5904 22.0042 26.5904C22.3401 26.5904 22.76 26.5904 23.0959 26.9259C23.3479 27.2614 23.3479 27.6808 23.2639 28.0164C23.0959 29.1907 22.928 30.4489 22.844 31.6233L22.676 32.4621C22.592 33.4687 22.0881 33.8881 21.1643 33.8881ZM12.6819 32.7137C15.6213 32.7137 18.3928 32.7137 21.1643 32.7137C21.4163 32.7137 21.5002 32.7137 21.5002 32.6298C21.5002 32.6298 21.5002 32.546 21.5842 32.2943L21.6682 31.5394C21.7522 30.365 21.9202 29.1068 22.0881 27.8486V27.7647H22.0042C19.7366 27.7647 17.385 27.7647 15.1174 27.7647H10.4143C7.97876 27.7647 5.6272 27.7647 3.19165 27.7647C3.10767 27.7647 3.10767 27.7647 3.02368 27.7647C3.10767 28.3519 3.19165 28.8552 3.19165 29.4423C3.27563 30.4489 3.4436 31.3716 3.52759 32.3782C3.52759 32.546 3.61157 32.6298 3.61157 32.6298C3.61157 32.6298 3.69556 32.6298 3.86353 32.6298C6.88696 32.7137 9.82642 32.7137 12.6819 32.7137Z" fill="#4606C8"/>
<path d="M1.51172 26.926C1.0918 26.926 0.671875 26.8421 0.335938 26.5905C0.0839844 26.3388 0 26.0033 0 25.5839C0 24.3257 1.0918 24.3257 1.51172 24.3257C4.2832 24.3257 7.13867 24.3257 9.91016 24.3257H13.1016H15.2012C17.8887 24.3257 20.6602 24.3257 23.3477 24.3257C23.5996 24.3257 24.1875 24.3257 24.5234 24.6612C24.7754 24.9129 24.8594 25.2484 24.8594 25.6678C24.8594 26.926 23.7676 26.926 23.3477 26.926C16.125 26.926 8.81836 26.926 1.51172 26.926ZM1.25977 25.7517C1.25977 25.7517 1.42773 25.7517 1.51172 25.7517C8.81836 25.7517 16.125 25.7517 23.4316 25.7517C23.5156 25.7517 23.6836 25.7517 23.7676 25.7517V25.6678C23.7676 25.5839 23.7676 25.5 23.7676 25.5C23.7676 25.5 23.6836 25.5 23.5156 25.5C20.8281 25.5 18.0566 25.5 15.3691 25.5H9.99414C7.22266 25.5 4.36719 25.5 1.5957 25.5C1.51172 25.5 1.34375 25.5 1.25977 25.5V25.5839C1.17578 25.6678 1.17578 25.7517 1.25977 25.7517C1.17578 25.7517 1.25977 25.7517 1.25977 25.7517Z" fill="#4606C8"/>
<path d="M4.19922 38.2499C2.77148 38.2499 2.77148 37.1595 2.77148 36.7401C2.77148 36.3206 2.85547 36.069 3.10742 35.8174C3.44336 35.4818 3.86328 35.5657 4.11523 35.5657C4.19922 35.5657 4.19922 35.5657 4.2832 35.5657C6.38281 35.5657 8.39844 35.5657 10.498 35.5657H12.5137V36.1529V35.5657H14.3613C16.5449 35.5657 18.6445 35.5657 20.8281 35.5657C20.9121 35.5657 20.9121 35.5657 20.9961 35.5657C21.248 35.5657 21.668 35.4818 22.0039 35.8174C22.2559 35.9851 22.3398 36.3206 22.3398 36.7401C22.3398 37.0756 22.3398 38.166 20.9121 38.166C15.2012 38.2499 9.57422 38.2499 4.19922 38.2499ZM4.03125 37.0756C4.03125 37.0756 4.11523 37.0756 4.19922 37.0756C9.57422 37.0756 15.2012 37.0756 20.7441 37.0756C20.9121 37.0756 20.9961 37.0756 20.9961 37.0756C20.9961 37.0756 20.9961 36.9917 20.9961 36.9078C20.9121 36.9078 20.8281 36.9078 20.7441 36.9078C18.5605 36.9078 16.4609 36.9078 14.2773 36.9078H12.4297H10.4141C8.31445 36.9078 6.29883 36.9078 4.19922 36.9078C4.11523 36.9078 4.03125 36.9078 3.94727 36.9078C4.03125 36.9917 4.03125 37.0756 4.03125 37.0756Z" fill="#4606C8"/>
<path d="M21.0801 36.4046C19.6523 36.4046 18.2246 36.4046 16.8809 36.4046H12.4297H10.2461C8.23047 36.4046 6.13086 36.4046 4.11523 36.4046C3.7793 36.4046 2.6875 36.4046 2.60352 35.1464C2.60352 34.8109 2.60352 34.4754 2.85547 34.2237C3.10742 33.9721 3.52734 33.8882 3.7793 33.8882C9.07031 33.8882 14.2773 33.8882 19.5684 33.8882H21.1641C21.416 33.8882 21.8359 33.8882 22.1719 34.2237C22.3398 34.3915 22.4238 34.727 22.4238 35.0625C22.3398 35.3981 22.3398 36.4046 21.0801 36.4046ZM3.7793 35.1464C3.7793 35.2303 3.7793 35.2303 3.7793 35.3142C3.7793 35.3142 3.86328 35.3142 4.03125 35.3142C6.04688 35.3142 8.14648 35.3142 10.1621 35.3142H12.3457H16.7969C18.2246 35.3142 19.5684 35.3142 20.9961 35.3142C21.0801 35.3142 21.0801 35.3142 21.1641 35.3142V35.2303H19.4844C14.2773 35.1464 9.07031 35.1464 3.7793 35.1464Z" fill="#4606C8"/>
<path d="M19.6523 49.6579C19.5684 49.6579 19.4004 49.6579 19.3164 49.6579C19.2324 49.6579 19.2324 49.6579 19.1484 49.6579C15.5371 49.6579 11.8418 49.6579 8.23047 49.6579H5.62695C5.54297 49.6579 5.45898 49.6579 5.375 49.6579C5.12305 49.6579 4.70313 49.6579 4.45117 49.4062C4.2832 49.2385 4.11523 48.9029 4.11523 48.5674C4.11523 48.2319 4.19922 47.9802 4.36719 47.8125C4.61914 47.5608 5.03906 47.5608 5.20703 47.5608H5.29102H13.8574C15.6211 47.5608 17.3008 47.5608 19.0645 47.5608C19.1484 47.5608 19.1484 47.5608 19.2324 47.5608C19.4844 47.5608 19.9043 47.477 20.2402 47.8125C20.4922 47.9802 20.5762 48.3158 20.5762 48.6513C20.5762 48.9868 20.4082 49.3223 20.2402 49.4901C20.1562 49.574 19.9043 49.6579 19.6523 49.6579Z" fill="#4606C8"/>
</g>
<defs>
<clipPath id="clip0_270_1410">
<rect width="86" height="51" fill="white"/>
</clipPath>
</defs>
</svg>
