<svg width="87" height="41" viewBox="0 0 87 41" fill="none" xmlns="http://www.w3.org/2000/svg">
<g clip-path="url(#clip0_270_1479)">
<path d="M82.023 0C82.2275 0.136439 82.5002 0.204659 82.7048 0.409318C83.2502 0.818636 83.5911 1.29617 83.5911 1.97837C83.5911 2.59235 83.5911 3.20632 83.5229 3.8203C83.4548 4.36606 83.0457 4.77537 82.6366 5.11647C82.2275 5.38935 82.2275 5.52579 82.6366 5.79867C83.2502 6.13977 83.8639 6.48087 84.4775 6.82196C85.6366 7.43594 86.4548 8.3228 86.7957 9.61897C86.932 10.0965 86.932 10.574 86.932 11.0516C86.932 14.6672 87.0002 18.2146 87.0002 21.8303C87.0002 25.1048 87.0002 28.4476 87.0002 31.7221C87.0002 32.609 87.0002 33.4958 86.7275 34.3145C85.9775 36.4975 84.4775 37.9301 82.2957 38.6123C81.8184 38.7488 81.4093 38.817 80.932 38.817C74.8639 38.817 68.7275 38.817 62.6593 38.817C61.9775 38.817 61.2957 38.6805 60.682 38.4077C58.5002 37.5208 57.2048 35.9518 56.5911 33.7005C56.5229 33.4958 56.5229 33.2912 56.5229 33.0183C56.5229 25.9235 56.5229 18.8968 56.5229 11.802C56.5229 11.188 56.5229 10.574 56.5911 9.96007C56.6593 9.20965 57.0002 8.59567 57.4093 7.9817C57.8184 7.43594 58.3639 7.02662 58.9775 6.68552C59.5911 6.41265 60.1366 6.07155 60.682 5.73045C60.8184 5.66223 60.9548 5.52579 61.1593 5.38935C61.0229 5.45757 60.8866 5.45757 60.7502 5.38935C59.7957 5.11647 59.182 4.29784 59.182 3.34276C59.182 2.79701 59.182 2.18303 59.2502 1.63727C59.3184 0.886855 60.2048 0.136439 60.9548 0.0682196C61.5002 0 61.9775 0.0682196 62.5229 0C62.5911 0 62.6593 0 62.7275 0C69.1366 0 75.6139 0 82.023 0ZM81.0002 5.45757C74.8639 5.45757 68.6593 5.45757 62.5229 5.45757C62.3866 6.34443 61.8411 6.89018 61.0911 7.23128C60.5457 7.50416 60.0002 7.77704 59.4548 8.11814C59.1139 8.3228 58.7729 8.59567 58.432 8.93677C57.9548 9.41431 57.8866 10.0965 57.8184 10.7787C57.8184 11.5973 57.7502 12.416 57.7502 13.2346C57.7502 19.8519 57.7502 26.401 57.7502 33.0183C57.7502 33.3594 57.8184 33.6323 57.8866 33.9734C58.3639 35.4742 59.3184 36.5657 60.7502 37.1115C61.0911 37.2479 61.5002 37.4526 61.8411 37.4526C68.3866 37.4526 74.8639 37.4526 81.4093 37.4526C81.4775 37.4526 81.5457 37.4526 81.6139 37.4526C82.2957 37.2479 82.9093 36.975 83.5229 36.5657C84.4775 35.8835 85.0911 34.9967 85.432 33.9052C85.5002 33.7005 85.5684 33.5641 85.5684 33.3594C85.5684 28.4476 85.5684 23.5358 85.6366 18.624C85.6366 16.0316 85.6366 13.371 85.5684 10.7787C85.5684 9.68719 85.1593 8.86855 84.2048 8.3228C83.5911 7.9817 82.9775 7.70882 82.432 7.36772C82.0229 7.16306 81.682 6.9584 81.4093 6.6173C81.2048 6.20799 81.0002 5.86689 81.0002 5.45757ZM79.9775 4.09318C79.9093 4.02496 79.9093 4.02496 79.8411 3.95674C79.432 3.4792 79.3639 3.27454 79.8411 2.86522C80.2502 2.38769 80.7275 1.97837 81.1366 1.56905C81.2048 1.50083 81.2048 1.50083 81.2729 1.43261C80.5229 1.43261 79.8411 1.43261 79.1593 1.43261C79.1593 1.50083 79.2275 1.50083 79.2275 1.50083C79.6366 1.97837 79.6366 2.25125 79.2275 2.72879C78.8184 3.1381 78.4093 3.54742 78.0002 3.95674C77.932 4.02496 77.932 4.02496 77.8639 4.1614C78.5457 4.09318 79.2275 4.09318 79.9775 4.09318ZM62.7957 1.36439C62.8639 1.43261 62.8639 1.43261 62.932 1.50083C63.3411 1.91015 63.3411 2.18303 62.932 2.59235C62.5911 2.93344 62.2502 3.27454 61.9093 3.61564C61.773 3.75208 61.5684 3.88852 61.432 4.02496C61.432 4.02496 61.432 4.09318 61.5002 4.09318C62.182 4.09318 62.8639 4.09318 63.6139 4.09318C63.6139 4.09318 63.6139 4.02496 63.5457 4.02496C63.0684 3.54742 63.0684 3.27454 63.5457 2.79701C63.9548 2.38769 64.3639 1.97837 64.7729 1.56905C64.8411 1.50083 64.8411 1.50083 64.9093 1.43261C64.2275 1.36439 63.5457 1.36439 62.7957 1.36439ZM66.3411 4.09318C66.273 4.02496 66.2729 3.95674 66.2048 3.95674C65.932 3.61564 65.8639 3.27454 66.1366 3.00166C66.5457 2.52413 67.0229 2.04659 67.5002 1.56905C67.5684 1.50083 67.6366 1.43261 67.7048 1.36439C66.9548 1.36439 66.2729 1.36439 65.5911 1.36439C65.6593 1.43261 65.7275 1.50083 65.7957 1.56905C66.0684 1.91015 66.0684 2.18303 65.7957 2.45591C65.3184 2.93344 64.9093 3.41098 64.432 3.88852C64.3639 3.95674 64.2957 3.95674 64.2275 3.95674L64.2957 4.02496C64.9093 4.09318 65.5911 4.09318 66.3411 4.09318ZM77.2502 4.09318C77.182 4.02496 77.182 4.02496 77.182 3.95674C76.7729 3.4792 76.7048 3.27454 77.182 2.86522C77.5911 2.38769 78.0684 1.97837 78.4775 1.56905C78.5457 1.50083 78.5457 1.50083 78.6139 1.43261C77.932 1.43261 77.2502 1.43261 76.5684 1.43261C76.6366 1.50083 76.7048 1.56905 76.7048 1.63727C76.9775 1.97837 76.9775 2.25125 76.7048 2.52413C76.6366 2.59235 76.6366 2.66057 76.5684 2.72879C76.1593 3.1381 75.7502 3.54742 75.3411 3.95674C75.2729 4.02496 75.273 4.02496 75.2048 4.09318C75.8184 4.09318 76.5002 4.09318 77.2502 4.09318ZM73.7729 1.36439C74.2502 1.91015 74.2502 2.11481 73.8411 2.59235C73.432 3.06988 72.9548 3.4792 72.5457 3.95674C72.4775 4.02496 72.4775 4.02496 72.4093 4.09318C73.1593 4.09318 73.8411 4.09318 74.523 4.09318C74.523 4.02496 74.5229 4.02496 74.4548 4.02496C74.0457 3.75208 74.0457 3.20632 74.3866 2.93344C74.8639 2.45591 75.2729 2.04659 75.7502 1.56905C75.8184 1.50083 75.8184 1.50083 75.8866 1.43261C75.1366 1.36439 74.5229 1.36439 73.7729 1.36439ZM68.2502 1.36439C68.3184 1.43261 68.3184 1.43261 68.3184 1.43261C68.7275 1.70549 68.7275 2.25125 68.3866 2.52413C67.9093 2.93344 67.5002 3.41098 67.0911 3.8203C67.0229 3.88852 66.9548 3.95674 66.8866 4.02496C67.5684 4.02496 68.2502 4.02496 69.0002 4.02496C68.5229 3.4792 68.5229 3.27454 69.0002 2.72879C69.4093 2.31947 69.8184 1.91015 70.2275 1.50083C70.2957 1.43261 70.2957 1.43261 70.3639 1.36439C69.682 1.36439 69.0002 1.36439 68.2502 1.36439ZM71.7275 4.09318C71.7275 4.02496 71.7275 4.02496 71.7275 4.09318C71.7275 4.02496 71.7275 4.02496 71.6593 3.95674C71.3184 3.61564 71.3184 3.27454 71.5911 2.93344C72.0002 2.45591 72.4775 1.97837 72.9548 1.50083C73.0229 1.43261 73.0911 1.43261 73.1593 1.43261L73.0911 1.36439C72.4093 1.36439 71.7275 1.36439 70.9775 1.36439C71.0457 1.43261 71.1139 1.50083 71.182 1.56905C71.3866 1.77371 71.4548 2.04659 71.3184 2.31947C71.2502 2.45591 71.182 2.52413 71.0457 2.66057C70.6366 3.06988 70.2275 3.54742 69.7502 3.95674C69.682 4.02496 69.682 4.02496 69.6139 4.09318C70.3639 4.09318 71.0457 4.09318 71.7275 4.09318ZM80.5911 4.02496V4.09318C81.0002 4.02496 81.4093 4.02496 81.8184 3.95674C82.0229 3.95674 82.1593 3.8203 82.1593 3.61564C82.2275 3.20632 82.2275 2.79701 82.1593 2.38769C81.682 3.00166 81.1366 3.54742 80.5911 4.02496ZM60.5457 2.93344C61.0911 2.45591 61.6366 1.91015 62.182 1.36439C61.7729 1.36439 61.432 1.36439 61.0229 1.36439C60.682 1.36439 60.5457 1.56905 60.5457 1.91015C60.5457 2.25125 60.5457 2.66057 60.5457 2.93344Z" fill="#4606C8"/>
<path d="M66.0002 11.9384C67.023 11.0515 68.1139 10.7787 69.4093 10.9151C69.4093 10.6422 69.4093 10.4376 69.4093 10.1647C69.3411 9.27783 69.682 8.59563 70.2275 7.98166C70.7048 7.4359 71.3184 6.95836 72.1366 6.82192C73.5684 6.61726 74.6593 7.0948 75.5457 8.25454C75.682 8.39097 75.7502 8.59563 75.8866 8.80029C76.0911 8.59563 76.2275 8.45919 76.432 8.25454C76.9775 7.70878 77.523 7.29946 78.2048 7.02658C79.5684 6.48082 80.8639 6.7537 82.023 7.64056C83.1139 8.45919 83.7957 9.55071 84.273 10.7787C84.8866 12.2795 85.0911 13.8485 84.9548 15.4176C84.8184 17.2595 84.2048 18.965 83.1139 20.4658C82.773 20.9434 82.2957 21.3527 81.8184 21.6938C81.7502 21.762 81.682 21.762 81.6139 21.8302C81.7502 21.8985 81.8866 21.9667 82.023 22.0349C82.8411 22.4442 83.6593 22.9218 84.1366 23.7404C84.6139 24.4226 84.8866 25.173 84.9548 25.9234C85.023 26.7421 84.7502 27.4925 84.3411 28.1747C84.0002 28.7886 83.523 29.3344 82.9093 29.7437C82.8411 29.7437 82.8411 29.8119 82.773 29.8802C82.9775 30.153 83.2502 30.3577 83.4548 30.6306C84.682 32.1314 84.4093 34.1098 82.9775 35.2695C82.3639 35.8153 81.6139 36.0199 80.7957 36.0199C79.6366 36.0199 78.5457 36.0199 77.3866 36.0199C75.7502 36.0199 74.2502 34.5191 74.1139 32.95C74.1139 32.5407 74.0457 32.5407 73.6366 32.6089C73.5002 32.6089 73.3639 32.6772 73.2275 32.6772C73.2957 32.8136 73.432 32.8818 73.5002 33.0183C74.2502 33.9051 74.2502 34.9284 73.5002 35.747C72.7502 36.6339 71.7275 36.9068 70.7048 36.6339C69.8866 36.4292 69.2048 35.8835 68.8639 35.0649C68.7957 34.9966 68.7957 34.9284 68.7275 34.792C68.6593 34.8602 68.5911 34.9284 68.523 34.9284C67.6366 35.747 66.5457 36.361 65.3866 36.5657C63.0002 36.9068 60.9548 36.2246 59.4548 34.2462C58.1593 32.6089 58.2275 30.4941 59.523 28.8569C60.2048 27.97 61.023 27.2878 62.1139 26.8785C62.182 26.8785 62.2502 26.8103 62.3184 26.7421C62.0457 26.6056 61.8411 26.5374 61.6366 26.401C60.7502 25.9234 59.932 25.4459 59.3184 24.6272C58.773 23.9451 58.5002 23.1946 58.5684 22.376C58.6366 21.6938 58.9775 21.0798 59.3866 20.6023C59.7957 20.1248 60.2048 19.7837 60.7502 19.4426C60.8866 19.3743 60.9548 19.3061 61.0911 19.1697C60.4775 18.8286 60.0684 18.351 59.7275 17.8053C59.4548 17.396 59.3184 16.9866 59.3184 16.5091C59.3184 14.9401 59.2502 13.3028 59.2502 11.7337C59.2502 11.3926 59.3184 11.0515 59.3184 10.7104C59.4548 9.89181 59.932 9.34605 60.5457 8.86851C61.7048 7.84522 63.5457 7.777 64.8411 9.00495C65.5911 9.68715 65.932 10.5058 66.0002 11.4609C65.932 11.6655 66.0002 11.802 66.0002 11.9384ZM68.8639 26.5374C69.8866 26.5374 71.5911 26.2645 73.2957 25.6505C74.182 25.3094 74.932 24.9001 75.6139 24.2179C76.432 23.3311 76.432 22.1713 75.6139 21.2845C75.1366 20.7387 74.523 20.3976 73.9093 20.1248C72.4775 19.4426 70.9775 19.1697 69.4093 19.0332C68.2502 18.965 67.1593 18.965 66.0684 19.1015C64.8411 19.2379 63.682 19.5108 62.523 19.9883C61.773 20.3294 61.023 20.7387 60.4775 21.3527C60.1366 21.6938 59.932 22.1031 59.932 22.6489C59.8639 23.3993 60.2048 23.9451 60.7502 24.4226C61.3639 25.0366 62.1139 25.3777 62.932 25.6505C64.5002 26.3327 66.273 26.5374 68.8639 26.5374ZM83.6593 15.0083C83.6593 13.8485 83.5911 12.9617 83.3866 12.1431C83.0457 10.9833 82.5684 9.96003 81.682 9.07317C80.5911 7.98166 78.9548 7.91344 77.7275 8.86851C77.0457 9.41427 76.5684 10.0965 76.2275 10.9151C75.3411 13.0299 75.273 15.2129 75.8866 17.396C76.2275 18.4875 76.7048 19.5108 77.5911 20.3294C78.6139 21.2845 80.182 21.4209 81.3411 20.6023C82.023 20.1248 82.5002 19.5108 82.8411 18.7604C83.3866 17.4642 83.6593 16.168 83.6593 15.0083ZM64.1593 35.406C65.4548 35.406 66.5457 35.1331 67.432 34.3827C68.4548 33.4958 68.8639 32.4043 68.5911 31.0399C68.3866 29.8802 67.6366 29.0615 66.6139 28.5158C65.8639 28.1064 65.0457 28.0382 64.1593 27.97C62.932 27.97 61.8411 28.3793 60.9548 29.198C59.3866 30.6306 59.523 33.1547 61.1593 34.4509C62.0457 35.1331 63.1366 35.406 64.1593 35.406ZM83.5911 26.1963C83.5911 25.9234 83.5911 25.6505 83.523 25.3777C83.3866 24.7637 83.0457 24.2861 82.5684 23.8768C81.4775 22.99 80.2502 22.8535 78.9548 23.2629C77.6593 23.6722 76.8411 24.7637 76.8411 26.1281C76.8411 27.356 77.523 28.4475 78.7502 28.9933C79.432 29.2662 80.182 29.3344 80.932 29.198C82.2957 29.0615 83.7275 27.9018 83.5911 26.1963ZM64.5684 14.0532C64.5684 13.1663 64.5002 12.2795 64.5684 11.3926C64.5684 10.7104 64.2957 10.2329 63.7502 9.89181C63.1366 9.41427 61.9775 9.41427 61.2957 9.89181C60.8866 10.2329 60.5457 10.6422 60.5457 11.188C60.5457 12.9617 60.5457 14.7354 60.5457 16.5091C60.5457 16.8502 60.6139 17.1231 60.7502 17.396C61.5002 18.6239 63.6139 18.6921 64.3639 17.3277C64.5002 17.0549 64.5684 16.782 64.5684 16.4409C64.5684 15.6905 64.5684 14.8718 64.5684 14.0532ZM79.2275 30.6306C79.2275 30.6306 79.2275 30.6988 79.2275 30.6306C78.6139 30.6306 78.0002 30.6306 77.3866 30.6988C77.1139 30.6988 76.773 30.767 76.5684 30.9035C75.9548 31.3128 75.5457 31.8585 75.5457 32.6089C75.5457 33.0183 75.5457 33.4958 75.8184 33.8369C76.1593 34.2462 76.5002 34.6555 77.0457 34.6555C78.3411 34.6555 79.7048 34.6555 81.0002 34.7238C81.682 34.7238 82.2957 34.4509 82.6366 33.8369C82.9093 33.3594 82.9775 32.8136 82.8411 32.2678C82.7048 31.4492 82.0911 30.8352 81.273 30.767C80.5911 30.6988 79.9093 30.6988 79.2275 30.6306ZM68.932 17.6688C69.7502 17.7371 70.5002 17.1913 71.0457 16.3045C71.3184 15.8269 71.3866 15.2129 71.3184 14.6672C71.2502 13.371 70.2275 12.4842 69.273 12.3477C68.932 12.2795 68.6593 12.2795 68.3184 12.3477C67.5002 12.4159 66.8866 12.757 66.4093 13.371C65.8639 14.1214 66.0002 14.8718 66.0002 15.6905C66.0002 15.8269 66.0684 15.9634 66.1366 16.0998C66.682 17.1913 67.5684 17.6688 68.932 17.6688ZM73.1593 31.3128C73.9093 31.3128 74.2502 31.1763 74.7275 30.767C75.8866 29.8119 75.6139 27.97 74.182 27.4243C73.3639 27.1514 72.6139 27.1514 71.8639 27.4925C71.182 27.8336 70.773 28.3793 70.773 29.1297C70.7048 29.9484 71.0457 30.4941 71.7275 30.9035C72.1366 31.2446 72.6139 31.3128 73.1593 31.3128ZM74.7275 10.2329C74.7275 9.07317 73.9775 8.25453 72.8866 8.18632C71.3866 8.1181 70.7048 9.14139 70.7048 10.1647C70.7048 11.3926 71.523 12.2795 72.7502 12.2113C73.773 12.2795 74.8639 11.5973 74.7275 10.2329ZM75.3411 19.5108C74.3184 17.5324 74.0457 15.4176 74.182 13.3028C73.6366 13.371 73.1593 13.5074 72.682 13.5757C72.5457 13.5757 72.4775 13.6439 72.5457 13.7803C72.8866 15.0083 72.682 16.0998 72.0002 17.1231C71.7957 17.396 71.5911 17.6688 71.3184 17.9417C72.7502 18.351 74.0457 18.8968 75.3411 19.5108ZM71.3866 33.3594C71.182 33.3594 70.9775 33.4276 70.773 33.4276C70.3639 33.4958 70.0911 33.8369 70.023 34.3144C69.9548 34.7238 70.1593 35.0649 70.5684 35.2695C71.1139 35.5424 71.7275 35.5424 72.273 35.2695C72.682 35.0649 72.7502 34.7238 72.7502 34.3144C72.682 33.9051 72.4775 33.6322 72.1366 33.564C71.8639 33.4276 71.5911 33.4276 71.3866 33.3594ZM69.682 27.8336C69.2048 27.8336 68.6593 27.9018 68.1139 27.9018C68.523 28.3793 68.932 28.7886 69.273 29.198C69.4775 28.7886 69.5457 28.3111 69.682 27.8336ZM70.023 31.1763C70.023 31.5174 70.023 31.8585 70.023 32.2678C70.023 32.2678 70.0911 32.3361 70.1593 32.3361C70.432 32.2678 70.7048 32.1314 70.9775 32.0632C70.6366 31.7221 70.2957 31.4492 70.023 31.1763ZM78.1366 22.1713C77.8639 22.0349 77.6593 21.8985 77.3184 21.762C77.3866 22.0349 77.4548 22.2396 77.523 22.5124C77.7275 22.4442 77.932 22.3078 78.1366 22.1713ZM75.4775 26.6738C75.4775 26.401 75.4775 26.1963 75.4093 25.9916C75.2048 26.1281 75.0684 26.1963 74.8639 26.3327C75.0684 26.4692 75.273 26.6056 75.4775 26.6738Z" fill="#4606C8"/>
<path d="M29.6592 25.9917C29.6592 23.1265 29.6592 20.3295 29.6592 17.4643C29.6592 16.2363 30.1365 15.213 31.0228 14.3944C31.9774 13.5075 33.1365 12.8935 34.3637 12.416C36.0001 11.802 37.7728 11.4609 39.4774 11.3245C40.9774 11.1881 42.5455 11.1881 44.0455 11.3245C46.4319 11.5292 48.7501 12.0749 50.9319 13.3029C51.8183 13.8486 52.6365 14.4626 53.2501 15.3495C53.591 15.9634 53.7955 16.5774 53.7955 17.2596C53.7955 23.0583 53.7955 28.8569 53.7955 34.5874C53.7955 35.8153 53.3183 36.7704 52.5001 37.5891C51.4092 38.6124 50.1137 39.2263 48.7501 39.7039C46.0228 40.5907 43.2274 40.8636 40.4319 40.7272C38.591 40.6589 36.8183 40.3861 35.1137 39.8403C33.8183 39.431 32.5228 38.8852 31.5001 37.9984C30.6819 37.3844 30.0683 36.5658 29.7955 35.5425C29.7274 35.2696 29.7274 35.0649 29.7274 34.7921C29.6592 31.7904 29.6592 28.9252 29.6592 25.9917ZM52.841 20.7388C51.341 22.1032 50.4546 22.5807 48.9546 23.1947C47.0455 23.8769 45.1365 24.218 43.091 24.3544C40.841 24.4909 38.591 24.3544 36.4092 23.8087C36.2046 23.7405 36.1365 23.8087 36.0683 24.0134C36.0001 24.1498 35.9319 24.2862 35.8637 24.4909C34.5683 26.8786 32.7955 28.8569 30.6819 30.5624C30.5455 30.6307 30.5455 30.7671 30.5455 30.9035C30.5455 31.6539 30.6137 32.3361 30.5455 33.0866C30.4774 33.9052 30.8183 34.451 31.2955 34.9285C32.5228 36.1564 34.0228 36.9069 35.591 37.4526C38.0455 38.2713 40.5683 38.5441 43.091 38.4077C43.9092 38.3395 44.591 38.203 45.2728 37.7255C46.7046 36.7704 47.8637 35.6107 49.0228 34.3827C50.3183 32.8819 51.4774 31.3129 52.2274 29.4709C52.5001 28.8569 52.7728 28.1747 52.7728 27.4925C52.7728 25.7188 52.7728 24.0133 52.7728 22.2396C52.841 21.6257 52.841 21.2163 52.841 20.7388ZM41.6592 12.0749C40.9092 12.0749 40.091 12.1431 39.341 12.2114C37.4319 12.416 35.591 12.8253 33.8865 13.5757C32.9319 13.9851 32.0455 14.5308 31.2955 15.3495C30.4092 16.3728 30.341 17.396 31.1592 18.4876C31.2274 18.5558 31.2274 18.5558 31.2955 18.624C31.9774 19.4426 32.8637 20.0566 33.8865 20.4659C35.7274 21.3528 37.7728 21.7621 39.7501 21.8985C41.7955 22.035 43.841 21.9668 45.8865 21.6257C47.4546 21.3528 49.0228 20.8752 50.3865 20.0566C51.2046 19.5791 51.9546 19.0333 52.4319 18.2147C52.9774 17.3278 52.9774 16.441 52.3637 15.6223C52.2274 15.4177 52.091 15.2812 51.8865 15.0766C51.0683 14.2579 50.1137 13.7804 49.091 13.3711C46.7046 12.416 44.1819 12.1431 41.6592 12.0749ZM30.6137 18.6922C30.6137 18.9651 30.6137 19.1698 30.6137 19.3744C30.6137 19.6473 30.6819 19.852 30.8865 20.0566C31.5683 20.8752 32.4546 21.4892 33.4092 21.9668C35.591 23.0583 37.9774 23.5358 40.4319 23.6723C41.7274 23.7405 43.0228 23.7405 44.3183 23.604C46.0228 23.3994 47.6592 23.0583 49.2274 22.4443C50.5228 21.8985 51.6819 21.2163 52.6364 20.1248C53.0455 19.6473 52.9092 19.1698 52.9092 18.6922C52.7728 18.7604 52.7046 18.8969 52.6364 18.9651C51.7501 19.9884 50.6592 20.6024 49.4319 21.1481C47.6592 21.8985 45.7501 22.2396 43.841 22.4443C41.1819 22.649 38.5228 22.5125 35.9319 21.7621C33.8183 21.2163 31.9092 20.4659 30.6137 18.6922ZM52.7728 34.7238C52.1592 35.406 51.4774 35.9518 50.7274 36.4293C48.341 37.9302 45.7501 38.5441 42.9546 38.7488C41.0455 38.8852 39.1365 38.7488 37.2955 38.3395C35.4546 37.9302 33.7501 37.248 32.1819 36.2247C31.5683 35.8153 31.0228 35.3378 30.5455 34.7921C30.5455 35.406 30.7501 35.8836 31.0228 36.3611C31.5683 37.1115 32.2501 37.5891 33.0001 37.9984C35.0455 39.0899 37.2955 39.5674 39.6137 39.7721C41.3865 39.9085 43.1592 39.9085 44.9319 39.6356C46.6365 39.3628 48.341 38.9535 49.9092 38.203C50.7955 37.7937 51.6137 37.248 52.2274 36.4293C52.6365 35.8836 52.841 35.406 52.7728 34.7238ZM30.6137 29.7438C30.7501 29.6756 30.8183 29.6074 30.8865 29.5391C31.5683 28.9252 32.2501 28.3112 32.8637 27.629C33.8865 26.4693 34.841 25.2413 35.5228 23.8087C35.591 23.604 35.591 23.604 35.3865 23.5358C33.8183 23.0583 32.3183 22.3761 31.091 21.2163C30.9546 21.0799 30.8183 20.8752 30.6819 20.7388L30.6137 20.807C30.6137 23.7405 30.6137 26.7421 30.6137 29.7438ZM52.841 29.5391C51.2728 32.8137 48.9546 35.4742 46.1592 37.6573C46.2274 37.6573 46.2955 37.7255 46.4319 37.6573C47.591 37.3844 48.6819 36.9751 49.7046 36.4293C50.8637 35.8153 51.9546 35.0649 52.7046 33.9734C52.7728 33.9052 52.841 33.837 52.841 33.7005C52.841 32.3361 52.841 30.9718 52.841 29.5391Z" fill="#4606C8"/>
<path d="M41.7953 41.0002C41.318 41.0002 40.8408 41.0002 40.3635 40.932C38.3862 40.8637 36.6135 40.5226 34.9771 39.9769C33.409 39.4993 32.2499 38.8854 31.2271 38.0667C30.2726 37.2481 29.659 36.4295 29.4544 35.4744C29.3862 35.2015 29.3862 34.9286 29.3862 34.6558V23.3995C29.3862 21.3529 29.3862 19.3746 29.3862 17.328C29.3862 16.0318 29.8635 14.9403 30.8181 14.0534C31.7044 13.2348 32.7953 12.5526 34.2271 12.0068C35.7953 11.4611 37.4999 11.0518 39.409 10.9153C40.9771 10.7789 42.5453 10.7789 44.0453 10.9153C46.909 11.1882 49.0908 11.8022 50.9999 12.8937C52.0908 13.5077 52.8408 14.1899 53.3862 15.0085C53.7953 15.6225 53.9999 16.3047 53.9999 17.0551V20.9436C53.9999 25.4461 53.9999 29.9486 53.9999 34.3829C53.9999 35.679 53.5226 36.7023 52.6362 37.5892C51.6817 38.5443 50.4544 39.2265 48.7499 39.7722C46.6362 40.6591 44.318 41.0002 41.7953 41.0002ZM41.7271 11.3929C40.9771 11.3929 40.2271 11.3929 39.4771 11.4611C37.5681 11.5975 35.9317 12.0068 34.4317 12.5526C32.9999 13.0983 31.9771 13.7123 31.159 14.4627C30.2726 15.2814 29.8635 16.2364 29.8635 17.3962C29.8635 19.4428 29.8635 21.4894 29.8635 23.4677V34.724C29.8635 34.9969 29.8635 35.2015 29.9317 35.4062C30.1362 36.2248 30.6135 36.9752 31.4999 37.7256C32.4544 38.4761 33.5453 39.0218 35.0453 39.4993C36.6817 40.0451 38.3862 40.318 40.2953 40.3862C43.3635 40.5226 46.0908 40.1815 48.5453 39.3629C50.1135 38.8172 51.2726 38.135 52.2271 37.3163C53.0453 36.4977 53.4544 35.6108 53.4544 34.4511C53.4544 29.9486 53.4544 25.4461 53.4544 21.0118V17.1233C53.4544 16.4411 53.318 15.8954 52.909 15.3496C52.4317 14.5992 51.7499 13.9852 50.7271 13.3712C48.8862 12.3479 46.7044 11.734 43.9771 11.4611C43.2953 11.4611 42.4771 11.3929 41.7271 11.3929ZM41.7271 40.1133C41.0453 40.1133 40.3635 40.1133 39.6817 40.0451C36.9544 39.7722 34.8408 39.2265 32.9999 38.2032C32.0453 37.7256 31.3635 37.1799 30.8862 36.4977C30.4771 35.9519 30.3408 35.4062 30.3408 34.7922V34.1782L30.7499 34.6558C31.2953 35.2015 31.7726 35.679 32.3862 36.0884C33.818 37.0434 35.4544 37.7256 37.3635 38.2032C39.2044 38.6125 41.1135 38.7489 42.9544 38.6125C45.9544 38.4078 48.4771 37.6574 50.5908 36.293C51.3408 35.8155 52.0226 35.2697 52.568 34.6558L52.9771 34.1782V34.7922C52.9771 35.4062 52.8408 36.0201 52.4317 36.5659C51.7499 37.521 50.7953 38.0667 50.0453 38.4078C48.6135 39.09 47.0453 39.5676 44.9999 39.8404C43.909 39.9769 42.8181 40.1133 41.7271 40.1133ZM30.9544 35.4744C31.0226 35.679 31.159 35.9519 31.2953 36.1566C31.7044 36.7706 32.3181 37.2481 33.2044 37.7256C34.9771 38.6807 37.0226 39.2265 39.6817 39.4993C41.3862 39.6358 43.159 39.6358 44.9317 39.3629C46.8408 39.09 48.409 38.6125 49.8408 37.9303C50.8635 37.3845 51.6135 36.907 52.0908 36.2248C52.2953 35.9519 52.4317 35.7473 52.4999 35.4744C52.0226 35.9519 51.4771 36.293 50.9317 36.7023C48.7499 38.0667 46.159 38.8854 43.0226 39.09C41.1135 39.2265 39.1362 39.09 37.2953 38.6125C35.2499 38.135 33.6135 37.4528 32.1135 36.4295C31.7044 36.1566 31.2953 35.8155 30.9544 35.4744ZM41.7953 38.5443C39.5453 38.5443 37.4999 38.2032 35.5226 37.521C33.7499 36.907 32.3181 36.0201 31.159 34.9286C30.6817 34.4511 30.2044 33.8371 30.2726 32.882C30.3408 32.4045 30.3408 31.8587 30.2726 31.313C30.2726 31.1083 30.2726 30.9037 30.2726 30.7672C30.2726 30.5626 30.3408 30.3579 30.5453 30.2215C32.7953 28.3795 34.4999 26.4694 35.659 24.2181L35.7271 24.1499C35.7953 24.0135 35.8635 23.9453 35.8635 23.8088C35.9317 23.4677 36.2044 23.3995 36.4771 23.4677C38.5226 23.9453 40.7044 24.1499 43.0908 24.0135C45.2726 23.877 47.1135 23.5359 48.8862 22.922C50.3862 22.3762 51.2044 21.8305 52.7044 20.5343L53.1135 20.1932V27.3562C53.1135 28.1067 52.8408 28.8571 52.568 29.4711C51.8862 31.1083 50.7953 32.6774 49.2953 34.4511C47.9999 35.8837 46.7726 36.9752 45.5453 37.8621C44.9317 38.3396 44.1817 38.5443 43.2271 38.6125C42.6817 38.5443 42.2044 38.5443 41.7953 38.5443ZM36.3408 23.9453C36.2726 24.1499 36.2044 24.2864 36.1362 24.3546L36.0681 24.4228C34.909 26.6741 33.2044 28.7206 30.8862 30.5626C30.818 30.6308 30.8181 30.6308 30.8181 30.699C30.8181 30.9037 30.8181 31.1083 30.8181 31.2448C30.8181 31.7905 30.8181 32.3363 30.8181 32.882C30.7499 33.5642 31.0226 34.0418 31.4999 34.5193C32.5908 35.6108 33.9544 36.4295 35.7271 36.9752C37.9771 37.7256 40.3635 38.0667 43.159 37.9303C44.0453 37.8621 44.659 37.6574 45.2044 37.2481C46.4999 36.3612 47.659 35.3379 48.8862 33.9053C50.3862 32.1998 51.409 30.699 52.0908 29.0617C52.3635 28.516 52.6362 27.8338 52.6362 27.1516V21.08C51.3408 22.1716 50.4544 22.6491 49.0908 23.1949C47.3181 23.877 45.409 24.2181 43.159 24.3546C40.6362 24.6275 38.4544 24.491 36.3408 23.9453ZM46.2271 37.9303C46.159 37.9303 46.0908 37.9303 46.0226 37.8621L45.6135 37.7256L45.9544 37.4528C48.8862 35.2015 51.068 32.5409 52.568 29.4028L53.0453 28.3795V30.2215C53.0453 31.3812 53.0453 32.5409 53.0453 33.6325C53.0453 33.8371 52.9771 33.9736 52.909 34.0418C52.159 35.0651 51.1362 35.8837 49.7726 36.5659C48.8181 37.1117 47.7271 37.521 46.4317 37.8621C46.3635 37.9303 46.2953 37.9303 46.2271 37.9303ZM52.568 30.6308C51.2044 33.0867 49.4317 35.2697 47.1135 37.2481C47.9999 36.9752 48.818 36.6341 49.568 36.2248C50.8635 35.5426 51.8181 34.7922 52.4999 33.8371C52.5681 33.7689 52.568 33.7689 52.568 33.7007C52.568 32.6774 52.568 31.6541 52.568 30.6308ZM30.3408 30.2897V20.6025L30.6817 20.3296L31.0226 20.6707C31.0908 20.7389 31.159 20.8754 31.2953 20.9436C32.3862 21.8987 33.6817 22.6491 35.5226 23.1949C35.5908 23.1949 35.7953 23.2631 35.8635 23.4677C35.9317 23.6042 35.8635 23.8088 35.7953 23.877C35.1817 25.1732 34.3635 26.4012 33.1362 27.7656C32.5226 28.4478 31.8408 29.13 31.159 29.7439L30.3408 30.2897ZM30.8181 21.2847V29.1982C31.4317 28.6524 32.0453 28.0384 32.659 27.4245C33.8862 26.0601 34.7044 24.9003 35.2499 23.6724C33.409 23.1266 32.0453 22.3762 30.8181 21.2847C30.8862 21.3529 30.8862 21.2847 30.8181 21.2847ZM41.7271 24.0135C41.2499 24.0135 40.7726 24.0135 40.3635 23.9453C37.4999 23.8088 35.2499 23.2631 33.2726 22.2398C32.1817 21.694 31.3635 21.08 30.6817 20.2614C30.5453 20.0567 30.3408 19.7839 30.3408 19.3746C30.3408 19.2381 30.3408 19.1017 30.3408 18.9652V17.9419L30.8181 18.5559C32.1817 20.3296 34.159 21.08 35.9317 21.5576C38.3181 22.2398 40.909 22.4444 43.7044 22.2398C45.818 22.1033 47.5908 21.694 49.2271 21.0118C50.659 20.3978 51.6135 19.7839 52.3635 18.897L52.4317 18.8288C52.4999 18.7606 52.5681 18.6241 52.7044 18.5559L53.1817 18.1466V18.7606C53.1817 18.897 53.1817 18.9652 53.1817 19.1017C53.1817 19.511 53.2499 19.9203 52.8408 20.3296C51.9544 21.3529 50.7953 22.1033 49.3635 22.7173C47.9317 23.3313 46.2953 23.6724 44.3862 23.877C43.3635 23.9453 42.5453 24.0135 41.7271 24.0135ZM30.8181 19.3746C30.8181 19.5792 30.818 19.7157 31.0226 19.9203C31.6362 20.6707 32.4544 21.2847 33.409 21.7622C35.318 22.7173 37.4999 23.2631 40.2953 23.3995C41.5908 23.4677 42.8862 23.4677 44.1135 23.3313C45.9544 23.1266 47.5226 22.7855 48.9544 22.1716C50.3181 21.6258 51.409 20.8754 52.2953 19.9203C52.4999 19.7157 52.4999 19.511 52.4999 19.3063C51.7499 20.125 50.7271 20.8072 49.3635 21.3529C47.7271 22.0351 45.818 22.4444 43.7044 22.6491C40.8408 22.8538 38.1817 22.6491 35.7271 21.9669C34.0908 21.6258 32.2499 20.9436 30.8181 19.3746ZM41.7271 22.2398C41.0453 22.2398 40.3635 22.2398 39.6817 22.1716C37.3635 21.9669 35.3862 21.4894 33.6817 20.7389C32.5226 20.1932 31.6362 19.5792 31.0226 18.8288C30.9544 18.7606 30.9544 18.7606 30.8862 18.6924C29.9999 17.4644 30.068 16.3729 31.0226 15.2814C31.6362 14.531 32.4544 13.9852 33.6817 13.4394C35.2499 12.7572 37.0908 12.2797 39.2044 12.0751C39.9544 12.0068 40.7044 11.9386 41.4544 11.9386H41.5908C44.5226 12.0068 46.909 12.4161 49.0908 13.2348C50.3181 13.7123 51.2726 14.3263 51.9544 15.0085C52.159 15.2132 52.2953 15.3496 52.4317 15.5543C53.1135 16.5093 53.1817 17.4644 52.4999 18.4877C52.0226 19.2381 51.3408 19.8521 50.3862 20.3978C49.0908 21.1483 47.659 21.6258 45.818 21.9669C44.5226 22.1033 43.159 22.2398 41.7271 22.2398ZM41.659 12.3479H41.5226C40.8408 12.3479 40.0908 12.4161 39.3408 12.4844C37.2953 12.689 35.5226 13.1666 33.9544 13.8488C32.7953 14.3263 32.0453 14.8721 31.4999 15.5543C30.6817 16.5093 30.6817 17.3962 31.3635 18.3513C31.3635 18.4195 31.4317 18.4195 31.4317 18.4877C31.9771 19.1699 32.7953 19.7157 33.8862 20.2614C35.5226 21.0118 37.4317 21.4894 39.6817 21.694C41.7953 21.8987 43.8408 21.7622 45.7499 21.4211C47.5226 21.08 48.9544 20.6025 50.1817 19.9203C51.068 19.3746 51.7499 18.8288 52.159 18.2148C52.7044 17.3962 52.6362 16.6458 52.0908 15.8954C51.9544 15.6907 51.8181 15.5543 51.6817 15.4178C50.9999 14.7356 50.1817 14.2581 48.9544 13.7805C46.8408 12.7572 44.5226 12.3479 41.659 12.3479Z" fill="#4606C8"/>
<path d="M37.9089 30.904C36.4771 30.6993 35.0452 30.3582 33.6816 29.8125C33.3407 29.676 33.2725 29.4714 33.5452 29.2667C33.6134 29.1985 33.6816 29.1985 33.7498 29.1985C34.2952 29.3349 34.8407 29.1985 35.3861 29.0621C36.7498 28.721 38.1134 28.2434 39.4089 27.6977C40.4998 27.2883 41.5907 27.2201 42.7498 27.3566C43.9089 27.493 45.068 27.8341 46.2271 28.107C46.4316 28.1752 46.6361 28.1752 46.8407 28.107C47.5225 27.8341 48.1361 27.4248 48.5452 26.7426C48.6134 26.6061 48.6816 26.4697 48.6816 26.3333C48.7498 26.1286 48.8861 26.0604 49.0225 26.1286C49.1589 26.1968 49.2271 26.3333 49.2271 26.4697C49.1589 26.879 48.9543 27.1519 48.6816 27.493C48.2043 28.0388 47.5907 28.4481 46.8407 28.6527C46.7725 28.6527 46.7043 28.721 46.6361 28.7892C46.1589 30.1536 45.2043 31.1086 44.0452 31.9273C42.6816 32.8824 41.1134 33.4281 39.4771 33.6328C37.6361 33.9056 35.7952 33.9739 33.8861 33.8374C33.6816 33.8374 33.5452 33.7692 33.5452 33.5646C33.5452 33.3599 33.6816 33.2235 33.8861 33.2235C34.2271 33.2235 34.4998 33.087 34.7043 32.9506C35.8634 32.473 36.8861 31.7226 37.9089 30.904ZM35.318 29.676C36.2725 29.9489 37.2271 30.1536 38.2498 30.29C38.4543 30.3582 38.6589 30.29 38.7952 30.0853C39.4089 29.5396 40.0907 28.9256 40.9089 28.5845C41.5907 28.3116 42.2043 28.107 42.9543 27.9705C42.818 27.9023 42.7498 27.9705 42.6816 27.9023C42.6134 27.8341 42.5452 27.8341 42.4089 27.8341C41.3861 27.7659 40.3634 27.8341 39.4089 28.1752C38.5907 28.5163 37.7725 28.7892 36.9543 29.0621C36.4771 29.4032 35.9316 29.5396 35.318 29.676ZM39.1361 31.7908C39.068 31.0404 39.4089 30.4947 39.9543 30.3582C40.4998 30.2218 41.1134 30.4264 41.3861 30.9722C41.6589 31.4497 41.5225 32.1319 41.0452 32.473C40.9089 32.6095 40.6361 32.7459 40.3634 32.7459C39.9543 32.7459 39.6134 32.5413 39.3407 32.2002C39.3407 32.6777 39.1361 32.9506 38.7952 33.2235C40.0907 33.2235 43.0907 32.2002 43.4316 31.6544C42.6816 31.8591 42.068 31.7226 41.6589 31.0404C41.1816 30.29 41.3861 29.5396 42.068 28.9256C40.4316 29.2667 39.4771 30.4947 38.2498 31.4497C38.5907 31.4497 38.9316 31.518 39.1361 31.7908ZM44.0452 31.1086C44.1134 31.1086 44.1134 31.1086 44.1134 31.1086C44.1134 31.1086 44.1816 31.1086 44.1816 31.0404C44.9316 30.4264 45.4771 29.7443 45.8861 28.8574C45.9543 28.721 45.8861 28.6527 45.7498 28.6527C45.4771 28.6527 45.2043 28.5845 44.9998 28.5845C44.2498 28.5163 43.568 28.5163 42.818 28.721C43.4316 28.721 43.8407 28.9938 44.1134 29.5396C44.4543 30.0853 44.3861 30.6311 44.0452 31.1086ZM43.7725 30.2218C43.7725 29.7443 43.3634 29.3349 42.8861 29.3349C42.4089 29.3349 41.9998 29.7443 41.9998 30.2218C41.9998 30.6993 42.4089 31.1086 42.8861 31.1086C43.3634 31.1086 43.7725 30.6993 43.7725 30.2218ZM38.2498 33.2917C37.4998 32.8141 37.4316 32.6777 37.568 31.9273C36.8861 32.473 36.1361 32.9506 35.318 33.3599C36.3407 33.3599 37.2952 33.3599 38.2498 33.2917ZM40.9771 31.518C40.9771 31.1769 40.7043 30.904 40.3634 30.904C40.0225 30.904 39.7498 31.1769 39.7498 31.518C39.7498 31.8591 40.0225 32.1319 40.3634 32.1319C40.7043 32.1319 40.9771 31.8591 40.9771 31.518ZM38.7271 32.3366C38.7271 32.1319 38.5907 31.9955 38.3861 32.0637C38.1816 32.0637 38.1134 32.2002 38.1134 32.4048C38.1134 32.6095 38.2498 32.6777 38.3861 32.6777C38.5907 32.6777 38.7271 32.473 38.7271 32.3366Z" fill="#4606C8"/>
<path d="M35.7951 34.2467C35.1815 34.2467 34.4997 34.2467 33.8179 34.1784C33.3406 34.1784 33.2724 33.8373 33.2042 33.6327C33.2042 33.428 33.2724 33.2916 33.3406 33.2234C33.477 33.0869 33.6133 33.0869 33.8179 33.0187C34.0906 33.0187 34.2951 32.9505 34.5679 32.814C35.5224 32.3365 36.4088 31.7225 37.2951 31.0403C35.9315 30.7675 34.7042 30.4946 33.5451 30.0853C33.2042 29.9488 33.1361 29.7442 33.0679 29.6077C33.0679 29.4713 33.0679 29.2666 33.2724 29.1302C33.477 28.9937 33.6133 28.9937 33.7497 28.9937C34.227 29.1302 34.6361 28.9937 35.1815 28.8573H35.3179C36.7497 28.5162 38.0451 28.0387 39.3406 27.4929C40.3633 27.0836 41.5224 26.9472 42.8179 27.1518C43.8406 27.2883 44.7951 27.5611 45.7497 27.7658L46.2951 27.9022C46.4315 27.9705 46.5679 27.9705 46.7042 27.9022C47.4542 27.6294 47.9315 27.22 48.2724 26.6743C48.3406 26.6061 48.3406 26.4696 48.4088 26.4014C48.477 26.1967 48.5451 26.0603 48.6815 25.9921C48.7497 25.9239 48.8861 25.9239 49.0906 25.9921C49.3633 26.0603 49.4997 26.3332 49.4315 26.6743C49.3633 27.0836 49.1588 27.4247 48.8179 27.7658C48.2724 28.3798 47.5906 28.7891 46.8406 28.9937C46.3633 30.2217 45.5451 31.245 44.1815 32.2001C42.8861 33.0869 41.3861 33.7009 39.477 33.9738C38.3179 34.1102 37.1588 34.2467 35.7951 34.2467ZM37.9088 30.9039L38.1815 30.9721V31.0403L38.1133 31.1086C37.0224 31.9272 36.0679 32.6776 34.9088 33.2234C34.6361 33.3598 34.2951 33.4962 33.9542 33.4962C33.8861 33.4962 33.8861 33.4962 33.8861 33.4962C33.8861 33.5645 33.8861 33.5645 34.0224 33.5645C36.1361 33.7009 37.9088 33.6327 39.5451 33.3598C41.3179 33.0869 42.8179 32.5412 44.0451 31.6543C45.3406 30.7675 46.0906 29.8124 46.4997 28.6526C46.5679 28.448 46.7724 28.3798 46.8406 28.3798C47.5224 28.1751 48.0679 27.834 48.5451 27.2883C48.7497 27.0154 48.9542 26.7425 49.0224 26.4014L48.9542 26.3332H48.6815L48.8861 26.4696C48.8179 26.6061 48.8179 26.7425 48.7497 26.8789C48.4088 27.4929 47.7951 27.9705 46.977 28.3116C46.7724 28.3798 46.4997 28.3798 46.227 28.3116L45.6815 28.1751C44.727 27.9705 43.7724 27.6976 42.7497 27.5611C41.5906 27.4247 40.4997 27.4929 39.5451 27.9022C38.2497 28.3798 36.8861 28.9255 35.4542 29.2666H35.3179C34.7724 29.4031 34.227 29.5395 33.6815 29.3348C33.6815 29.3348 33.6815 29.4031 33.6133 29.4031C33.6133 29.4031 33.6815 29.4031 33.7497 29.4713C35.0451 29.9488 36.4088 30.2899 37.977 30.4946L38.2497 30.5628L38.1815 30.8357L37.9088 30.9039ZM35.9997 33.6327C35.7951 33.6327 35.5906 33.6327 35.3179 33.6327H34.3633L35.1815 33.1551C35.9997 32.6776 36.7497 32.2001 37.3633 31.7225L37.9088 31.3132V31.3814L38.0451 31.245C38.3861 31.0403 38.6588 30.7675 38.9315 30.4946C39.6133 29.8806 40.3633 29.2666 41.2497 28.9255H40.977C40.227 29.2666 39.5451 29.8124 38.9315 30.3581C38.6588 30.5628 38.4542 30.631 38.1815 30.631C37.0906 30.4946 36.1361 30.2217 35.2497 29.9488L34.3633 29.6759L35.2497 29.4713C35.8633 29.3348 36.4088 29.1984 36.9542 28.9937C37.7724 28.7209 38.5906 28.448 39.3406 28.1069C40.227 27.7658 41.2497 27.6294 42.477 27.6976C42.6133 27.6976 42.6815 27.6976 42.8179 27.7658C42.8861 27.7658 42.9542 27.7658 43.0224 27.834L43.7724 28.1751L42.9542 28.3116C42.2724 28.448 41.5906 28.5844 40.977 28.8573L42.7497 28.448C43.4315 28.3116 44.1133 28.2433 44.9997 28.3116C45.1361 28.3116 45.3406 28.3116 45.477 28.3798H45.7497C45.8179 28.3798 45.9542 28.3798 46.0906 28.5844C46.1588 28.7209 46.0906 28.9255 46.0906 28.9255C45.6815 29.8124 45.1361 30.5628 44.3179 31.245C44.2497 31.3132 44.1815 31.3132 44.1133 31.3132H44.0451H43.7724L43.6361 31.7225C43.227 32.3365 40.3633 33.2916 38.9997 33.428L39.0679 33.4962L38.2497 33.5645C37.4315 33.5645 36.7497 33.6327 35.9997 33.6327ZM37.2951 32.4047C36.9542 32.6094 36.6815 32.8823 36.2724 33.0869C36.6815 33.0869 37.0906 33.0869 37.5679 33.0187C37.3633 32.8823 37.2951 32.6776 37.2951 32.4047ZM37.8406 31.7225L37.7724 31.9272C37.6361 32.6094 37.7042 32.6776 38.3179 33.0869H38.3861L38.5906 32.9505C38.9315 32.7458 39.0679 32.5412 38.9997 32.2001V32.0636L38.9315 31.9954C38.727 31.7908 38.5224 31.6543 38.1815 31.7225H37.8406ZM39.5451 32.7458C39.5451 32.814 39.477 32.814 39.477 32.8823C39.5451 32.8823 39.6133 32.8823 39.6815 32.814C39.6133 32.814 39.5451 32.7458 39.5451 32.7458ZM39.4088 31.9272L39.477 32.0636C39.7497 32.4047 39.9542 32.5412 40.2951 32.4729C40.4997 32.4729 40.7042 32.4047 40.8406 32.2683C41.1815 31.9954 41.3179 31.4497 41.1133 31.1086C40.9088 30.6992 40.4315 30.4946 40.0224 30.631C39.4088 30.8357 39.3406 31.4497 39.3406 31.7908L39.4088 31.9272ZM41.7951 31.5861C41.7951 31.859 41.727 32.0636 41.5906 32.2683C41.9315 32.1319 42.2724 31.9954 42.477 31.9272C42.2042 31.859 41.9997 31.7225 41.7951 31.5861ZM42.4088 28.9255L42.2042 29.062C41.5906 29.6077 41.4542 30.2217 41.8633 30.8357C42.1361 31.3132 42.6815 31.5179 43.3633 31.3132L43.7042 31.245L43.9088 30.9039C44.1815 30.4264 44.2497 30.017 44.0451 29.6077C43.8406 29.1984 43.4997 28.9255 42.9542 28.9255H42.4088ZM38.8633 31.245C38.8633 31.245 38.9315 31.245 38.9315 31.3132C38.9315 31.245 38.9315 31.245 38.9315 31.1768C38.9315 31.245 38.8633 31.245 38.8633 31.245ZM43.977 28.8573C44.1815 28.9937 44.3179 29.1984 44.4542 29.4713C44.5906 29.8124 44.6588 30.0853 44.6588 30.4264C45.0679 29.9488 45.477 29.4713 45.6815 28.9255C45.6133 28.9255 45.6133 28.9255 45.5451 28.9255C45.4088 28.9255 45.2724 28.8573 45.0679 28.8573C44.6588 28.7891 44.3179 28.7891 43.977 28.8573ZM40.3633 30.0853C40.6361 30.0853 40.9088 30.1535 41.1815 30.2899C41.1815 30.017 41.2497 29.6759 41.3861 29.4031C40.977 29.6077 40.6361 29.8124 40.3633 30.0853C40.2951 30.0853 40.2951 30.0853 40.3633 30.0853ZM36.3406 29.6759C36.9542 29.8124 37.5679 29.9488 38.3179 30.0853C38.4542 30.0853 38.5906 30.0853 38.6588 29.9488C39.2724 29.4031 39.9542 28.7891 40.8406 28.448C41.0451 28.3798 41.2497 28.2433 41.5224 28.1751C40.8406 28.1751 40.227 28.3116 39.6133 28.5844C38.7951 28.9255 37.977 29.1984 37.1588 29.4713C36.8861 29.5395 36.6133 29.6077 36.3406 29.6759ZM38.3861 32.8823C38.0451 32.8823 37.8406 32.6776 37.8406 32.3365C37.8406 31.9954 38.0451 31.7908 38.3861 31.7225C38.5224 31.7225 38.6588 31.7225 38.7951 31.859C38.9315 31.9954 38.9997 32.1319 38.9997 32.2683C38.9997 32.4047 38.9315 32.6094 38.8633 32.6776C38.727 32.8823 38.5906 32.8823 38.3861 32.8823ZM38.4542 32.2683H38.3861V32.4047H38.4542C38.4542 32.3365 38.4542 32.3365 38.4542 32.2683ZM40.3633 32.4047C39.8861 32.4047 39.477 31.9954 39.477 31.5179C39.477 31.3132 39.5451 31.0403 39.7497 30.9039C39.8861 30.7675 40.1588 30.631 40.3633 30.631C40.8406 30.631 41.2497 31.0403 41.2497 31.5179C41.2497 31.7908 41.1815 31.9954 40.977 32.1318C40.7724 32.3365 40.5679 32.4047 40.3633 32.4047ZM40.3633 31.1768C40.227 31.1768 40.1588 31.245 40.0906 31.3132C40.0224 31.3814 39.9542 31.4497 40.0224 31.5861C40.0224 31.859 40.4315 32.0636 40.6361 31.859C40.7042 31.7908 40.7724 31.7225 40.7724 31.5861C40.7042 31.3132 40.5679 31.1768 40.3633 31.1768ZM42.8861 31.3132C42.5451 31.3132 42.2724 31.1768 42.0679 30.9721C41.8633 30.7675 41.727 30.4946 41.727 30.1535C41.727 29.5395 42.2724 29.062 42.8861 29.062C43.4997 29.062 44.0451 29.5395 44.0451 30.2217H43.7724H44.0451C44.0451 30.5628 43.9088 30.8357 43.7042 31.0403C43.4997 31.245 43.227 31.3132 42.8861 31.3132ZM42.8861 29.5395C42.5451 29.5395 42.2724 29.8124 42.2724 30.1535C42.2724 30.2899 42.3406 30.4946 42.477 30.5628C42.6133 30.6992 42.7497 30.7675 42.9542 30.7675C43.0906 30.7675 43.2951 30.6992 43.3633 30.5628C43.4997 30.4264 43.5679 30.2899 43.5679 30.0853C43.4997 29.8124 43.227 29.5395 42.8861 29.5395Z" fill="#4606C8"/>
<path d="M48.2045 29.4712C48.9545 29.4712 49.6363 30.0852 49.5681 30.8356C49.5681 31.586 48.9545 32.2 48.2045 32.2C47.4545 32.2 46.8408 31.586 46.8408 30.8356C46.8408 30.0852 47.4545 29.4712 48.2045 29.4712ZM49.0226 30.9038C49.0226 30.4263 48.6817 30.0852 48.2045 30.0852C47.7954 30.0852 47.4545 30.4263 47.4545 30.9038C47.4545 31.3813 47.7954 31.7224 48.2726 31.7224C48.6817 31.7224 49.0226 31.3131 49.0226 30.9038Z" fill="#4606C8"/>
<path d="M48.2042 32.5411C47.727 32.5411 47.3179 32.3365 47.0451 32.0636C46.7042 31.7225 46.5679 31.3132 46.5679 30.9039C46.5679 30.017 47.3179 29.2666 48.2042 29.2666C48.6815 29.2666 49.0906 29.4713 49.3633 29.7441C49.6361 30.0852 49.8406 30.4946 49.8406 30.9039C49.8406 31.7907 49.0906 32.5411 48.2042 32.5411ZM48.2042 29.7441C47.5906 29.7441 47.1133 30.2217 47.1133 30.8357C47.1133 31.1085 47.2497 31.4496 47.4542 31.6543C47.6588 31.8589 47.9315 31.9954 48.2724 31.9954C48.8861 31.9954 49.3633 31.5178 49.3633 30.9039C49.3633 30.631 49.227 30.3581 49.0224 30.0852C48.8179 29.8806 48.477 29.7441 48.2042 29.7441ZM48.2042 31.9272C47.5906 31.9272 47.1133 31.4496 47.1133 30.8357C47.1133 30.5628 47.2497 30.2899 47.4542 30.0852C47.6588 29.8806 47.8633 29.8124 48.2042 29.8124C48.8179 29.8124 49.2951 30.2899 49.2951 30.9039C49.2951 31.1767 49.1588 31.4496 48.9542 31.6543C48.7497 31.8589 48.477 31.9272 48.2042 31.9272ZM48.2042 30.3581C48.0679 30.3581 47.9315 30.4263 47.8633 30.4946C47.727 30.631 47.727 30.7674 47.727 30.9039C47.727 31.245 47.9315 31.4496 48.2724 31.4496C48.4088 31.4496 48.5451 31.3814 48.6815 31.3132C48.8179 31.245 48.8179 31.0403 48.8179 30.9039C48.7497 30.5628 48.5451 30.3581 48.2042 30.3581Z" fill="#4606C8"/>
<path d="M44.9316 34.3147C44.9316 34.9969 44.3861 35.5426 43.7043 35.5426C43.0225 35.5426 42.4771 34.9287 42.4771 34.3147C42.4771 33.6325 43.0225 33.0867 43.7043 33.0867C44.3861 33.0185 44.9316 33.6325 44.9316 34.3147ZM43.0907 34.2465C43.0907 34.5876 43.3634 34.8604 43.7725 34.8604C44.1134 34.8604 44.3861 34.5194 44.3861 34.1783C44.3861 33.8372 44.1134 33.5643 43.7725 33.5643C43.3634 33.6325 43.0907 33.9054 43.0907 34.2465Z" fill="#4606C8"/>
<path d="M43.7043 35.7473C43.2952 35.7473 42.9543 35.6108 42.6816 35.2697C42.4089 34.9969 42.2043 34.5875 42.2725 34.1782C42.2725 33.3596 42.9543 32.7456 43.7725 32.7456C44.1816 32.7456 44.5225 32.882 44.7952 33.1549C45.0679 33.4278 45.2725 33.8371 45.2725 34.2464C45.2043 35.0651 44.5225 35.7473 43.7043 35.7473ZM43.7043 33.2914C43.1589 33.2914 42.7498 33.7007 42.7498 34.2464C42.7498 34.5193 42.8179 34.724 43.0225 34.9286C43.227 35.1333 43.4316 35.2015 43.7043 35.2015C44.2498 35.2015 44.6589 34.7922 44.6589 34.2464C44.6589 33.9736 44.5225 33.7007 44.3861 33.496C44.1816 33.3596 43.977 33.2914 43.7043 33.2914ZM43.7043 35.1333C43.4998 35.1333 43.227 35.0651 43.0907 34.8604C42.8861 34.724 42.8179 34.4511 42.8179 34.2464C42.8179 33.9736 42.8861 33.7689 43.0907 33.6325C43.227 33.496 43.4998 33.3596 43.7043 33.3596C44.1816 33.3596 44.5907 33.7689 44.5907 34.2464C44.5907 34.4511 44.5225 34.724 44.3179 34.8604C44.1816 35.0651 43.977 35.1333 43.7043 35.1333ZM43.2952 34.2464C43.2952 34.3147 43.3634 34.4511 43.4316 34.5193C43.4998 34.5875 43.5679 34.6558 43.7043 34.6558C43.7725 34.6558 43.9089 34.5875 43.977 34.5193C44.0452 34.4511 44.1134 34.3147 44.1134 34.2464C44.1134 34.0418 43.977 33.8371 43.7043 33.8371C43.5679 33.8371 43.4998 33.9053 43.4316 33.9736C43.3634 34.0418 43.2952 34.1782 43.2952 34.2464Z" fill="#4606C8"/>
<path d="M47.7953 33.701C47.7953 34.315 47.318 34.7925 46.7044 34.7925C46.1589 34.7925 45.6816 34.315 45.6816 33.701C45.6816 33.0871 46.1589 32.6777 46.7725 32.6777C47.3862 32.6777 47.7953 33.1553 47.7953 33.701ZM47.2498 33.701C47.2498 33.4282 47.0453 33.2235 46.7725 33.2235C46.4998 33.2235 46.2953 33.4282 46.2953 33.701C46.2953 33.9739 46.4998 34.1786 46.7725 34.1786C47.0453 34.1786 47.2498 33.9739 47.2498 33.701Z" fill="#4606C8"/>
<path d="M46.7725 35.0652C46.0225 35.0652 45.4771 34.4512 45.4771 33.7008C45.4771 33.3597 45.6134 33.0186 45.8861 32.7457C46.1589 32.4729 46.4316 32.4046 46.8407 32.3364C47.5907 32.3364 48.1361 32.9504 48.1361 33.6326C48.1361 33.9737 47.9998 34.3148 47.7271 34.5877C47.4543 34.9288 47.1134 35.0652 46.7725 35.0652ZM46.7725 32.8822C46.568 32.8822 46.3634 32.9504 46.2271 33.0868C46.0907 33.2233 46.0225 33.4279 46.0225 33.6326C46.0225 34.1101 46.3634 34.4512 46.8407 34.4512C47.0452 34.4512 47.2498 34.383 47.3861 34.2466C47.5225 34.1101 47.6589 33.9055 47.6589 33.7008C47.5907 33.2915 47.2498 32.8822 46.7725 32.8822ZM46.7725 34.4512C46.3634 34.4512 46.0225 34.1101 46.0225 33.7008C46.0225 33.4962 46.0907 33.2915 46.2271 33.1551C46.3634 33.0186 46.568 32.9504 46.7725 32.9504C47.1816 32.9504 47.5225 33.2915 47.5225 33.6326C47.5225 34.1101 47.1816 34.4512 46.7725 34.4512ZM46.7725 33.4962C46.7043 33.4962 46.6361 33.4962 46.568 33.5644C46.4998 33.6326 46.4998 33.6326 46.4998 33.7008C46.4998 33.8373 46.6361 33.9737 46.7043 33.9737C46.8407 33.9737 46.9771 33.8373 46.9771 33.7008C46.9771 33.5644 46.9089 33.4962 46.7725 33.4962Z" fill="#4606C8"/>
<path d="M34.0908 16.7137C34.0908 16.0997 34.3635 15.6222 34.7726 15.2129C35.1817 14.8036 35.659 14.5307 36.1363 14.2578C37.159 13.7803 38.2499 13.5074 39.3408 13.3027C39.5454 13.3027 39.6817 13.3027 39.7499 13.5756C39.7499 13.7803 39.6135 13.8485 39.409 13.9167C38.3181 14.0532 37.2272 14.326 36.2045 14.8718C35.7954 15.0764 35.3863 15.3493 35.0454 15.6904C34.4317 16.3726 34.4317 17.123 35.0454 17.8052C35.2499 18.0099 35.4545 18.1463 35.659 18.351C35.7954 18.4874 35.8635 18.6239 35.7954 18.7603C35.659 18.965 35.5226 18.8967 35.3863 18.8285C34.7726 18.4192 34.2954 17.9417 34.0908 17.1913C34.159 16.9866 34.159 16.8502 34.0908 16.7137Z" fill="#4606C8"/>
<path d="M35.6588 19.1015C35.5224 19.1015 35.4542 19.0333 35.3179 18.965C34.7724 18.6239 34.1588 18.0782 33.8861 17.1913C33.8861 17.0549 33.8179 16.9867 33.8179 16.8502V16.7138C33.8179 16.0998 34.0906 15.5541 34.5679 15.0765C34.977 14.6672 35.3861 14.3943 35.9997 14.0532C36.9542 13.5757 38.0451 13.2346 39.3406 13.0981C39.5451 13.0981 39.6815 13.0981 39.8179 13.1664C39.8861 13.2346 39.9542 13.3028 40.0224 13.5075C40.0224 13.6439 40.0224 14.0532 39.477 14.1214C38.1815 14.3261 37.227 14.599 36.4088 15.0765C35.9315 15.3494 35.5906 15.5541 35.3179 15.8269C34.7724 16.4409 34.7724 16.9867 35.3179 17.6006C35.4542 17.7371 35.6588 17.9417 35.8633 18.0782C36.2042 18.3511 36.2042 18.6239 36.0679 18.8286C35.9997 18.965 35.8633 19.1015 35.6588 19.1015ZM34.3633 16.7138V16.8502C34.3633 16.9184 34.3633 16.9867 34.3633 17.1231C34.4997 17.6689 34.8406 18.1464 35.5224 18.6239C35.5906 18.6922 35.5906 18.6922 35.5906 18.6922C35.5906 18.6922 35.5906 18.6239 35.5224 18.6239C35.2497 18.4193 35.0451 18.2828 34.8406 18.0782C34.1588 17.3278 34.1588 16.4409 34.8406 15.6223C35.1815 15.2812 35.5224 15.0083 36.0679 14.7354C36.9542 14.2579 37.977 13.985 39.3406 13.7803C39.4088 13.7803 39.477 13.7803 39.477 13.7803C39.477 13.7121 39.477 13.7121 39.3406 13.7121C38.1133 13.9168 37.0906 14.1897 36.2042 14.599C35.6588 14.8719 35.2497 15.1447 34.9088 15.4858C34.5679 15.8269 34.3633 16.2362 34.3633 16.7138Z" fill="#4606C8"/>
<path d="M44.0455 20.1245C43.841 20.1245 43.7046 20.0563 43.7046 19.8516C43.7046 19.647 43.841 19.5788 43.9773 19.5105C44.4546 19.4423 44.9319 19.3741 45.4091 19.2377C46.2955 18.9648 47.1137 18.6919 47.8637 18.0779C48 17.9415 48.1364 17.8733 48.2728 17.7368C48.4091 17.6004 48.5455 17.5322 48.6819 17.6686C48.8182 17.805 48.8182 17.9415 48.6819 18.1461C48.4773 18.3508 48.2728 18.5555 48 18.7601C47.1137 19.3741 46.0228 19.7152 45 19.9881C44.6591 19.9881 44.3182 20.0563 44.0455 20.1245Z" fill="#4606C8"/>
<path d="M44.0453 20.3976C43.6362 20.3976 43.4316 20.1247 43.4316 19.9201C43.4316 19.579 43.6362 19.3743 43.9771 19.3061C44.4544 19.2379 44.9316 19.1697 45.4089 19.0332C46.0907 18.8286 47.0453 18.5557 47.7953 17.9417C47.9316 17.8735 47.9998 17.7371 48.1362 17.6006C48.4771 17.2595 48.7498 17.396 48.8862 17.4642C49.0225 17.5324 49.0907 17.6688 49.0907 17.8053C49.0907 17.9417 49.0226 18.1464 48.9544 18.2828C48.7498 18.4875 48.5453 18.6921 48.2044 18.8968C47.3862 19.4426 46.4316 19.8519 45.068 20.1247C44.7953 20.193 44.5907 20.193 44.3862 20.2612L44.0453 20.3976ZM48.5453 17.8053C48.5453 17.8053 48.4771 17.8053 48.4771 17.8735C48.3407 18.0099 48.2044 18.1464 48.068 18.2828C47.2498 18.965 46.2953 19.2379 45.5453 19.4426C45.068 19.579 44.5907 19.7154 44.0453 19.7836C43.9771 19.7836 43.9771 19.7836 43.9771 19.7836C43.9771 19.8519 43.9771 19.8519 44.0453 19.8519L44.318 19.7836C44.5225 19.7154 44.7953 19.7154 44.9998 19.6472C46.2271 19.3743 47.1816 18.965 47.9316 18.4875C48.2044 18.2828 48.4089 18.1464 48.5453 17.9417C48.5453 17.8735 48.5453 17.8735 48.5453 17.8053Z" fill="#4606C8"/>
<path d="M43.2269 13.2346C44.1133 13.3028 44.9315 13.4392 45.8178 13.7121C46.0224 13.7803 46.1588 13.8485 46.0906 14.1214C46.0224 14.3261 45.886 14.3943 45.6815 14.3261C44.8633 14.1214 44.0451 13.985 43.2269 13.8485C42.9542 13.7803 42.8178 13.7121 42.886 13.5074C42.8178 13.2346 43.0224 13.1663 43.2269 13.2346Z" fill="#4606C8"/>
<path d="M45.7499 14.5309C45.6817 14.5309 45.6135 14.5309 45.5453 14.4627C44.7272 14.1898 43.8408 14.1216 43.0908 13.9852C42.9544 13.9852 42.7499 13.9169 42.6135 13.7805C42.5453 13.6441 42.4772 13.5076 42.5453 13.3712C42.5453 13.1665 42.6817 12.8254 43.2272 12.8936C44.1817 12.9619 44.9999 13.1665 45.8181 13.3712C46.159 13.5076 46.3635 13.7123 46.2272 14.0534C46.159 14.258 46.0908 14.3263 45.9544 14.3945C45.9544 14.5309 45.8862 14.5309 45.7499 14.5309ZM43.0908 13.4394C43.0226 13.4394 43.0908 13.5076 43.159 13.5076C43.909 13.5758 44.7953 13.7123 45.6817 13.9852C45.7499 13.9852 45.7499 13.9852 45.7499 13.9852C45.7499 13.9169 45.7499 13.9169 45.6817 13.9169C44.9317 13.7123 44.1135 13.5076 43.159 13.4394H43.0908Z" fill="#4606C8"/>
<path d="M48.9543 15.6907C48.9543 15.8271 48.8861 15.8953 48.8179 15.9636C48.7497 16.0318 48.6133 16.0318 48.5452 15.8953C48.1361 15.3496 47.5906 15.0085 46.977 14.6674C46.8406 14.5992 46.7724 14.4627 46.9088 14.3263C46.977 14.1898 47.1133 14.1216 47.3179 14.1898C47.4543 14.2581 47.6588 14.3263 47.7952 14.4627C48.2043 14.7356 48.6133 15.0085 48.9543 15.4178C48.8179 15.486 48.9543 15.5542 48.9543 15.6907Z" fill="#4606C8"/>
<path d="M48.6136 16.2363C48.409 16.2363 48.3408 16.0999 48.2727 16.0999C47.9317 15.6223 47.4545 15.2812 46.7726 14.9401C46.6363 14.8719 46.5681 14.8037 46.4999 14.6673C46.4317 14.5308 46.4999 14.3944 46.5681 14.2579C46.7045 13.9851 46.9772 13.9168 47.2499 13.9851C47.3863 14.0533 47.5908 14.1215 47.7272 14.1897C48.2727 14.4626 48.6136 14.8037 48.9545 15.213C49.0227 15.3494 49.159 15.4859 49.159 15.6223C49.159 15.827 49.0226 16.0316 48.8181 16.0999C48.7499 16.2363 48.6817 16.2363 48.6136 16.2363ZM47.1136 14.4626C47.7272 14.8037 48.2727 15.213 48.6817 15.7588V15.6905L48.6136 15.6223C48.3408 15.2812 47.9317 14.9401 47.5226 14.7355C47.3181 14.599 47.2499 14.5308 47.1136 14.4626Z" fill="#4606C8"/>
<path d="M14.2502 4.29785C17.1821 4.29785 20.0457 4.29785 22.9775 4.29785C24.0002 4.29785 24.8184 4.84361 25.023 5.79868C25.3639 6.8902 24.6821 8.04993 23.523 8.25459C23.3184 8.32281 23.2502 8.39103 23.2502 8.59569C23.2502 9.20967 23.2502 9.75542 23.2502 10.3694C23.2502 10.7105 23.3866 10.9834 23.5912 11.2563C24.0684 11.7338 24.5457 12.2113 25.0912 12.6889C26.8639 14.5308 27.9548 16.7138 28.3639 19.238C28.5684 20.807 28.5002 22.3761 28.3639 23.9451C28.1593 25.9235 27.7502 27.9018 27.2048 29.812C26.3866 32.7454 25.4321 35.6789 24.0002 38.4077C23.523 39.2945 22.9775 39.7038 21.8866 39.6356C16.6366 39.5674 11.3866 39.5674 6.13661 39.6356C5.52297 39.6356 5.11388 39.431 4.84115 38.9534C4.43206 38.1348 3.95479 37.3162 3.5457 36.4975C2.0457 33.0865 1.02297 29.4709 0.409335 25.787C0.0684259 23.8769 -0.13612 22.035 0.0684258 20.0566C0.272971 17.1914 1.36388 14.7355 3.34115 12.6889C3.88661 12.1431 4.36388 11.6656 4.90933 11.1198C5.11388 10.9152 5.25024 10.6423 5.25024 10.3012C5.25024 9.6872 5.25024 9.07323 5.25024 8.45925C5.25024 8.32281 5.18206 8.18637 5.0457 8.18637C3.88661 7.98171 3.27297 7.09486 3.40933 6.07156C3.5457 5.04827 4.36388 4.29785 5.45479 4.29785C7.63661 4.29785 9.88661 4.29785 12.0684 4.29785C12.8184 4.29785 13.5684 4.29785 14.2502 4.29785ZM27.3412 21.2163C27.3412 20.807 27.273 20.4659 27.273 20.1248C27.1366 17.8053 26.3184 15.7587 24.7502 14.0533C24.1366 13.3711 23.4548 12.6889 22.8412 12.0749C22.3639 11.5974 22.0912 11.0516 22.0912 10.3012C22.1593 9.75542 22.0912 9.20967 22.0912 8.59569C22.0912 8.45925 22.0912 8.39103 22.0912 8.25459C16.8412 8.25459 11.5912 8.25459 6.34115 8.25459C6.34115 9.00501 6.34115 9.6872 6.34115 10.4376C6.34115 10.9834 6.20479 11.3927 5.86388 11.802C5.52297 12.2113 5.11388 12.6206 4.77297 12.9617C2.86388 14.7355 1.63661 16.9185 1.2957 19.5108C1.22752 20.0566 1.22752 20.6023 1.15934 21.2163C1.2957 21.2163 1.2957 21.2163 1.36388 21.2163C3.75024 21.2163 6.13661 21.2163 8.52297 21.2163C8.59115 21.2163 8.72752 21.1481 8.7957 21.0799C10.5002 19.3062 12.5457 18.4875 15.0002 18.7604C16.7048 18.9651 18.2048 19.7155 19.3639 21.0117C19.5002 21.1481 19.7048 21.2845 19.9093 21.2845C22.2957 21.2845 24.6139 21.2845 27.0002 21.2845C27.0684 21.2163 27.2048 21.2163 27.3412 21.2163ZM27.3412 22.4443C27.1366 22.4443 27.0002 22.4443 26.8639 22.4443C24.4093 22.4443 21.8866 22.4443 19.4321 22.4443C19.0912 22.4443 18.8866 22.3078 18.6821 22.1032C16.2275 19.1697 11.9321 19.1697 9.47752 22.1032C9.27297 22.3078 9.06843 22.4443 8.72752 22.4443C6.34115 22.4443 3.95479 22.4443 1.56843 22.4443C1.43206 22.4443 1.36388 22.4443 1.22752 22.4443C1.22752 22.5807 1.22752 22.6489 1.22752 22.7172C1.36388 24.832 1.77297 26.9468 2.31843 28.9934C2.38661 29.2662 2.45479 29.3345 2.72752 29.3345C4.70479 29.3345 6.75024 29.3345 8.72752 29.3345C9.06843 29.3345 9.27297 29.4709 9.5457 29.6756C11.9321 32.5408 16.2957 32.5408 18.6821 29.6756C18.8866 29.4027 19.1593 29.3345 19.5002 29.3345C21.6139 29.3345 23.7275 29.3345 25.8412 29.3345C26.0457 29.3345 26.1821 29.2662 26.1821 29.0616C26.4548 27.7654 26.7957 26.401 27.0002 25.1048C27.1366 24.218 27.2048 23.3311 27.3412 22.4443ZM25.773 30.4942C25.6366 30.4942 25.5002 30.4942 25.4321 30.4942C23.5912 30.4942 21.7502 30.4942 19.9093 30.4942C19.6366 30.4942 19.5002 30.5624 19.2957 30.7671C17.8639 32.2679 16.1593 33.0183 14.1139 33.0183C12.0002 33.0183 10.2275 32.1997 8.7957 30.6988C8.65933 30.5624 8.52297 30.4942 8.31843 30.4942C6.5457 30.4942 4.77297 30.4942 3.06843 30.4942C3.00024 30.4942 2.86388 30.4942 2.72752 30.4942C2.72752 30.6306 2.7957 30.6989 2.7957 30.8353C3.13661 31.8586 3.47752 32.8819 3.81843 33.9052C4.36388 35.3378 4.90933 36.7704 5.72752 38.1348C5.86388 38.3395 6.00024 38.4759 6.34115 38.4759C11.4548 38.4759 16.5002 38.4759 21.6139 38.4759C22.7048 38.4759 22.7048 38.4759 23.1821 37.5208C24.2048 35.4742 24.9548 33.3594 25.6366 31.2446C25.6366 31.0399 25.7048 30.7671 25.773 30.4942ZM14.2502 5.45759C11.3184 5.45759 8.38661 5.45759 5.45479 5.45759C4.90933 5.45759 4.56843 5.79868 4.56843 6.27622C4.56843 6.75376 4.97752 7.09486 5.45479 7.09486C5.65933 7.09486 5.86388 7.09486 6.06843 7.09486C11.523 7.09486 16.9093 7.09486 22.3639 7.09486C22.6366 7.09486 22.8412 7.09486 23.1139 7.09486C23.5912 7.09486 23.9321 6.75376 23.9321 6.27622C23.9321 5.79868 23.5912 5.45759 22.9775 5.45759C20.1139 5.45759 17.1821 5.45759 14.2502 5.45759Z" fill="#4606C8"/>
</g>
<defs>
<clipPath id="clip0_270_1479">
<rect width="87" height="41" fill="white"/>
</clipPath>
</defs>
</svg>
