<svg width="85" height="46" viewBox="0 0 85 46" fill="none" xmlns="http://www.w3.org/2000/svg">
<g clip-path="url(#clip0_270_1551)">
<path d="M80.4641 46H80.3943C76.8352 45.9294 73.3459 45.9294 70.6242 46C69.1587 46 68.4608 45.365 68.2515 43.8834C67.9723 41.4847 67.6932 39.0859 67.414 36.6871C66.9953 33.4417 66.6464 30.1258 66.2974 26.8804C66.0881 25.1166 66.0881 23.3528 66.2276 21.589C66.3672 19.8252 67.3442 18.2025 68.9493 16.9325C71.2523 15.1687 72.2991 12.911 72.1595 9.80675C72.0897 7.76074 72.0897 5.64417 72.0897 3.52761C72.0897 2.53988 72.0897 1.6227 72.0897 0.634969V0H72.7178C73.1365 0 73.5552 0 73.9739 0C75.2301 0 76.3467 0 77.5331 0.0705522C78.2309 0.141104 78.7194 1.12883 78.7194 1.69325C78.7892 4.44479 78.7892 7.33742 78.7194 10.865C78.7194 13.2638 79.5569 15.0982 81.3015 16.5092C84.093 18.6963 85.2096 21.6595 84.7909 25.3988C84.2326 30.1258 83.6743 34.8528 83.116 39.5092L82.6275 43.8834C82.6275 44.7301 82.2786 46 80.4641 46ZM75.6488 44.6595C77.1841 44.6595 78.7892 44.6595 80.3943 44.7301C81.162 44.7301 81.3713 44.5184 81.4411 43.6718L81.9296 39.2976C82.4879 34.6411 82.9764 29.8436 83.6045 25.1871C84.0232 21.9417 83.0462 19.4018 80.6037 17.4969C78.5101 15.8742 77.4633 13.6166 77.5331 10.7945C77.5331 7.33742 77.5331 4.44479 77.5331 1.69325C77.5331 1.6227 77.4633 1.4816 77.3935 1.34049C76.3467 1.26994 75.2301 1.26994 74.1135 1.26994C73.9042 1.26994 73.6948 1.26994 73.4854 1.26994C73.4854 2.04601 73.4854 2.82209 73.4854 3.52761C73.4854 5.71472 73.4157 7.69018 73.5552 9.7362C73.6948 13.1933 72.4386 15.8742 69.8565 17.9202C68.9493 18.6258 67.7629 19.8252 67.6234 21.589C67.4838 23.2822 67.4838 24.9755 67.6932 26.5982C68.0421 29.8436 68.4608 33.1595 68.8097 36.4049C69.0889 38.8037 69.368 41.2025 69.6472 43.6012C69.717 44.3773 69.9263 44.5184 70.694 44.5184C72.0897 44.6595 73.8344 44.6595 75.6488 44.6595ZM71.7408 41.4141C70.5544 41.4141 69.9263 40.8497 69.9263 39.5798C69.8565 37.2515 69.717 34.9939 69.6472 32.6656L69.5076 29.2791C69.4378 28.362 69.4378 27.4448 69.368 26.4571C69.2983 24.9755 69.2285 23.5644 69.1587 22.0828C69.1587 21.5184 69.1587 20.8834 69.5076 20.4601C69.9263 20.0368 70.4846 20.0368 71.0429 19.9663C72.0897 19.9663 73.1365 19.9663 74.1833 19.9663H76.8352C77.9518 19.9663 78.9986 19.9663 80.1152 19.9663C80.7432 19.9663 81.2318 20.1074 81.5109 20.4601C81.79 20.8129 81.9296 21.2362 81.9296 21.8712C81.79 24.7638 81.6505 27.5859 81.5109 30.4785C81.3713 33.3712 81.2317 36.2638 81.0224 39.227C80.9526 41.0614 80.6037 41.3436 78.7892 41.3436C78.0914 41.3436 77.3935 41.3436 76.6956 41.3436C75.0905 41.3436 73.4157 41.3436 71.8106 41.3436C71.7408 41.4141 71.7408 41.4141 71.7408 41.4141ZM70.4148 21.5184C70.4148 21.5184 70.4148 21.6595 70.4148 22.1534C70.4846 23.635 70.5544 25.046 70.6242 26.5276C70.694 27.4448 70.694 28.362 70.7638 29.2791L70.9033 32.6656C71.0429 34.9939 71.1127 37.2515 71.1825 39.5798C71.1825 40.0736 71.2523 40.1442 71.8106 40.1442C73.4854 40.0736 75.1603 40.1442 76.7654 40.1442C77.4633 40.1442 78.0914 40.1442 78.7892 40.1442C79.1382 40.1442 79.4871 40.1442 79.6267 40.1442C79.6964 40.0031 79.6964 39.5798 79.6964 39.2976C79.836 36.4049 79.9756 33.5123 80.1152 30.5491C80.2547 27.6564 80.3943 24.8344 80.5339 21.9417C80.5339 21.6595 80.5339 21.5184 80.4641 21.5184C80.4641 21.5184 80.3943 21.4479 79.9756 21.4479C78.859 21.4479 77.7424 21.4479 76.6956 21.4479H74.0437C72.9969 21.4479 71.9501 21.4479 70.9033 21.4479C70.5544 21.4479 70.4148 21.5184 70.4148 21.5184Z" fill="#4606C8"/>
<path d="M43.3375 45.6474C43.2677 45.6474 43.1281 45.6474 43.0583 45.5768C42.9187 45.5063 42.7792 45.5063 42.7094 45.4357C42.2907 45.2946 41.7324 45.1535 41.3834 44.6597C41.1043 44.1658 41.3136 43.6719 41.523 43.1781C41.3136 43.037 41.1741 42.9664 40.9647 42.8253C40.0575 42.2609 39.22 41.6259 38.3128 40.9909C35.1026 38.5216 33.8465 35.2057 34.5443 31.1136C35.2422 26.8805 37.615 24.0584 41.4532 22.5768C42.6396 22.1535 43.6166 21.5891 44.3842 21.0247C45.5706 20.1075 46.1987 18.8376 46.1289 17.2854C46.1289 15.7333 46.1289 14.1811 46.1289 12.629C46.1289 11.2179 46.1289 9.80689 46.1289 8.39585C46.1289 8.3253 46.0591 8.18419 46.0591 8.11364C45.9893 7.90198 45.9196 7.61978 45.9196 7.26702C46.0591 5.78542 46.1987 4.44493 46.4081 3.17499C46.5476 2.32836 47.8736 2.25781 47.8736 2.25781C48.5017 2.25781 49.1297 2.25781 49.8276 2.25781C50.3161 2.25781 50.8046 2.25781 51.3629 2.25781C51.991 2.25781 53.0378 2.46947 53.1774 3.95106C53.2471 4.30382 53.2471 4.58603 53.3169 4.93879C53.3867 5.50321 53.5263 6.06763 53.5263 6.63205C53.5263 7.05536 53.4565 7.47867 53.3169 7.83143C53.2471 8.11364 53.1774 8.3253 53.1774 8.53695C53.1774 9.87745 53.1774 11.2179 53.1774 12.4879C53.1774 13.8989 53.1774 15.3805 53.1774 16.8621C53.1076 19.1198 54.1544 20.7425 56.3177 21.8713C56.876 22.1535 57.5041 22.4357 58.202 22.6474C61.5517 23.7057 64.2036 27.0216 64.9015 31.0431C65.5296 34.9235 64.1338 38.5922 61.133 40.8498C60.2956 41.4848 59.3884 42.1198 58.4811 42.6842C58.2718 42.8253 58.0624 42.9664 57.7833 43.1075C57.9926 43.6014 58.2718 44.1658 57.8531 44.6597C57.3645 45.2946 56.4573 45.5768 55.8292 45.5768C52.6888 45.6474 49.4089 45.5768 46.3383 45.5768H43.477C43.4072 45.6474 43.3375 45.6474 43.3375 45.6474ZM43.4072 44.1658H46.1987C49.3391 44.1658 52.5493 44.1658 55.6897 44.1658C55.899 44.1658 56.1782 44.0952 56.3177 43.9541C56.248 43.8836 56.248 43.813 56.1782 43.7425C56.1084 43.5308 56.0386 43.3897 55.9688 43.1781L55.8292 42.6136L56.3177 42.2609C56.7365 41.9787 57.0854 41.6965 57.5041 41.4848C58.3416 40.9204 59.2488 40.356 60.0862 39.721C62.6683 37.8161 63.7849 34.7118 63.2266 31.3253C62.6683 27.8682 60.3654 24.9756 57.5739 24.0584C56.8063 23.8468 56.1084 23.494 55.4803 23.2118C52.8284 21.8008 51.5025 19.6842 51.5723 16.8621C51.5723 15.4511 51.5723 13.9695 51.5723 12.5584C51.5723 11.2179 51.5723 9.87745 51.5723 8.53695C51.5723 8.11364 51.7118 7.76088 51.7816 7.47867C51.8514 7.19646 51.9212 6.98481 51.9212 6.77315C51.9212 6.27929 51.8514 5.78542 51.7118 5.29156C51.642 4.93879 51.5723 4.58603 51.5723 4.23327C51.5025 3.80996 51.5025 3.80996 51.2233 3.80996C50.7348 3.80996 50.1765 3.80996 49.688 3.80996C49.0599 3.80996 48.4319 3.80996 47.8038 3.80996H47.734C47.5944 4.93879 47.4549 6.13818 47.3153 7.40812C47.3153 7.47867 47.3851 7.61978 47.3851 7.69033C47.4549 7.90198 47.5246 8.11364 47.5246 8.39585C47.5246 9.80689 47.5246 11.2179 47.5246 12.629C47.5246 14.1811 47.5246 15.7333 47.5246 17.2854C47.5246 19.3314 46.6872 21.0247 45.1519 22.2241C44.2447 22.9296 43.1281 23.494 41.8719 23.9879C38.5222 25.2578 36.5682 27.6566 35.9401 31.3959C35.312 34.9235 36.4286 37.7455 39.1503 39.8621C39.9877 40.4971 40.8949 41.0615 41.7324 41.6259C42.0813 41.8376 42.5 42.1198 42.7792 42.3314L43.2677 42.6136L43.0583 43.1781C42.9885 43.3897 42.9187 43.5308 42.8489 43.7425C42.8489 43.813 42.7792 43.8836 42.7792 43.9541C42.8489 43.9541 42.9885 44.0247 43.1281 44.0247C43.1979 44.0952 43.3375 44.0952 43.4072 44.1658ZM49.8276 39.721C46.757 39.6505 43.1979 39.2271 40.1971 36.9695C38.6618 35.8406 37.8243 34.359 37.8243 32.8069C37.8243 31.2547 38.6618 29.7731 40.1971 28.6443C41.9417 27.3038 44.0353 26.4572 46.6872 26.1044C50.5255 25.6106 53.8054 26.0339 56.7365 27.3744C57.6437 27.7977 58.4811 28.3621 59.2488 28.9971C60.5049 30.0554 61.2028 31.3959 61.2028 32.8069C61.2028 34.2179 60.5049 35.5584 59.2488 36.6873L58.7603 36.1228L59.2488 36.6873C57.6437 38.0983 55.6897 38.9449 53.1076 39.4388C52.2701 39.5799 51.4327 39.6505 50.665 39.721C50.3859 39.6505 50.1067 39.6505 49.8276 39.721ZM49.7578 27.3744C48.8506 27.3744 47.8736 27.4449 46.8966 27.586C44.5238 27.8682 42.6396 28.6443 41.1043 29.7732C39.9179 30.6903 39.3596 31.6781 39.3596 32.7363C39.3596 33.7946 39.9877 34.7824 41.1043 35.6995C43.1979 37.3222 45.7102 38.0278 49.7578 38.1689C49.9672 38.1689 50.2463 38.0983 50.5255 38.0983C51.2233 38.0278 52.0608 37.9572 52.8284 37.8161C55.1314 37.3928 56.876 36.6167 58.2718 35.4173C59.179 34.6413 59.6675 33.6535 59.6675 32.7363C59.6675 31.8192 59.179 30.902 58.2718 30.0554C57.6437 29.4909 56.876 28.9971 56.1084 28.6443C54.2242 27.7977 52.1306 27.3744 49.7578 27.3744Z" fill="#4606C8"/>
<path d="M21.7734 44.871C21.2151 44.871 20.7266 44.7299 20.4475 44.3771C20.0986 44.0244 19.959 43.5305 19.959 42.8955C19.959 42.0489 19.959 41.2023 20.0288 40.3556C20.0288 39.4385 20.0986 38.5213 20.0986 37.6041C20.0986 32.4538 20.1683 27.2329 20.1683 22.0826V18.555C20.1683 16.3679 20.8662 14.7452 22.3317 13.5458C23.0994 12.9109 23.4483 12.0642 23.3785 10.9354C23.239 8.81883 23.239 6.70226 23.1692 4.7268C23.1692 4.09183 23.239 3.38631 23.3785 2.68079C23.5181 2.18692 24.0764 1.83416 24.4951 1.83416C24.9138 1.76361 25.2628 1.76361 25.6117 1.83416C25.6815 1.83416 25.7513 1.83416 25.7513 1.83416H26.2398H26.8679H27.0772C27.4959 1.83416 27.9844 1.83416 28.3334 2.18692C28.6823 2.53969 28.6823 3.17466 28.6823 3.59797C28.4729 6.3495 28.6125 9.17159 28.7521 11.6409C28.7521 12.2053 29.1708 12.9109 29.5895 13.2636C31.1248 14.6041 31.8925 16.3679 31.8925 18.6961C31.8925 23.0704 31.8925 27.5151 31.8925 31.8894C31.8925 34.147 31.8925 36.4753 31.8925 38.7329C31.8925 40.0734 31.8925 41.4139 31.9623 42.6839C31.9623 43.1777 31.9623 43.8832 31.5435 44.3066C31.1248 44.7299 30.4967 44.8004 30.078 44.8004C28.7521 44.8004 27.3564 44.8004 26.0304 44.8004C24.6347 44.8004 23.239 44.8004 21.7734 44.871ZM21.0058 42.6839C21.0058 42.7544 21.0058 42.825 21.0058 42.8955C21.0058 43.2483 21.0756 43.4599 21.2151 43.601C21.3547 43.7421 21.5641 43.7421 21.8432 43.7421C23.239 43.7421 24.6347 43.7421 26.1002 43.7421C27.4261 43.7421 28.8219 43.7421 30.1478 43.7421C30.4968 43.7421 30.7759 43.6716 30.8457 43.601C30.9155 43.4599 30.9853 43.2483 30.9853 42.7544V42.6839C30.7759 42.8955 30.427 42.9661 29.9385 42.9661H28.6823C26.4491 42.9661 24.2857 42.9661 22.0526 42.9661C21.6339 42.9661 21.2849 42.8955 21.0058 42.6839ZM22.1224 40.144C21.7734 40.144 21.7036 40.2145 21.7036 40.2145C21.7036 40.2851 21.6339 40.3556 21.6339 40.5673C21.6339 40.7084 21.6339 40.9201 21.6339 41.0612C21.6339 41.2728 21.6339 41.6256 21.7036 41.6961C21.7036 41.7667 21.8432 41.7667 22.0526 41.7667C24.216 41.7667 26.4491 41.7667 28.6125 41.7667H29.8687C30.2874 41.7667 30.3572 41.7667 30.3572 40.9201V40.7789C30.3572 40.3556 30.2874 40.2145 30.2176 40.144C30.1478 40.0734 30.0082 40.0734 29.7989 40.0734C29.45 40.0734 29.1708 40.0734 28.8219 40.0734C28.2636 40.0734 27.7053 40.0734 27.147 40.0734C26.7981 40.0734 26.3793 40.0734 26.0304 40.0734H24.0764C23.4483 40.2145 22.8202 40.2145 22.1224 40.144ZM29.8687 39.0857C30.2874 39.0857 30.5665 39.1562 30.8457 39.3679C30.8457 39.1562 30.8457 39.0151 30.8457 38.8035C30.8457 36.5458 30.8457 34.2176 30.8457 31.9599C30.8457 27.5857 30.8457 23.1409 30.8457 18.7667C30.8457 16.7912 30.2176 15.3096 28.8917 14.1808C28.1938 13.6164 27.7053 12.6286 27.6355 11.782C27.4959 9.17159 27.3564 6.3495 27.5657 3.52742C27.5657 3.03355 27.5657 2.963 27.4959 2.963C27.4261 2.963 27.2168 2.963 27.0772 2.963H26.8679H26.5887H26.0304C25.8908 2.963 25.7513 2.963 25.6117 2.963C25.2628 2.963 24.9138 2.963 24.6347 2.963C24.5649 2.963 24.4951 3.03355 24.4253 3.03355C24.2857 3.59797 24.216 4.16238 24.216 4.7268C24.216 6.70226 24.2857 8.74828 24.4253 10.8648C24.4951 12.2759 24.0066 13.4753 22.9598 14.3924C21.7734 15.3802 21.2151 16.7207 21.2151 18.555V22.0826C21.2151 27.2329 21.2151 32.4538 21.1454 37.6041C21.1454 38.1685 21.1454 38.7329 21.1454 39.2974C21.4245 39.0857 21.7734 39.0151 22.2619 39.0151C22.89 39.0151 23.5181 39.0151 24.1462 39.0151H26.1002C26.4491 39.0151 26.8679 39.0151 27.2168 39.0151C27.7751 39.0151 28.3334 39.0151 28.8917 39.0151C29.1708 39.0151 29.5197 39.0151 29.7989 39.0151C29.7989 39.0857 29.8687 39.0857 29.8687 39.0857ZM23.0994 36.4753C22.8202 36.4753 22.4713 36.4047 22.1922 36.1931C21.913 35.9109 21.8432 35.4875 21.8432 35.2053C21.8432 33.0182 21.8432 30.7605 21.8432 28.5734C21.8432 25.963 21.8432 23.3526 21.8432 20.6716C21.8432 20.3188 22.1224 19.4016 22.7504 19.4016C24.5649 19.3311 26.3096 19.4016 28.1938 19.4016H30.0082V36.3342L29.3104 36.4047C29.101 36.4047 28.9614 36.4753 28.7521 36.4753C28.124 36.4753 27.4261 36.4753 26.7981 36.4753C25.6117 36.4753 24.3555 36.4753 23.0994 36.4753C23.1692 36.4753 23.0994 36.4753 23.0994 36.4753ZM22.9598 35.3464C22.9598 35.3464 23.0296 35.3464 23.0994 35.3464C24.3555 35.3464 25.5419 35.3464 26.7981 35.3464C27.4261 35.3464 28.124 35.3464 28.7521 35.3464C28.8219 35.3464 28.8219 35.3464 28.8917 35.3464V20.4599H28.1938C26.3793 20.4599 24.7045 20.4599 23.0296 20.4599C23.0296 20.5305 22.9598 20.601 22.9598 20.601C22.9598 23.2115 22.9598 25.8219 22.9598 28.4323C22.9598 30.6194 22.9598 32.8771 22.9598 35.0642C22.9598 35.2759 22.9598 35.3464 22.9598 35.3464Z" fill="#4606C8"/>
<path d="M6.42036 45.7885C5.02463 45.7885 3.6289 45.7885 2.23317 45.7885C0.628079 45.7885 0 45.1535 0 43.5308C0 35.5584 0 27.6566 0 19.7548C0 17.9204 0.767652 16.5799 2.23317 15.8038C3.00082 15.3805 3.21018 14.8867 3.21018 13.7578C3.21018 12.3468 3.41954 11.0063 3.69869 9.66581C3.76847 9.3836 3.76847 9.10139 3.83826 8.81918C3.83826 8.60752 3.90805 8.46642 3.97783 8.25476C4.04762 7.7609 4.18719 7.40814 4.04762 6.98482C3.83826 6.1382 3.83826 5.22102 3.90805 4.30384C3.90805 3.95108 3.97783 3.52777 3.97783 3.17501V2.54004H9.70033L9.56075 4.44495C9.49097 5.50323 9.3514 6.56151 9.28161 7.61979C9.28161 7.69035 9.35139 7.902 9.42118 8.11366L9.49097 8.25476C10.3284 10.4419 10.5378 12.4879 10.2586 14.5339C10.2586 14.7456 10.5378 15.31 10.6773 15.4511C13.1897 16.721 13.5386 18.9081 13.4688 21.0953C13.4688 26.0339 13.4688 30.9726 13.4688 35.9112C13.4688 38.31 13.4688 40.7088 13.4688 43.037C13.4688 45.1535 12.9105 45.718 10.7471 45.718H10.2586C9.00246 45.718 7.67652 45.7885 6.42036 45.7885ZM4.53612 13.4756C4.53612 13.5462 4.53612 13.6167 4.53612 13.7578C4.53612 14.8867 4.32676 16.2272 2.86125 17.0032C1.81445 17.5676 1.32594 18.4143 1.32594 19.8253C1.32594 27.7272 1.32594 35.629 1.32594 43.5308C1.32594 44.3775 1.32594 44.448 2.30296 44.448C4.95484 44.448 7.67652 44.448 10.3284 44.448H10.8169C12.2126 44.448 12.2126 44.448 12.2126 43.037C12.2126 40.6382 12.2126 38.31 12.2126 35.9112C12.2126 30.9726 12.2126 26.0339 12.2126 21.0247C12.2126 18.9081 11.8637 17.4265 10.119 16.5094C9.42118 16.1566 8.86289 15.0278 9.00246 14.2517C9.07225 13.9695 9.07225 13.6873 9.07225 13.4051C8.58374 13.7578 7.95566 13.8284 7.46716 13.9695C7.2578 14.04 7.11823 14.04 6.97865 14.04H6.83908C5.93186 14.04 5.09442 13.8284 4.53612 13.4756ZM6.69951 11.3591C5.93186 11.3591 5.30378 11.6413 5.09442 11.8529C5.02463 11.9235 4.95484 11.994 4.95484 12.0646C5.09442 12.3468 5.7225 12.7701 6.69951 12.7701H6.83908C6.90887 12.7701 7.04844 12.7701 7.11823 12.7701C8.16502 12.5584 8.37438 12.4173 8.37438 12.0646C8.37438 11.7824 8.23481 11.6413 7.32759 11.4296L7.18801 11.3591C7.11823 11.3591 6.90887 11.3591 6.69951 11.3591ZM6.69951 10.0186C6.69951 10.0186 6.76929 10.0186 6.69951 10.0186C6.97865 10.0186 7.2578 10.0186 7.53695 10.0891H7.67652C7.95566 10.1597 8.37438 10.2302 8.72332 10.4419C8.58374 9.87746 8.44417 9.24249 8.16502 8.67808L8.09524 8.53697C7.95566 8.25476 7.81609 7.902 7.88588 7.47869C7.95566 6.42041 8.02545 5.36213 8.16502 4.23329L8.23481 3.73943H5.23399C5.23399 3.95108 5.23399 4.09219 5.23399 4.30384C5.1642 5.22102 5.09442 5.99709 5.30378 6.70262C5.51314 7.47869 5.37356 8.04311 5.23399 8.53697C5.23399 8.67808 5.1642 8.81918 5.1642 8.96029C5.09442 9.24249 5.09442 9.5247 5.02463 9.87746C5.02463 10.0891 4.95484 10.2302 4.95484 10.4419C5.37356 10.1597 6.00164 10.0186 6.69951 10.0186ZM9.8399 41.3437C9.77011 41.3437 9.77011 41.3437 9.8399 41.3437C7.81609 41.3437 5.7225 41.3437 3.41954 41.3437C3.21018 41.3437 2.65189 41.3437 2.30296 40.991C1.95402 40.6382 1.95402 40.1443 1.95402 39.8621C1.95402 37.8867 1.95402 35.9112 1.95402 33.9357V30.4081C1.95402 28.221 1.95402 25.9634 1.95402 23.7762C1.95402 22.4357 2.30296 22.083 3.6289 22.083C4.25698 22.083 4.88506 22.083 5.51314 22.083C6.90887 22.083 8.3046 22.083 9.70033 22.083C10.0493 22.083 10.5378 22.083 10.9565 22.5063C11.3054 22.8591 11.3752 23.4235 11.3752 23.7762C11.3752 28.7854 11.3752 34.0063 11.3752 39.8621C11.3752 40.2149 11.3054 40.7088 10.9565 41.0615C10.6076 41.3437 10.119 41.3437 9.8399 41.3437ZM6.69951 40.0738C7.7463 40.0738 8.7931 40.0738 9.77011 40.0738C9.90969 40.0738 10.0493 40.0738 10.0493 40.0738C10.0493 40.0738 10.0493 40.0032 10.0493 39.7916C10.0493 34.0063 10.0493 28.7149 10.0493 23.7057C10.0493 23.494 10.0493 23.4235 9.97947 23.3529C9.97947 23.3529 9.90969 23.3529 9.70033 23.3529C8.3046 23.3529 6.90887 23.3529 5.44335 23.3529C4.81527 23.3529 4.18719 23.3529 3.55911 23.3529C3.48933 23.3529 3.34975 23.3529 3.21018 23.3529C3.21018 23.494 3.21018 23.7057 3.21018 23.7762C3.21018 25.9634 3.21018 28.221 3.21018 30.4081V33.9357C3.21018 35.9112 3.21018 37.8867 3.21018 39.8621C3.21018 39.9327 3.21018 40.0032 3.21018 40.0738C3.21018 40.0738 3.27997 40.0738 3.34975 40.0738C4.53612 40.0738 5.65271 40.0738 6.69951 40.0738Z" fill="#4606C8"/>
</g>
<defs>
<clipPath id="clip0_270_1551">
<rect width="85" height="46" fill="white"/>
</clipPath>
</defs>
</svg>
