<svg width="83" height="60" viewBox="0 0 83 60" fill="none" xmlns="http://www.w3.org/2000/svg">
<g clip-path="url(#clip0_270_1463)">
<path d="M61.2822 59.4788C61.0853 59.4788 60.8229 59.4788 60.626 59.4788C58.8545 59.4137 57.1486 57.7199 57.1486 56.0261C57.1486 55.0489 57.1486 54.1368 57.1486 53.1596C57.1486 52.7687 57.1486 52.3127 57.1486 51.9218V43.127C57.1486 42.8664 57.1486 42.671 57.1486 42.4104C57.1486 41.8892 57.1486 41.3029 57.1486 40.7818C57.2142 39.544 57.9359 38.5016 59.0513 37.8502C57.4766 36.8078 56.7549 35.3094 56.7549 33.0293V15.8958C56.7549 12.8339 58.3296 11.0098 61.3478 10.4235C63.0537 10.0977 64.2347 8.66449 64.4316 6.84039C63.7098 6.51466 63.3818 5.99349 63.3818 5.08143C63.3818 3.97394 63.3818 2.99674 63.3818 1.9544C63.4474 0.651466 64.1035 0 65.4158 0C66.3999 0 67.4497 0 68.4339 0H69.6806H70.8616C71.7802 0 72.7644 0 73.6829 0C74.7328 0 75.4545 0.716612 75.5201 1.69381C75.5857 2.9316 75.5857 4.16938 75.5201 5.21173C75.5201 5.92834 75.1264 6.44951 74.4703 6.77524C74.7327 8.46906 75.3889 9.5114 76.7011 10.0977C76.9636 10.228 77.2916 10.2932 77.6197 10.3583C77.7509 10.3583 77.8822 10.4235 78.0134 10.4886C80.9003 11.2704 82.9999 13.8762 82.9999 16.7427C83.0656 23.0619 82.9999 29.5765 82.9999 35.2443C82.9999 36.5472 82.4094 37.5244 81.3596 38.1107C82.0158 38.6319 82.475 39.3485 82.6063 40.1954C82.8031 40.9121 82.7375 41.5635 82.7375 42.2801C82.7375 42.4104 82.7375 42.5407 82.7375 42.671V52.9642C82.7375 53.8111 82.7375 54.658 82.7375 55.5049C82.6719 57.6547 80.966 59.4137 78.932 59.4137C75.0608 59.4137 71.1241 59.4137 67.2529 59.4137H62.7912C62.5944 59.4137 62.3976 59.4137 62.1351 59.4137C61.8071 59.4788 61.5446 59.4788 61.2822 59.4788ZM65.4158 1.36808C64.8908 1.36808 64.8252 1.43322 64.7596 1.9544C64.7596 2.9316 64.7596 3.90879 64.7596 4.95114C64.7596 5.47231 64.7596 5.47231 65.3501 5.60261L65.875 5.7329V6.25407C65.875 8.99023 64.1691 11.2052 61.6758 11.6612C59.3138 12.1173 58.1984 13.4202 58.1984 15.7655V32.899C58.1984 35.2443 58.9857 36.3518 61.1509 37.1987L63.6442 38.1107L61.0197 38.5016C59.5762 38.6971 58.592 39.6091 58.592 40.7166C58.592 41.2378 58.592 41.759 58.592 42.2801C58.592 42.5407 58.592 42.7362 58.592 42.9967V51.7915C58.592 52.1824 58.592 52.6384 58.592 53.0293C58.592 53.9414 58.592 54.9186 58.592 55.8306C58.592 56.873 59.7075 57.9153 60.7573 57.9805C61.2165 57.9805 61.6758 57.9805 62.1351 57.9805C62.332 57.9805 62.5944 57.9805 62.7912 57.9805H67.2529C71.1241 57.9805 75.0608 57.9805 78.932 57.9805C80.2442 57.9805 81.294 56.8078 81.3596 55.4397C81.3596 54.5928 81.3596 53.8111 81.3596 52.9642V51.8567H82.0158H81.3596V43.0619C81.3596 42.8013 81.3596 42.4756 81.3596 42.215C81.3596 41.6287 81.4252 41.0423 81.2284 40.5212V40.456C81.0972 39.6743 80.441 38.9577 79.6537 38.7622L79.1288 38.6319L79.0632 37.3941L79.6537 37.2638C80.966 37.0033 81.6221 36.3518 81.6221 35.2443C81.6221 29.5114 81.6221 23.0619 81.6221 16.7427C81.6221 14.5277 79.9818 12.443 77.6853 11.8567C77.5541 11.8567 77.4229 11.7915 77.2916 11.7915C76.898 11.7264 76.5043 11.5961 76.1106 11.4007C74.2078 10.5537 73.2237 8.85993 72.9612 6.38436L73.6829 6.31922L73.5517 5.66775C74.0766 5.53746 74.0766 5.34202 74.0766 5.21173C74.0766 4.16938 74.1422 2.99674 74.0766 1.75896C74.0766 1.56352 74.011 1.43322 73.6173 1.36808C72.6988 1.36808 71.7802 1.36808 70.796 1.36808H69.615H68.3683C67.3841 1.36808 66.3999 1.36808 65.4158 1.36808ZM62.7256 36.0912C62.5944 36.0912 62.5288 36.0912 62.4632 36.0912C62.2663 36.0912 62.0039 36.0912 61.8071 36.0261C60.1667 35.7003 59.1825 34.5277 59.1825 32.8339C59.1825 26.9707 59.1825 22.215 59.1825 17.785C59.1825 15.8958 60.298 14.7883 62.3976 14.5277H62.4632L63.4474 14.5928L63.3818 15.3094L63.9067 14.8534C64.2347 15.3094 64.4316 15.7655 64.4316 16.2866C64.4316 22.2801 64.4316 28.3388 64.4316 34.3322C64.4316 34.7883 64.3659 35.4397 63.7754 35.8958L63.5786 36.0261L62.7256 36.0912ZM62.5288 15.8306C60.8885 16.0912 60.5604 16.7427 60.5604 17.7199C60.5604 22.1498 60.5604 26.9055 60.5604 32.7687C60.5604 33.8111 61.0853 34.3974 62.0695 34.5928C62.2007 34.5928 62.3976 34.5928 62.5288 34.658C62.5944 34.658 62.66 34.658 62.7256 34.658H62.9881C63.0537 34.5928 63.0537 34.4625 63.0537 34.2671C63.0537 28.2736 63.0537 22.215 63.0537 16.2215C63.0537 16.0912 63.0537 15.9609 62.9881 15.8958L62.5288 15.8306Z" fill="#4606C8"/>
<path d="M38.3177 59.0229C37.6616 58.7623 36.9399 58.5669 36.3494 58.2411C34.7747 57.3291 33.9873 55.8959 33.9873 54.0718C33.9873 48.9903 33.9873 43.9089 33.9873 38.8275C33.9873 37.9806 34.3154 37.264 34.9059 36.6776C34.709 36.417 34.5122 36.2216 34.381 35.961C34.1841 35.505 33.9873 34.9838 33.9873 34.5278C33.9873 30.163 33.9873 25.8633 33.9873 21.4985C33.9873 19.935 35.2996 18.632 36.8743 18.632C37.7272 18.632 38.5802 18.632 39.4332 18.632C40.2861 18.632 40.5486 18.4366 40.5486 17.5245C40.5486 17.4594 40.5486 17.3291 40.5486 17.1988C39.8924 17.0685 39.7612 16.6125 39.8268 16.0262C39.8924 15.3096 39.8268 14.5278 39.8268 13.8112C39.8268 13.3552 39.8924 13.0294 40.2861 12.834C42.3857 12.834 44.4853 12.834 46.6505 12.834C47.0442 13.0946 47.1098 13.4203 47.1098 13.8112C47.1098 14.5929 47.1098 15.3747 47.1098 16.1565C47.1098 16.8079 47.0442 16.9382 46.3881 17.1988C46.3881 17.3942 46.3881 17.5245 46.3881 17.72C46.3881 18.3063 46.6505 18.5669 47.2411 18.5669C48.1596 18.5669 49.1438 18.5669 50.0624 18.5669C51.6371 18.5669 52.8837 19.8698 52.8837 21.4333C52.8837 25.7982 52.8837 30.0978 52.8837 34.4627C52.8837 35.3096 52.4901 35.961 51.9652 36.6125C52.162 36.8731 52.4245 37.0685 52.4901 37.3942C52.6869 37.8503 52.8837 38.3714 52.8837 38.8275C52.8837 43.8438 52.8837 48.86 52.8837 53.9415C52.8837 56.417 51.1778 58.4366 48.7502 58.8926C48.6845 58.8926 48.6189 58.9578 48.5533 58.9578C45.0758 59.0229 41.664 59.0229 38.3177 59.0229ZM35.4308 46.7754C35.4308 46.9708 35.4308 47.1011 35.4308 47.2314C35.4308 49.3812 35.4308 51.5311 35.4308 53.6809C35.4308 56.0262 36.9399 57.5897 39.3675 57.5897C42.0577 57.5897 44.7478 57.5897 47.5035 57.5897C49.8656 57.5897 51.4403 56.0913 51.4403 53.746C51.4403 51.5962 51.4403 49.4464 51.4403 47.2965C51.4403 47.1662 51.4403 46.9708 51.4403 46.7754C51.1778 46.7754 50.9154 46.7754 50.7185 46.7754C50.2592 46.7754 49.9968 46.4496 49.9968 46.0587C49.9968 45.6679 50.2592 45.3421 50.7185 45.3421C50.981 45.3421 51.1778 45.3421 51.4403 45.3421C51.4403 44.821 51.4403 44.3649 51.4403 43.9089C50.8498 43.8438 49.9968 44.1043 50.0624 43.1271C50.0624 42.2151 50.9154 42.4757 51.4403 42.4105C51.4403 41.9545 51.4403 41.4985 51.4403 40.9773C50.8498 40.9122 50.0624 41.1727 50.0624 40.2607C50.0624 39.2835 50.9154 39.6092 51.4403 39.5441C51.5715 38.2412 51.1122 37.5245 50.0624 37.3942C49.5375 37.3291 49.2751 37.1337 49.2751 36.6776C49.2751 36.2216 49.5375 36.0262 50.0624 35.961C50.8498 35.8959 51.3747 35.3747 51.4403 34.5278C46.1256 34.5278 40.8766 34.5278 35.562 34.5278C35.6276 35.3747 36.0869 35.8307 37.0055 35.961C37.4648 36.0262 37.7272 36.2868 37.7272 36.6776C37.7272 37.0685 37.4648 37.3291 37.0711 37.3942C35.8901 37.5897 35.3652 38.3063 35.6276 39.5441C36.1525 39.6092 36.9399 39.3486 37.0055 40.1955C37.0711 41.1727 36.1525 40.9122 35.6276 40.9773C35.6276 41.4333 35.6276 41.8894 35.6276 42.4105C35.8245 42.4105 36.0213 42.4105 36.2181 42.4105C36.743 42.4105 37.0055 42.6711 37.0055 43.1271C37.0055 43.5832 36.6774 43.8438 36.2181 43.8438C36.0213 43.8438 35.8245 43.8438 35.6276 43.8438C35.6276 44.3649 35.6276 44.821 35.6276 45.277C36.2181 45.3421 37.0055 45.0815 37.0711 46.0587C36.8743 46.5799 36.5462 46.7102 35.4308 46.7754ZM51.309 22.9969C45.9944 22.9969 40.6798 22.9969 35.4308 22.9969C35.4308 26.3845 35.4308 29.7069 35.4308 33.0294C40.7454 33.0294 45.9944 33.0294 51.309 33.0294C51.309 29.7069 51.309 26.3845 51.309 22.9969ZM35.4308 21.4985C40.7454 21.4985 46.06 21.4985 51.309 21.4985C51.1778 20.5864 50.6529 20.0653 49.8 20.0653C48.8814 20.0653 47.8972 20.0653 46.9786 20.0653C45.7976 20.0653 44.879 19.0881 44.879 17.9806C44.879 17.72 44.879 17.4594 44.879 17.1988C43.8948 17.1988 42.9106 17.1988 41.992 17.1988C41.992 17.3942 41.992 17.5897 41.992 17.7851C41.992 19.1532 41.0735 20.0653 39.6956 20.0653C38.777 20.0653 37.9241 20.0653 37.0055 20.0653C36.0869 20.1304 35.4964 20.5864 35.4308 21.4985ZM41.2047 15.7656C42.6482 15.7656 44.0917 15.7656 45.4695 15.7656C45.4695 15.3096 45.4695 14.8535 45.4695 14.3975C44.026 14.3975 42.5826 14.3975 41.2047 14.3975C41.2047 14.8535 41.2047 15.3096 41.2047 15.7656Z" fill="#4606C8"/>
<path d="M29.2629 59.9998C27.2289 59.9998 25.1949 59.9998 23.2265 59.9998H20.5364C19.421 59.9998 18.6992 59.2832 18.6992 58.1757C18.6992 57.0682 18.6992 55.9607 18.6992 54.9184V52.0519C18.6992 50.9445 18.6992 49.9021 18.6992 48.7946V35.5699C18.6992 34.7881 19.0929 34.2018 19.749 33.9412C20.0115 33.8109 20.3395 33.8109 20.602 33.8109V33.4852C20.602 33.0943 20.602 32.7034 20.602 32.3125C20.602 31.5959 21.0613 31.1399 21.783 31.1399C22.1767 31.1399 22.5048 31.1399 22.8984 31.1399C23.1609 29.837 23.4233 28.534 23.6858 27.2311L23.9482 25.9933C23.9482 25.9282 23.9482 25.863 24.0138 25.7327C24.2107 25.0813 24.7356 25.0161 24.9324 25.0161C25.3917 25.0161 25.7854 25.3418 25.851 25.7979C25.9822 26.4493 26.1134 27.1008 26.2447 27.7523L26.4415 28.6643C26.6383 29.5112 26.7696 30.293 26.9664 31.1399C27.2945 31.1399 27.6225 31.1399 27.9506 31.1399C28.8036 31.1399 29.2629 31.5959 29.2629 32.4428V33.8109C29.3941 33.8109 29.5253 33.8109 29.6565 33.8109C30.5095 33.876 31.1656 34.5927 31.2312 35.5047C31.2312 35.7002 31.2312 35.8956 31.2312 36.0259V40.3907V44.5601V54.5927C31.2312 55.7653 31.2312 56.9379 31.2312 58.1106C31.2312 58.6317 31.0344 59.0878 30.7063 59.4135C30.247 59.8044 29.7878 59.9998 29.2629 59.9998ZM20.1427 40.9119V58.0454C20.1427 58.3712 20.2083 58.4363 20.5364 58.4363H29.1972C29.5253 58.4363 29.5909 58.3712 29.5909 58.0454C29.5909 56.6773 29.5909 55.2441 29.5909 53.876V50.6839V40.9119H20.1427ZM28.0162 39.4135C28.5411 39.4135 29.066 39.4135 29.5909 39.4135C29.5909 39.2181 29.5909 39.0878 29.5909 38.8923V38.6969H20.1427C20.1427 38.8923 20.1427 39.1529 20.1427 39.3484H25.9166H26.9664C27.2945 39.4135 27.6882 39.4135 28.0162 39.4135ZM20.1427 37.2637H29.5909V37.0682C29.5909 36.5471 29.5909 36.091 29.5909 35.5699C29.5909 35.3744 29.5253 35.2441 29.2629 35.2441H27.885C27.032 35.2441 26.1791 35.2441 25.3261 35.2441C24.7356 35.2441 24.0795 35.2441 23.4889 35.2441C22.8984 35.2441 22.3079 35.2441 21.7174 35.2441C21.5206 35.2441 21.3237 35.2441 21.0613 35.2441C20.8644 35.2441 20.7332 35.2441 20.5364 35.2441C20.2739 35.2441 20.1427 35.3093 20.1427 35.635C20.1427 36.1562 20.1427 36.6773 20.1427 37.1985V37.2637ZM26.4415 33.7458C26.8352 33.7458 27.2945 33.7458 27.6882 33.7458C27.6882 33.3549 27.6882 32.964 27.6882 32.6383C25.7854 32.6383 23.9482 32.6383 22.1111 32.6383C22.1111 33.0291 22.1111 33.42 22.1111 33.7458C22.7672 33.7458 23.4233 33.7458 24.0795 33.7458H24.8668H25.6542C25.9166 33.7458 26.1791 33.7458 26.4415 33.7458ZM24.4731 31.0747H25.3917L24.9324 28.7946L24.4731 31.0747ZM24.8012 26.2539H24.998C24.998 26.1888 24.9324 26.0585 24.9324 25.9933C24.9324 25.9282 24.9324 25.9282 24.9324 25.9282C24.9324 25.9282 24.9324 25.9282 24.8668 25.9933C24.8668 26.0585 24.8668 26.0585 24.8668 26.1236L24.8012 26.2539Z" fill="#4606C8"/>
<path d="M7.15178 60C5.7083 60 4.33043 60 2.95257 60C2.16522 60 1.44348 59.6743 0.918577 59.1531C0.328063 58.5016 0 57.6547 0 56.7427C0 55.7655 0 54.7231 0 53.7459V46.7101V46.5146C0 46.2541 0 45.9935 0 45.7329C0.0656127 44.886 0.262451 44.0391 0.721739 42.9967C1.0498 42.2801 1.37787 41.4984 1.64032 40.7166C1.77154 40.3909 1.90277 40.0651 2.03399 39.7394L2.23083 39.2834C2.62451 38.241 3.01818 37.2638 3.41186 36.2215C3.47747 36.1563 3.47747 36.026 3.47747 35.8306C3.47747 34.7231 3.47747 33.5505 3.47747 32.443V31.4006V29.5114C3.28063 29.4462 3.08379 29.3159 2.95257 29.2508C2.62451 29.0554 2.49328 28.6645 2.49328 28.1433V27.6873C2.49328 27.3615 2.49328 27.101 2.49328 26.7752C2.49328 26.3843 2.62451 25.9935 2.88696 25.7329C3.14941 25.4723 3.6087 25.2769 4.00237 25.2769C5.90514 25.2769 7.74229 25.2769 9.64506 25.2769H11.7447C12.5976 25.2769 13.1881 25.8632 13.2538 26.7101C13.2538 26.8404 13.2538 26.9707 13.2538 27.1661C13.2538 27.4267 13.2538 27.6873 13.2538 27.8827C13.3194 28.7296 12.9257 29.2508 12.204 29.5114V31.0749C12.204 32.443 12.204 33.8762 12.204 35.2443C12.204 35.8957 12.3352 36.4821 12.5976 37.0684C12.8601 37.6547 13.0569 38.1759 13.2538 38.7622C13.385 39.1531 13.5818 39.6091 13.7787 40C14.1067 40.7817 14.4348 41.5635 14.7628 42.3453L15.2221 43.5179C15.5502 44.2997 15.747 45.0814 15.747 45.9283C15.747 47.8827 15.747 49.8371 15.747 51.7915V54.8534C15.747 55.3094 15.747 55.7655 15.747 56.2866V56.6775C15.747 58.0456 15.1565 59.0879 13.9755 59.6742C13.6474 59.8697 13.1881 59.9348 12.7289 59.9348C10.8261 59.9348 8.98893 60 7.15178 60ZM12.1383 58.4365H12.3352C12.6632 58.4365 12.9913 58.4365 13.2538 58.3062C13.8443 57.9804 14.1723 57.5244 14.1723 56.8078C14.1723 56.2215 14.1723 55.6352 14.1723 54.9837C14.1723 54.658 14.1723 54.3322 14.1723 54.0065C14.1723 51.2703 14.1723 48.5342 14.1723 45.8632C14.1723 45.2769 14.0411 44.6905 13.8443 44.1042C13.713 43.8436 13.5818 43.583 13.5162 43.2573C13.385 42.9316 13.2538 42.6058 13.1225 42.3453C12.8601 41.6286 12.5976 40.9772 12.2696 40.2606C11.8759 39.2834 11.4822 38.3062 11.0885 37.329C10.8261 36.7427 10.6292 36.0912 10.6949 35.3094C10.6949 35.2443 10.6949 35.114 10.6949 35.0488C10.6949 34.9837 10.6949 34.9185 10.6949 34.9185H10.3668C10.1043 34.9185 9.8419 34.9185 9.57945 34.9185C8.07036 34.9185 6.56126 34.9185 5.05217 34.9185C5.05217 35.3094 5.05217 35.57 5.05217 35.8957C5.05217 36.2215 4.98656 36.4821 4.92095 36.7427C4.78972 37.0684 4.6585 37.329 4.59289 37.6547L3.80553 39.6091C3.34625 40.7817 2.88696 41.9544 2.42767 43.127C2.36206 43.3225 2.29644 43.4528 2.16522 43.6482C2.0996 43.8436 1.96838 44.0391 1.90277 44.1694C1.70593 44.7557 1.5747 45.4071 1.5747 45.9935C1.5747 47.2313 1.5747 48.469 1.5747 49.772V53.0944C1.5747 54.1368 1.5747 55.2443 1.5747 56.2866V56.4169C1.5747 56.6775 1.5747 57.0032 1.64032 57.2638C1.77154 57.9153 2.36206 58.4365 3.01818 58.4365C3.87115 58.4365 4.6585 58.4365 5.51146 58.4365H6.36443H6.62688C8.39842 58.4365 10.2356 58.4365 12.1383 58.4365ZM5.05217 31.8567C5.05217 32.3778 5.05217 32.9642 5.05217 33.4853C6.49565 33.4853 7.93913 33.4853 9.38261 33.4853H10.6949C10.6949 33.0293 10.6949 32.5081 10.6949 32.0521V31.9218L5.05217 31.8567ZM5.05217 29.5114C5.05217 29.772 5.05217 30.0326 5.05217 30.3583C5.7083 30.3583 6.36443 30.3583 7.02055 30.3583H7.87352H8.66087C9.317 30.3583 10.0387 30.3583 10.6949 30.3583C10.6949 30.0977 10.6949 29.772 10.6949 29.5114C8.79209 29.5114 6.88933 29.5114 5.05217 29.5114ZM4.00237 26.7752C4.00237 27.2313 4.00237 27.6221 4.00237 28.0782H11.7447C11.7447 27.8176 11.7447 27.4918 11.7447 27.2313V26.7752H8.85771H7.87352C6.56126 26.7101 5.31462 26.7101 4.00237 26.7752Z" fill="#4606C8"/>
<path d="M25.1294 57.7199C24.1453 57.7199 23.1611 57.7199 22.2425 57.7199C21.3239 57.7199 20.7334 57.1335 20.7334 56.2215C20.7334 55.57 20.7334 54.9837 20.7334 54.3322V52.5081C20.7334 51.7915 20.7334 51.1401 20.7334 50.4234V49.2508C20.7334 47.8176 20.7334 46.3844 20.7334 44.9511C20.7334 44.43 20.8646 44.0391 21.1927 43.7133C21.5207 43.3876 21.9144 43.2573 22.4393 43.2573C23.686 43.2573 24.9326 43.2573 26.1792 43.2573H27.4915C28.5413 43.2573 29.1318 43.8436 29.1318 44.886V55.3094C29.1318 55.6352 29.1318 55.8958 29.1318 56.2215C29.1318 57.0684 28.4757 57.6547 27.6227 57.7199C26.7698 57.7199 25.9824 57.7199 25.1294 57.7199ZM22.2425 56.1563C24.014 56.1563 25.7856 56.1563 27.5571 56.1563C27.5571 55.7655 27.5571 55.4397 27.5571 55.0489V44.8208C27.5571 44.7557 27.5571 44.7557 27.5571 44.7557H27.4915C25.7856 44.7557 24.0796 44.7557 22.3737 44.7557C22.3081 44.7557 22.3081 44.7557 22.2425 44.7557C22.2425 44.7557 22.2425 44.8208 22.2425 44.886V45.6026C22.2425 46.4495 22.2425 47.2313 22.2425 48.0782C22.2425 48.3388 22.2425 48.6645 22.2425 48.9251C22.2425 49.0554 22.2425 49.1857 22.2425 49.2508C22.2425 49.3811 22.2425 49.5114 22.2425 49.5765C22.2425 49.7068 22.2425 49.772 22.3081 49.9023C22.3081 50.0326 22.3737 50.228 22.3737 50.3583C22.3737 51.7264 22.3737 53.0945 22.3737 54.4625V56.0261C22.2425 56.1563 22.2425 56.1563 22.2425 56.1563Z" fill="#4606C8"/>
<path d="M10.7607 57.1987C10.4326 57.1987 10.1701 57.1987 9.84208 57.1987H3.74011C2.82153 57.1987 2.03418 56.4169 2.03418 55.5049C2.03418 54.3322 2.03418 53.2247 2.03418 52.0521V51.0749V50.6189V45.9283C2.03418 44.7557 2.75592 44.0391 3.93695 44.0391H11.6792C12.2041 44.0391 12.729 44.2345 13.0571 44.5602C13.3852 44.886 13.582 45.342 13.582 45.9283V53.0293C13.582 53.4853 13.582 53.8762 13.582 54.3322V55.4397C13.582 56.4169 12.7947 57.1987 11.8105 57.1987C11.4824 57.1987 11.1543 57.1987 10.7607 57.1987ZM4.00256 45.6026C3.6745 45.6026 3.60888 45.6677 3.60888 45.9935V55.3746C3.60888 55.6352 3.6745 55.7003 3.93695 55.7003C6.56145 55.7003 9.12035 55.7003 11.7449 55.7003C12.0073 55.7003 12.0729 55.6352 12.0729 55.3746V45.9935C12.0729 45.6677 12.0073 45.6677 11.7449 45.6677L4.00256 45.6026Z" fill="#4606C8"/>
<path d="M7.87336 55.7003C7.67652 55.7003 7.47968 55.7003 7.21723 55.6352C6.0362 55.5049 5.05201 54.8534 4.33027 53.9414C3.08363 52.3127 3.4117 49.9674 4.9864 48.6645C5.18324 48.4691 5.44569 48.3388 5.64253 48.2085C5.70814 48.2085 5.70814 48.1433 5.77375 48.1433C5.70814 48.0782 5.64253 48.0782 5.57691 48.013C5.5113 48.013 5.44569 47.9479 5.44569 47.9479C4.85517 47.6873 4.78956 47.2313 4.92079 46.9056C5.11762 46.5147 5.5113 46.3844 5.97059 46.5147C6.36426 46.645 6.69233 46.9056 7.02039 47.1661C7.02039 47.101 7.02039 47.0358 7.02039 46.9707V46.5798C7.02039 45.9284 7.41407 45.7329 7.74213 45.7329C8.00458 45.7329 8.20142 45.8632 8.26703 45.9284C8.39826 46.0586 8.52948 46.3192 8.52948 46.5798V47.1661C8.85755 46.8404 9.25122 46.5798 9.71051 46.4495C9.90735 46.3844 10.1698 46.3844 10.301 46.4495C10.4979 46.5147 10.6291 46.7101 10.6291 46.9056C10.6947 47.1661 10.6291 47.4919 10.4322 47.6873C10.301 47.8176 10.1698 47.8827 10.1042 47.8827C10.1042 47.8827 10.0386 47.8827 10.0386 47.9479C9.97296 48.013 9.84173 48.0782 9.77612 48.1433C10.1042 48.3388 10.3666 48.5342 10.5635 48.6645C10.8259 48.8599 11.0228 49.0554 11.154 49.2508C12.4662 51.0098 12.1382 53.3551 10.3666 54.7231C9.71051 55.4398 8.79193 55.7003 7.87336 55.7003ZM7.87336 49.2508C7.67652 49.2508 7.47968 49.2508 7.34845 49.316C6.10181 49.5114 5.11762 50.6189 5.18324 51.7264C5.18324 52.3127 5.38007 52.8339 5.77375 53.2899C6.62672 54.2671 8.13581 54.5277 9.31683 53.8111C10.0386 53.3551 10.4979 52.7687 10.5635 52.0521C10.6947 51.0098 10.301 50.1629 9.25122 49.5114C9.18561 49.4463 9.05438 49.3811 9.05438 49.3811C8.66071 49.316 8.26703 49.2508 7.87336 49.2508ZM5.77375 47.1661L5.64253 47.557L5.70814 47.4267L5.83936 47.2313C5.83936 47.2313 5.83936 47.1661 5.77375 47.1661Z" fill="#4606C8"/>
</g>
<defs>
<clipPath id="clip0_270_1463">
<rect width="83" height="60" fill="white"/>
</clipPath>
</defs>
</svg>
