<svg width="71" height="58" viewBox="0 0 71 58" fill="none" xmlns="http://www.w3.org/2000/svg">
<g clip-path="url(#clip0_270_1645)">
<path d="M70.5481 55.3607C70.0318 56.2619 69.3863 56.97 68.4827 57.4206C68.0309 57.6138 67.579 57.7425 67.1272 57.8713C66.9336 57.8713 66.7399 57.8713 66.5463 57.9356C66.4172 57.8713 66.2236 57.8713 66.0945 57.9356C65.9654 57.9356 65.8363 57.8713 65.7072 57.9356C65.5781 57.9356 65.449 57.9356 65.3199 57.9356C58.4136 57.9356 51.5718 57.9356 44.6654 57.9356C44.5363 57.9356 44.4072 57.9356 44.2781 57.9356C44.149 57.9356 44.0845 57.8713 43.9554 57.9356C43.439 57.8713 42.9872 57.8713 42.4709 57.9356C41.5672 57.9356 40.6636 57.8713 39.8245 57.485C39.4372 57.2275 39.1145 56.97 38.7272 56.7769C38.3399 56.2619 37.8881 55.7469 37.6299 55.1032C37.5009 54.7814 37.4363 54.3951 37.3072 54.0089C37.3072 53.9445 37.3072 53.8158 37.3072 53.7514V53.687C37.3072 53.3652 37.3718 52.9789 37.3072 52.6571C37.3072 52.5283 37.3072 52.3996 37.3072 52.2708C37.3072 49.6959 37.3072 47.121 37.3072 44.5461C37.3072 43.9667 37.4363 43.3873 37.6299 42.8724C37.8881 42.293 38.2109 41.778 38.5981 41.3274L38.6627 41.263L38.7272 41.1987C38.8563 40.9412 38.7918 40.6837 38.7918 40.4262C38.7918 39.9756 38.7918 39.525 38.7918 39.0744C38.7918 38.6238 38.7918 38.1731 38.7918 37.7225C38.7918 37.2719 38.7918 36.8213 38.7918 36.3707C38.7918 35.9201 38.7918 35.4695 38.7918 35.0189C38.7918 34.5683 38.7918 34.1176 38.7918 33.667C38.7918 33.2164 38.7918 32.7658 38.7918 32.3152C38.7918 30.9634 38.7918 29.6115 38.7918 28.2597C38.7272 27.8735 38.9854 27.4229 38.5336 27.1654C38.469 27.101 38.4045 27.0366 38.3399 26.9723C37.6299 26.071 37.2427 25.0411 37.2427 23.8824C37.2427 22.9811 37.2427 22.0155 37.2427 21.1143C37.2427 20.4706 37.3072 19.8269 37.4363 19.2475C37.759 17.5738 38.469 16.0932 39.5018 14.7414C40.0181 14.162 40.5345 13.5827 41.1154 13.0677C41.9545 12.424 42.8581 11.909 43.8263 11.4584C44.2781 11.3296 44.7299 11.1365 45.1818 11.0078C46.0209 10.8147 46.8599 10.6859 47.699 10.6859C47.8281 10.6859 47.8927 10.6215 47.8927 10.4928C47.8927 10.1065 47.8927 9.72031 47.8927 9.33407C47.8927 8.88346 47.8927 8.43285 47.8927 7.98224C47.8927 7.8535 48.0218 7.66038 47.699 7.66038C47.1827 7.596 46.7954 7.27414 46.5372 6.8879C46.4727 6.82353 46.4727 6.69478 46.4081 6.63041C46.3436 6.37292 46.3436 6.11543 46.3436 5.85794C46.3436 4.7636 46.3436 3.66926 46.3436 2.57492C46.4081 2.31743 46.4727 2.05993 46.5372 1.80244C46.8599 1.22309 47.3118 0.772475 47.8281 0.386238C48.4736 0.0643729 49.119 0 49.829 0C51.3136 0 52.8627 0 54.3472 0C54.4763 0 54.6054 0 54.7345 0C55.1218 0.0643729 55.5736 0.0643729 55.9609 0C56.6709 0.0643729 57.3809 0.0643729 58.0909 0C58.8009 0 59.4463 0.0643729 60.0918 0.386238C60.4145 0.643729 60.6727 0.836848 60.9309 1.09434C60.9309 1.09434 60.9309 1.15871 60.9954 1.15871C61.1245 1.4162 61.3181 1.6737 61.4472 1.99556C61.5118 2.18868 61.5118 2.3818 61.5763 2.51054C61.5763 3.28302 61.5763 4.05549 61.6409 4.7636C61.5763 4.89234 61.5763 5.02109 61.6409 5.14983C61.5763 5.60044 61.6409 6.11543 61.5763 6.56604V6.63041C61.5763 6.63041 61.5763 6.69478 61.5118 6.69478V6.75916C61.2536 7.14539 60.9309 7.46726 60.4145 7.53163C60.1563 7.596 60.0918 7.66038 60.1563 7.91787C60.1563 8.36848 60.1563 8.81909 60.1563 9.2697C60.1563 9.65594 60.1563 10.0422 60.1563 10.4284C60.1563 10.5572 60.1563 10.6215 60.3499 10.6215C61.189 10.6215 61.9636 10.7503 62.7381 10.879C63.2545 11.0721 63.7063 11.2009 64.2227 11.394C65.7718 12.0377 67.1272 13.0033 68.2245 14.2264C69.0636 15.192 69.6445 16.222 70.1609 17.3807C70.2899 17.8313 70.419 18.2819 70.6127 18.7325C70.6127 18.7969 70.6127 18.8613 70.6127 18.9256C70.9999 21.1143 71.0645 23.303 70.6127 25.4917C70.419 25.9423 70.1609 26.4573 69.8381 26.8435C69.709 27.101 69.3218 27.1654 69.3218 27.5516C69.3218 30.0622 69.3218 32.5083 69.3218 35.0189C69.3218 35.4695 69.3218 35.9201 69.3218 36.3707C69.3218 37.9156 69.3218 39.3962 69.3218 40.9412C69.3218 41.0699 69.3863 41.1343 69.4509 41.1987C69.6445 41.3918 69.7736 41.5849 69.9672 41.778C70.2254 42.2286 70.4836 42.6149 70.6772 43.1299C70.6772 43.1942 70.6772 43.2586 70.7418 43.2586C70.7418 43.323 70.7418 43.4517 70.8063 43.5161C70.8063 43.5805 70.8063 43.5805 70.8063 43.6448C70.8063 43.7736 70.8063 43.838 70.8709 43.9023C70.8709 44.0311 70.8709 44.1598 70.8709 44.2886C70.8709 44.3529 70.8709 44.3529 70.8709 44.4173C70.8709 44.8679 70.8709 45.2542 70.8709 45.7048V45.7691C70.8709 46.2198 70.8709 46.6704 70.8709 47.121V47.1854C70.8709 47.5716 70.8709 48.0222 70.8709 48.4084V48.4728C70.8709 48.9234 70.8709 49.374 70.8709 49.8246V49.889C70.8709 50.2752 70.8709 50.7259 70.8709 51.1121V51.1765C70.8709 51.2408 70.8709 51.3696 70.8709 51.434C70.8063 51.8202 70.8063 52.2064 70.8709 52.5927C70.8709 52.9789 70.8709 53.4295 70.8709 53.8158C70.8709 54.4595 70.7418 54.9101 70.5481 55.3607ZM38.9209 20.7281C38.9209 20.9212 38.9209 21.1787 38.9209 21.3718C38.9209 22.273 38.9209 23.1743 38.9209 24.0755C38.9209 24.3973 38.9854 24.7192 39.0499 24.9767C39.2436 25.6204 39.6954 26.071 40.1472 26.586C40.2763 26.7148 40.4699 26.8435 40.4054 27.101C40.3409 27.4229 40.5345 27.4872 40.7927 27.4872C41.4381 27.4872 42.0836 27.4229 42.729 27.4872C43.2454 27.5516 43.439 27.8735 43.439 28.3241C43.3745 28.7103 43.0518 28.9678 42.5999 28.9678C41.9545 28.9678 41.309 28.9678 40.7281 28.9678C40.5345 28.9678 40.4054 29.0322 40.4699 29.2897C40.4699 29.4828 40.4699 29.6759 40.4699 29.8047C40.4699 32.9589 40.4699 36.1132 40.4699 39.2675C40.4699 39.5893 40.5345 39.6537 40.8572 39.6537C41.2445 39.6537 41.6963 39.6537 42.0836 39.6537C42.3418 39.6537 42.5999 39.6537 42.9227 39.7181C43.2454 39.7825 43.5036 40.1043 43.5036 40.4906C43.5036 40.8768 43.1163 41.1987 42.729 41.1987C42.0836 41.1987 41.4381 41.1987 40.7281 41.1987C40.5345 41.1987 40.3409 41.263 40.4054 41.5205C40.4699 41.7137 40.3409 41.9068 40.1472 42.0355C39.9536 42.1643 39.8245 42.3574 39.6954 42.4861C39.1145 43.0655 38.8563 43.7736 38.8563 44.6104C38.8563 47.5716 38.8563 50.5327 38.8563 53.4939C38.8563 55.0388 40.2763 56.3907 41.7609 56.3907C50.0227 56.3907 58.2845 56.3907 66.4818 56.3907C68.0309 56.3907 69.3863 54.9745 69.3863 53.4295C69.3863 50.4684 69.3863 47.4428 69.3863 44.4817C69.3863 44.0311 69.2572 43.6448 69.1281 43.2586C68.8699 42.7436 68.4827 42.3574 68.0954 41.9711C67.9663 41.8424 67.8372 41.7137 67.8372 41.5205C67.9018 41.1343 67.7081 41.1343 67.3854 41.1343C61.2536 41.1343 55.1218 41.1343 49.0545 41.1343C48.9254 41.1343 48.7963 41.1343 48.6672 41.1343C48.2799 41.0699 47.9572 40.7481 47.9572 40.2974C47.9572 39.9112 48.2799 39.6537 48.7318 39.6537C49.3127 39.6537 49.8936 39.5893 50.4099 39.5893C54.089 39.5893 57.7681 39.5893 61.4472 39.5893C63.4481 39.5893 65.449 39.5893 67.4499 39.5893C67.7727 39.5893 67.8372 39.525 67.8372 39.2031C67.8372 35.9201 67.8372 32.6371 67.8372 29.3541C67.8372 28.9034 67.8372 28.9034 67.3854 28.9034C61.2536 28.9034 55.1218 28.9034 49.0545 28.9034C48.9254 28.9034 48.7963 28.9034 48.7318 28.9034C48.3445 28.8391 48.0218 28.5172 48.0218 28.131C48.0218 27.7447 48.2799 27.4229 48.6672 27.3585C48.8609 27.3585 49.119 27.2941 49.3127 27.2941C55.3799 27.2941 61.3827 27.2941 67.4499 27.2941C67.579 27.2941 67.6436 27.2941 67.7727 27.2941C67.8372 27.2941 67.9663 27.2297 67.9018 27.1654C67.8372 26.6504 68.2245 26.3929 68.4827 26.1354C68.9345 25.6848 69.3218 25.1054 69.3863 24.4617C69.5154 23.4317 69.4509 22.3374 69.4509 21.3074C69.5154 20.1487 69.2572 19.0544 68.8054 17.96C67.6436 15.1276 65.5781 13.3252 62.6736 12.424C61.5118 12.1021 60.2854 12.1021 59.059 12.1021C58.8009 12.1021 58.6718 12.0377 58.6718 11.7159C58.6718 10.4284 58.6718 9.14095 58.6718 7.8535C58.6718 7.596 58.6072 7.53163 58.349 7.53163C55.509 7.53163 52.7336 7.53163 49.8936 7.53163C49.6354 7.53163 49.5709 7.596 49.5709 7.8535C49.5709 9.14095 49.5709 10.4284 49.5709 11.7159C49.5709 11.9734 49.5063 12.1021 49.1836 12.1021C48.4736 12.1021 47.699 12.0377 46.989 12.1665C44.6009 12.4883 42.5354 13.5183 40.9863 15.3851C39.7599 16.8013 39.0499 18.475 38.9209 20.4062C38.8563 20.535 38.8563 20.5993 38.9209 20.7281ZM54.1536 6.11543C56.0254 6.11543 57.9618 6.11543 59.8336 6.11543C60.2854 6.11543 60.2854 6.11543 60.2854 5.60044C60.2854 4.82797 60.2854 3.99112 60.2854 3.21865C60.2854 2.12431 59.7045 1.54495 58.6072 1.54495C55.6381 1.54495 52.669 1.54495 49.7645 1.54495C48.7318 1.54495 48.0863 2.12431 48.0863 3.21865C48.0863 4.05549 48.0863 4.89234 48.0863 5.66482C48.0863 6.1798 48.0218 6.11543 48.5381 6.11543C50.3454 6.11543 52.2818 6.11543 54.1536 6.11543Z" fill="#4606C8"/>
<path d="M48.4736 35.6625C48.4736 36.6925 47.6345 37.5293 46.6018 37.5293C45.5691 37.5293 44.73 36.6925 44.73 35.6625C44.73 34.6325 46.6018 31.4783 46.6018 31.4783C46.6018 31.4783 48.4736 34.6325 48.4736 35.6625Z" fill="#4606C8"/>
<path d="M7.81023 18.6038C8.52023 18.7969 9.10114 19.1187 9.42386 19.7625C9.74659 20.5349 9.68204 21.243 9.16568 21.8868C9.03659 22.0799 8.97204 22.273 8.97204 22.5305C8.9075 24.7836 9.48841 26.8435 10.4566 28.8391C11.2957 30.5771 11.8766 32.4439 12.1348 34.3751C12.3284 35.6626 12.3284 36.95 12.3284 38.3019C12.2639 40.4262 12.0702 42.6149 11.8766 44.7392C11.7475 46.2197 11.4248 47.6359 11.2311 49.1165C11.2311 49.2453 11.2957 49.4384 11.2957 49.5671C11.6184 50.5971 12.0702 51.5627 12.3284 52.5927C12.522 53.5583 12.5866 54.5238 12.522 55.5538C12.522 56.5194 11.6184 57.2919 10.5211 57.2919C7.68113 57.2919 4.84113 57.2919 2.00113 57.2919C0.581134 57.2919 -0.128866 56.1975 -0.0643206 54.6526C0.0647703 52.9145 0.452043 51.2408 1.22659 49.6959C1.35568 49.374 1.35568 49.0521 1.29113 48.7303C1.03295 46.7991 0.710225 44.8679 0.516589 42.9367C0.322952 41.0699 0.193861 39.2031 0.193861 37.3363C0.258407 35.0832 0.645679 32.8945 1.42022 30.8346C1.87204 29.6115 2.38841 28.4528 2.90477 27.2941C3.29204 26.3285 3.55023 25.3629 3.61477 24.3329C3.61477 23.9467 3.67932 23.5605 3.67932 23.2386C3.67932 22.7236 3.61477 22.273 3.29204 21.758C2.5175 20.5349 3.16295 19.0544 4.51841 18.6681C4.58295 18.6681 4.6475 18.6038 4.71204 18.6038C5.74477 18.6038 6.7775 18.6038 7.81023 18.6038ZM2.84023 48.5372C3.61477 48.5372 4.32477 48.5372 4.97023 48.5372C5.16386 48.5372 5.29295 48.5372 5.42204 48.6015C5.80932 48.6659 6.00295 48.9234 6.00295 49.3096C6.00295 49.6959 5.80932 49.9534 5.3575 50.0177C4.71204 50.0821 4.00204 50.0821 3.35659 50.0821C2.64659 50.0821 2.71113 50.0821 2.38841 50.7258C1.74295 52.1421 1.42022 53.6226 1.42022 55.1676C1.42022 55.6182 1.54932 55.7469 2.06568 55.8113C4.19568 55.8113 6.26113 55.8113 8.39113 55.8113C9.03659 55.8113 9.68204 55.8113 10.263 55.8113C10.7148 55.8113 10.8439 55.6826 10.8439 55.232C10.973 54.3951 10.973 53.5583 10.7793 52.7858C10.5211 51.8202 10.1339 50.8546 9.74659 49.889C9.68204 49.6959 9.55295 49.4384 9.6175 49.2453C9.74659 48.2797 9.94023 47.3141 10.0693 46.3485C10.263 44.9967 10.392 43.6448 10.5857 42.293C7.74568 42.293 4.90568 42.293 2.06568 42.293C2.32386 44.3529 2.58204 46.4129 2.84023 48.5372ZM10.1339 32.7658C10.1339 32.7014 10.1339 32.6371 10.1339 32.5727C9.87568 31.8646 9.68204 31.0921 9.35932 30.384C8.9075 29.2897 8.39113 28.2597 8.00386 27.1654C7.42295 25.556 7.35841 23.818 7.35841 22.0799C7.35841 21.6937 7.35841 21.3718 7.74568 21.1143C7.93932 20.9856 8.13295 20.7924 8.00386 20.5349C7.93932 20.2131 7.68113 20.1487 7.42295 20.1487C6.64841 20.1487 5.87386 20.1487 5.09932 20.1487C4.84113 20.1487 4.58295 20.2775 4.51841 20.5349C4.45386 20.7924 4.6475 20.9212 4.77659 21.1143C4.90568 21.3074 5.09932 21.5649 5.09932 21.758C5.09932 22.6593 5.09932 23.5605 5.03477 24.3973C4.97023 25.4917 4.71204 26.5216 4.32477 27.5516C3.74386 28.9034 3.2275 30.2553 2.64659 31.6071C2.5175 31.929 2.45295 32.3152 2.32386 32.7014C5.03477 32.7658 7.55204 32.7658 10.1339 32.7658ZM10.5211 34.3108C7.68113 34.3108 4.90568 34.3108 2.06568 34.3108C1.74295 35.4051 1.67841 39.6537 1.93659 40.6193C4.84113 40.6193 7.74568 40.6193 10.6502 40.6193C10.7793 38.5594 10.9084 36.4351 10.5211 34.3108Z" fill="#4606C8"/>
<path d="M5.09921 38.495C5.61558 38.495 6.13194 38.495 6.6483 38.495C7.10012 38.495 7.42285 38.8169 7.42285 39.2031C7.42285 39.6538 7.10012 39.9756 6.6483 39.9756C5.55103 39.9756 4.5183 39.9756 3.42103 39.9756C2.96921 39.9756 2.64648 39.6538 2.64648 39.2031C2.64648 38.7525 2.96921 38.495 3.42103 38.4307C4.06648 38.495 4.58285 38.495 5.09921 38.495Z" fill="#4606C8"/>
<path d="M9.10101 38.4951C9.61738 38.4951 9.9401 38.7526 9.9401 39.2676C9.9401 39.7182 9.61738 40.0401 9.10101 40.0401C8.58465 40.0401 8.26192 39.7182 8.26192 39.2676C8.19738 38.817 8.58465 38.4951 9.10101 38.4951Z" fill="#4606C8"/>
<path d="M24.9143 58.0001C24.9143 58.0001 24.8498 57.8713 24.7853 57.8713C24.1398 57.8069 23.5589 57.4851 22.978 57.1632C22.9134 57.0988 22.7198 57.0345 22.6553 57.0988C20.3962 57.9357 18.3307 57.0345 17.4916 54.7814C17.0398 53.494 16.8462 52.2065 17.0398 50.8547C17.2334 49.3741 17.4916 47.8935 17.7498 46.3486C18.008 44.7392 18.3953 43.0655 18.2016 41.3919C18.0725 40.3619 17.8789 39.3319 17.6207 38.3663C17.3625 37.4651 17.0398 36.5639 16.7171 35.5983C16.588 35.212 16.588 34.8258 16.588 34.4396C16.588 32.7659 16.5234 31.0922 16.5234 29.4185C16.5234 27.616 16.588 25.7492 16.588 23.9468C16.588 21.8869 17.298 20.02 18.2662 18.2176C18.9762 16.9945 19.6862 15.7714 20.3962 14.5483C20.7834 13.9046 20.848 13.1965 20.9771 12.5528C20.9771 12.4884 21.0416 12.3597 21.0416 12.2953C21.0416 11.9734 21.1707 11.6516 20.9125 11.3297C20.7834 11.1366 20.7189 10.8791 20.7189 10.6216C20.7189 9.72037 20.7189 8.88352 20.7189 7.9823C20.7189 6.63047 21.8162 5.53613 23.1716 5.53613C24.3334 5.53613 25.5598 5.53613 26.7216 5.53613C28.0771 5.53613 29.1743 6.63047 29.1743 7.9823C29.1743 8.88352 29.1743 9.72037 29.1743 10.6216C29.1743 10.8791 29.1098 11.1366 28.9807 11.2653C28.7871 11.5228 28.7871 11.8447 28.8516 12.1022C28.9162 13.3253 29.368 14.3552 30.0134 15.3852C30.9816 16.9945 31.9498 18.6038 32.5953 20.3419C32.9825 21.3719 33.1762 22.4018 33.2407 23.4962C33.3053 25.5561 33.3053 27.5517 33.3698 29.6116C33.3698 31.2853 33.3698 32.8946 33.3053 34.5683C33.3053 35.0833 33.1762 35.6627 32.9825 36.1776C32.4662 37.6582 32.0143 39.0744 31.7562 40.6194C31.5625 41.7137 31.5625 42.8724 31.7562 43.9668C32.0143 45.7692 32.4016 47.5717 32.7243 49.3097C33.0471 51.1765 33.0471 53.0433 32.3371 54.8458C31.8207 56.0045 31.0462 56.9057 29.7553 57.2276C28.9807 57.4207 28.1416 57.292 27.4316 57.0345C27.238 56.9701 27.1734 56.9701 26.9798 57.0988C26.4634 57.4851 25.8825 57.7426 25.1725 57.8069C24.9789 57.8713 24.9143 57.9357 24.9143 58.0001ZM18.0725 35.4052C18.3307 36.1776 18.5889 36.8857 18.7825 37.5938C19.2343 38.9457 19.4925 40.2975 19.5571 41.7781C19.6216 43.323 19.3634 44.868 19.1053 46.3486C18.8471 47.8291 18.5243 49.3097 18.3307 50.7903C18.2016 51.949 18.2662 53.1721 18.718 54.2664C19.0407 55.1033 19.4925 55.8114 20.4607 56.0045C21.1062 56.1333 21.7516 56.0689 22.3325 55.747C22.7843 55.4895 23.1716 55.5539 23.5589 55.9401C24.3334 56.6482 25.0434 56.7126 25.818 56.262C25.9471 56.1976 26.0762 56.1333 26.1407 56.0045C26.528 55.5539 26.9798 55.5539 27.4962 55.8114C27.5607 55.8758 27.6253 55.8758 27.6898 55.9401C28.8516 56.3264 29.9489 56.1976 30.6589 54.9745C31.4334 53.6227 31.498 52.2065 31.3689 50.7259C31.2398 49.4385 30.9171 48.2154 30.7234 46.9279C30.5298 45.5761 30.2716 44.2886 30.2071 42.9368C30.078 41.1344 30.5298 39.3319 31.0462 37.6582C31.2398 36.9501 31.498 36.242 31.7562 35.5339C27.1734 35.4052 22.6553 35.4052 18.0725 35.4052ZM31.8853 34.0533C31.9498 30.8991 31.9498 27.7448 31.8853 24.6549C27.1734 24.6549 22.5262 24.6549 17.8789 24.6549C17.8789 27.8092 17.8789 30.9634 17.8789 34.0533C22.5907 34.0533 27.238 34.0533 31.8853 34.0533ZM30.788 19.6982C30.7234 19.5694 30.7234 19.5051 30.6589 19.4407C30.078 18.4107 29.5616 17.3807 28.9162 16.3508C27.948 14.8058 27.4316 13.1965 27.3671 11.3941C27.3671 11.1366 27.4316 10.9435 27.6253 10.7503C27.6898 10.686 27.7543 10.5572 27.7543 10.4285C27.7543 9.59163 27.7543 8.75478 27.7543 7.91793C27.7543 7.33857 27.3025 6.88796 26.6571 6.82359C25.4307 6.82359 24.2689 6.82359 23.0425 6.82359C22.4616 6.82359 21.9453 7.2742 21.9453 7.91793C21.9453 8.75478 21.9453 9.59163 21.9453 10.4928C21.9453 10.5572 21.9453 10.6216 21.9453 10.686C22.0743 10.686 22.2034 10.686 22.268 10.686C23.2362 10.686 24.1398 10.686 25.108 10.686C25.2371 10.686 25.3016 10.686 25.4307 10.7503C25.7534 10.8147 25.9471 11.1366 25.8825 11.4584C25.818 11.7803 25.5598 12.0378 25.2371 12.0378C24.398 12.0378 23.4943 12.0378 22.6553 12.0378C22.268 12.0378 22.268 12.0378 22.2034 12.424C22.0743 13.3896 21.9453 14.2908 21.4289 15.1277C20.848 16.0933 20.3316 17.0589 19.7507 18.0245C19.428 18.5395 19.1698 19.1188 18.8471 19.6338C22.978 19.6982 26.8507 19.6982 30.788 19.6982ZM17.9434 23.2387C22.6553 23.2387 27.238 23.2387 31.8853 23.2387C31.6916 22.4662 31.5625 21.7581 31.4334 20.9856C27.1089 20.9856 22.7843 20.9856 18.4598 20.9856C18.2662 21.7581 18.0725 22.4662 17.9434 23.2387Z" fill="#4606C8"/>
<path d="M24.9145 33.7315C23.2363 33.7315 21.8809 32.3796 21.8809 30.7059C21.8809 29.3541 23.6881 26.2642 24.2045 25.2986L24.9145 24.1399L25.6245 25.2986C26.2054 26.1998 27.9481 29.3541 27.9481 30.7059C27.9481 32.3796 26.5927 33.7315 24.9145 33.7315ZM24.9145 27.4229C24.1399 28.8391 23.4945 30.2553 23.4945 30.7059C23.4945 31.4784 24.1399 32.1221 24.9145 32.1221C25.689 32.1221 26.3345 31.4784 26.3345 30.7059C26.3345 30.1909 25.689 28.7747 24.9145 27.4229Z" fill="#4606C8"/>
</g>
<defs>
<clipPath id="clip0_270_1645">
<rect width="71" height="58" fill="white"/>
</clipPath>
</defs>
</svg>
