<svg width="71" height="49" viewBox="0 0 71 49" fill="none" xmlns="http://www.w3.org/2000/svg">
<g clip-path="url(#clip0_270_1600)">
<path d="M7.62731 27.0112C7.45907 27.0112 7.29082 26.9553 7.17866 26.8437L0.280551 19.7002C0.168387 19.5328 0.112305 19.3654 0.112305 19.1421C0.168387 18.9747 0.280551 18.8073 0.448798 18.6957L40.8279 2.17631C40.9962 2.1205 41.2205 2.1205 41.3888 2.23212L49.1842 7.98041C49.3524 8.09202 49.4646 8.31526 49.4085 8.53849C49.4085 8.76173 49.2403 8.92915 49.072 9.04077L7.90772 26.9553C7.79556 27.0112 7.73948 27.0112 7.62731 27.0112ZM1.79477 19.5328L7.79556 25.7276L47.67 8.37107L40.9962 3.4041L1.79477 19.5328Z" fill="#4606C8"/>
<path d="M7.8515 34.322C7.68325 34.322 7.51501 34.2661 7.40284 34.1545L0.280411 26.3413C0.168246 26.2297 0.112164 26.1181 0.112164 25.9507L0 19.421C0 19.0862 0.280411 18.8071 0.560821 18.8071C0.897314 18.8071 1.17773 19.0862 1.17773 19.3652L1.28989 25.7274L8.01975 33.0384L48.1185 15.1796L48.1746 8.48255C48.1746 8.1477 48.455 7.86865 48.7915 7.86865C49.128 7.86865 49.4084 8.1477 49.4084 8.48255L49.3523 15.5702C49.3523 15.7935 49.2401 16.0167 49.0158 16.1283L8.13191 34.2661C8.01975 34.322 7.96367 34.322 7.8515 34.322Z" fill="#4606C8"/>
<path d="M7.73981 34.1548C7.40332 34.1548 7.12291 33.8757 7.12291 33.5967L7.01074 26.2858C7.01074 25.9509 7.29115 25.6719 7.57156 25.6719C7.90806 25.6719 8.18847 25.9509 8.18847 26.23L8.30063 33.5409C8.30063 33.8757 8.0763 34.1548 7.73981 34.1548Z" fill="#4606C8"/>
<path d="M35.3878 10.8264C33.5932 12.7797 31.0134 14.1749 25.6856 16.1282C23.9471 16.7979 22.545 17.077 21.4795 17.077C21.2551 17.077 21.0869 17.077 20.8626 17.0212C21.9281 16.7979 23.1058 16.2957 24.2836 15.5702C28.2093 13.1146 32.3033 10.8264 35.3878 10.8264ZM35.4439 9.59863C32.079 9.59863 27.9289 11.8868 23.6667 14.5656C21.9842 15.626 20.6943 15.9608 19.6848 15.9608C17.5537 15.9608 16.7686 14.3982 16.7686 14.3982C17.8341 16.6305 18.8997 18.249 21.4795 18.249C22.6572 18.249 24.1714 17.9141 26.0782 17.1886C32.4155 14.8446 35.3878 13.2262 37.5189 9.93348C36.846 9.71025 36.173 9.59863 35.4439 9.59863Z" fill="#4606C8"/>
<path d="M65.3354 35.2712C65.2793 35.2712 65.2232 35.2712 65.1671 35.2154L49.6324 29.5787C49.4081 29.5229 49.2959 29.2997 49.2959 29.0765V10.827C49.2959 10.6038 49.4081 10.4364 49.6324 10.3248L54.5115 8.25984C54.5115 7.25528 54.3433 3.85096 54.2311 1.67442C54.175 1.50699 54.119 1.00471 54.5115 0.502435C54.9041 -0.0556511 55.521 -0.0556511 55.8014 0.000157544C70.4389 2.39993 70.551 2.62316 70.7193 2.79059C70.9436 3.12544 70.9997 3.73934 70.9997 4.07419V30.3043C70.9997 30.4717 70.9436 30.5833 70.8314 30.6949L65.6719 35.048C65.6158 35.2154 65.4476 35.2712 65.3354 35.2712ZM50.3615 28.7416L65.2232 34.1551L69.9341 30.1368V4.13C69.9341 3.90676 69.9341 3.68353 69.878 3.57191C68.476 3.23706 60.5684 1.89765 55.5771 1.06052C55.521 1.06052 55.4089 1.06052 55.3528 1.11633C55.2406 1.28376 55.2406 1.45118 55.2406 1.50699C55.2406 1.5628 55.2406 1.5628 55.2406 1.61861C55.5771 8.70631 55.521 8.81793 55.2967 8.98535C55.2406 9.04116 55.1845 9.04116 55.1284 9.09697L50.3054 11.1619V28.7416H50.3615Z" fill="#4606C8"/>
<path d="M65.5032 15.2361C65.4471 15.2361 65.3911 15.2361 65.3911 15.2361L49.7441 11.3853C49.4637 11.3295 49.2955 11.0504 49.3516 10.7714C49.4076 10.4924 49.6881 10.3249 49.9685 10.3807L65.3911 14.1757L68.3634 12.1666L54.7915 9.15294C54.5111 9.09714 54.3429 8.81809 54.399 8.53905C54.455 8.26001 54.7355 8.09258 55.0159 8.14839L69.7655 11.3853C69.9898 11.4411 70.102 11.6085 70.158 11.776C70.2141 11.9992 70.102 12.1666 69.9337 12.2782L65.7836 15.0687C65.7276 15.1803 65.6154 15.2361 65.5032 15.2361Z" fill="#4606C8"/>
<path d="M65.84 14.6777H64.7744V34.713H65.84V14.6777Z" fill="#4606C8"/>
<path d="M65.3352 6.92062C65.167 6.92062 65.0548 6.92062 64.9987 6.86481L59.5588 5.91607C59.1101 5.86026 58.8858 5.63702 58.7736 5.4696C58.4932 5.07894 58.5493 4.57666 58.6054 4.186C58.7736 3.34887 59.8392 3.29306 60.7365 3.40468C61.0169 2.84659 61.5777 2.2327 62.4189 2.34431C63.4845 2.45593 63.9332 3.40468 64.3257 4.13019C65.3913 4.35343 66.6251 4.68828 66.569 5.80445C66.569 6.25092 66.3447 6.47415 66.1765 6.58577C65.896 6.86481 65.5595 6.92062 65.3352 6.92062ZM59.6148 4.52085C59.5588 4.79989 59.6148 4.8557 59.6148 4.8557C59.6148 4.8557 59.6709 4.8557 59.727 4.91151L65.167 5.86026C65.2791 5.86026 65.3913 5.86026 65.4474 5.86026C65.4474 5.52541 64.2697 5.30217 63.7649 5.19056L63.4845 5.13475L63.3723 4.74409C63.0359 3.96276 62.7554 3.46049 62.2507 3.40468C61.802 3.34887 61.5777 4.13019 61.5216 4.13019L61.4095 4.57666L60.9608 4.52085C60.4561 4.40923 59.8392 4.40923 59.6148 4.52085Z" fill="#4606C8"/>
<path d="M19.741 49.0001C19.0119 49.0001 17.1051 47.6049 16.376 47.0468L14.2449 47.2142L7.06641 37.5593L7.62723 37.3919C8.3563 37.1687 9.19753 36.9454 9.47794 36.778C9.98268 35.4386 11.4408 32.9272 11.553 32.8156L11.6651 32.6482L11.8334 32.5924C14.5814 32.0343 38.8089 27.2905 39.538 27.2905C40.4353 27.2905 40.94 27.8486 40.9961 27.8486L43.0151 29.8577L45.3705 29.6903L54.3997 38.3406L53.7268 38.5081C52.7173 38.7313 51.6517 39.0662 51.3152 39.1778C50.5301 40.6846 48.3429 43.0286 48.0064 43.2518C47.3895 43.6425 19.9653 49.0001 19.741 49.0001ZM16.6565 46.2655L16.7686 46.3771C17.9463 47.27 19.4045 48.2746 19.741 48.2746C20.5822 48.2188 45.9313 43.0844 47.4456 42.6937C47.7821 42.3589 49.801 40.2381 50.474 38.8987C50.474 38.6755 50.6983 38.5639 52.7173 38.0616L44.9779 30.5832L42.6225 30.8065L40.3231 28.5183C40.3231 28.5183 39.9866 28.1835 39.4258 28.1835C38.6967 28.2393 19.6288 31.9226 12.1138 33.4295C11.7773 34.0434 10.5996 36.1083 10.207 37.1687C10.0948 37.3919 10.0948 37.5035 8.3563 38.0058L14.6375 46.4329L16.6565 46.2655Z" fill="#4606C8"/>
<path d="M12.8527 34.021L12.2568 34.5298L19.0132 42.3651L19.609 41.8563L12.8527 34.021Z" fill="#4606C8"/>
<path d="M19.6287 49.0001C18.0584 48.5536 16.8807 46.098 16.8807 45.9864L16.7686 45.819L16.8807 45.6515C18.7314 42.7495 21.5355 41.3543 21.6477 41.2985L21.7599 41.2426C24.0592 40.7404 44.0245 36.1641 46.2117 36.1641H46.2678C48.2306 36.2757 50.3618 37.8941 50.4739 38.0057L50.7543 38.229L47.8381 43.1401L47.1651 42.7495L49.6888 38.4522C49.0719 38.0057 47.5577 37.057 46.2117 37.0012H46.1556C44.4171 37.0012 28.2093 40.6288 21.9281 42.024C21.5916 42.1914 19.2362 43.475 17.6659 45.8748C18.0584 46.6003 18.8997 47.9955 19.8531 48.2187L19.6287 49.0001Z" fill="#4606C8"/>
<path d="M40.8281 28.5181L50.2499 37.8939" stroke="#4606C8" stroke-width="1.4173" stroke-miterlimit="10"/>
<path d="M9.75863 37.1128L16.9932 45.9306L14.4695 46.8235L7.68359 37.7825L9.75863 37.1128Z" fill="#4606C8" stroke="#4606C8" stroke-width="1.4173" stroke-miterlimit="10"/>
<path d="M45.1458 30.1924L53.5581 38.173L50.8101 39.066L42.6221 30.3598L45.1458 30.1924Z" fill="#4606C8" stroke="#4606C8" stroke-width="1.4173" stroke-miterlimit="10"/>
<path d="M25.742 38.1171C24.7325 38.1171 23.723 37.7265 22.9939 37.1126C22.0405 37.1126 21.0871 36.6103 20.6946 35.8848C20.4702 35.4941 20.4702 35.0477 20.6385 34.657C20.8067 34.3221 21.0871 34.0431 21.4797 33.8757C21.5358 32.9269 22.3209 32.1456 23.5548 31.9782L34.4908 30.1365C36.0611 29.8575 37.8557 30.6388 38.5287 31.9224L39.2017 33.206C39.5382 33.8199 39.5382 34.4338 39.2578 34.9918C38.9213 35.6057 38.2483 36.0522 37.407 36.2196L26.3589 38.0613C26.1906 38.1171 25.9663 38.1171 25.742 38.1171ZM23.3304 36.2754L23.4426 36.3871C24.1156 37.0568 25.2933 37.4474 26.2467 37.28L37.1827 35.4383C37.7996 35.3267 38.2483 35.0477 38.4726 34.657C38.6409 34.3221 38.6409 33.9873 38.4165 33.5966L37.7435 32.313C37.2388 31.3643 35.7807 30.7504 34.5469 30.9178L23.6108 32.7595C22.7135 32.9269 22.1527 33.485 22.2088 34.1547L22.2649 34.4896L21.9284 34.5454C21.648 34.6012 21.4236 34.7686 21.3115 34.936C21.1993 35.1035 21.3115 35.3267 21.3675 35.4383C21.648 35.9406 22.377 36.2754 23.1061 36.2196L23.3304 36.2754Z" fill="#4606C8"/>
</g>
<defs>
<clipPath id="clip0_270_1600">
<rect width="71" height="49" fill="white"/>
</clipPath>
</defs>
</svg>
