<svg width="20" height="20" viewBox="0 0 20 20" fill="none" xmlns="http://www.w3.org/2000/svg">
<path d="M14.5417 18.9583C13.6001 18.9583 12.6084 18.7333 11.5834 18.3C10.5834 17.875 9.57508 17.2917 8.59175 16.5833C7.61675 15.8667 6.67508 15.0667 5.78341 14.1917C4.90008 13.3 4.10008 12.3583 3.39175 11.3917C2.67508 10.3917 2.10008 9.39166 1.69175 8.42499C1.25841 7.39166 1.04175 6.39166 1.04175 5.44999C1.04175 4.79999 1.15841 4.18332 1.38341 3.60832C1.61675 3.01666 1.99175 2.46666 2.50008 1.99166C3.14175 1.35832 3.87508 1.04166 4.65842 1.04166C4.98342 1.04166 5.31675 1.11666 5.60008 1.24999C5.92508 1.39999 6.20008 1.62499 6.40008 1.92499L8.33342 4.64999C8.50842 4.89166 8.64175 5.12499 8.73341 5.35832C8.84175 5.60832 8.90008 5.85832 8.90008 6.09999C8.90008 6.41666 8.80841 6.72499 8.63341 7.01666C8.50841 7.24166 8.31675 7.48332 8.07508 7.72499L7.50842 8.31666C7.51675 8.34166 7.52508 8.35832 7.53341 8.37499C7.63342 8.54999 7.83341 8.84999 8.21675 9.29999C8.62508 9.76666 9.00842 10.1917 9.39175 10.5833C9.88342 11.0667 10.2917 11.45 10.6751 11.7667C11.1501 12.1667 11.4584 12.3667 11.6417 12.4583L11.6251 12.5L12.2334 11.9C12.4917 11.6417 12.7417 11.45 12.9834 11.325C13.4417 11.0417 14.0251 10.9917 14.6084 11.2333C14.8251 11.325 15.0584 11.45 15.3084 11.625L18.0751 13.5917C18.3834 13.8 18.6084 14.0667 18.7417 14.3833C18.8667 14.7 18.9251 14.9917 18.9251 15.2833C18.9251 15.6833 18.8334 16.0833 18.6584 16.4583C18.4834 16.8333 18.2667 17.1583 17.9917 17.4583C17.5167 17.9833 17.0001 18.3583 16.4001 18.6C15.8251 18.8333 15.2001 18.9583 14.5417 18.9583ZM4.65842 2.29166C4.20008 2.29166 3.77508 2.49166 3.36675 2.89166C2.98341 3.24999 2.71675 3.64166 2.55008 4.06666C2.37508 4.49999 2.29175 4.95832 2.29175 5.44999C2.29175 6.22499 2.47508 7.06666 2.84175 7.93332C3.21675 8.81666 3.74175 9.73332 4.40841 10.65C5.07508 11.5667 5.83342 12.4583 6.66675 13.3C7.50008 14.125 8.40008 14.8917 9.32508 15.5667C10.2251 16.225 11.1501 16.7583 12.0667 17.1417C13.4917 17.75 14.8251 17.8917 15.9251 17.4333C16.3501 17.2583 16.7251 16.9917 17.0667 16.6083C17.2584 16.4 17.4084 16.175 17.5334 15.9083C17.6334 15.7 17.6834 15.4833 17.6834 15.2667C17.6834 15.1333 17.6584 15 17.5917 14.85C17.5667 14.8 17.5167 14.7083 17.3584 14.6L14.5917 12.6333C14.4251 12.5167 14.2751 12.4333 14.1334 12.375C13.9501 12.3 13.8751 12.225 13.5917 12.4C13.4251 12.4833 13.2751 12.6083 13.1084 12.775L12.4751 13.4C12.1501 13.7167 11.6501 13.7917 11.2667 13.65L11.0417 13.55C10.7001 13.3667 10.3001 13.0833 9.85841 12.7083C9.45842 12.3667 9.02508 11.9667 8.50008 11.45C8.09175 11.0333 7.68341 10.5917 7.25842 10.1C6.86675 9.64166 6.58342 9.24999 6.40841 8.92499L6.30841 8.67499C6.25842 8.48332 6.24175 8.37499 6.24175 8.25832C6.24175 7.95832 6.35008 7.69166 6.55841 7.48332L7.18341 6.83332C7.35008 6.66666 7.47508 6.50832 7.55841 6.36666C7.62508 6.25832 7.65008 6.16666 7.65008 6.08332C7.65008 6.01666 7.62508 5.91666 7.58342 5.81666C7.52508 5.68332 7.43341 5.53332 7.31675 5.37499L5.38341 2.64166C5.30008 2.52499 5.20008 2.44166 5.07508 2.38332C4.94175 2.32499 4.80008 2.29166 4.65842 2.29166ZM11.6251 12.5083L11.4917 13.075L11.7167 12.4917C11.6751 12.4833 11.6417 12.4917 11.6251 12.5083Z" fill="#4606C8"/>
</svg>
