<svg width="69" height="59" viewBox="0 0 69 59" fill="none" xmlns="http://www.w3.org/2000/svg">
<g clip-path="url(#clip0_270_1512)">
<path d="M14.8626 17.1042C14.5045 16.7466 14.0867 16.389 13.7285 16.0315C13.1913 15.4355 12.7735 14.78 12.7138 14.0052C12.6541 12.9325 13.6092 12.1577 14.6836 12.3961C15.1014 12.4557 15.5192 12.5749 15.9967 12.6941C16.5339 11.5618 17.3695 10.9658 18.623 11.1446C19.2796 11.2042 19.9958 11.8002 20.1749 12.9325C20.4734 12.7537 20.7121 12.5749 20.9509 12.3961C21.2493 12.2173 21.5477 11.9789 21.8462 11.8002C22.7415 11.3234 23.5772 11.4426 24.3531 12.0981C24.7709 12.4557 25.1291 12.9325 25.4275 13.3497C25.7856 13.8264 25.6066 14.2436 25.1291 14.482C24.2337 14.8991 23.3384 15.2567 22.4431 15.6739C22.3834 15.7335 22.264 15.7335 22.1446 15.7931C22.5625 16.1507 22.6221 16.5678 22.4431 17.1042C22.8012 17.1638 23.1593 17.2234 23.4578 17.2234C25.4275 17.4618 27.3972 17.8193 29.3073 18.5345C30.322 18.8921 31.3367 19.4284 32.1126 20.2032C32.9483 21.0375 33.4855 22.0507 33.8436 23.1234C34.3211 24.4345 34.5599 25.8052 34.7389 27.1759C35.0374 29.2618 35.1567 31.4072 35.2761 33.5527C35.3955 35.9961 35.5746 38.4991 35.6939 40.9426C35.8133 42.7305 35.873 44.5183 35.9924 46.3062C36.0521 46.9618 36.0521 47.5577 36.1118 48.2133C36.1715 48.6901 36.4102 48.988 36.7086 49.286C37.0071 49.584 37.4249 49.8224 37.604 50.2991C38.0815 51.4315 37.4846 52.6234 36.2908 52.8618C35.5149 52.981 34.7389 53.1002 33.9033 53.1002C32.1723 53.2193 30.4413 53.2193 28.7104 53.2789C27.3375 53.3385 25.905 53.3981 24.5322 53.3981C21.8462 53.4577 19.2199 53.5173 16.5339 53.5173C14.1464 53.5173 11.6991 53.3385 9.31159 53.2789C7.22249 53.2193 5.13339 53.1598 3.04429 53.0406C2.4474 53.0406 1.91021 52.9214 1.31332 52.8022C0.597057 52.6234 0.0598595 52.1466 -0.0595177 51.4315C-0.238583 50.7163 0.000170879 50.0608 0.597057 49.584C0.776122 49.4052 1.01488 49.286 1.13425 49.0476C1.37301 48.7497 1.55207 48.4517 1.55207 48.0941C1.73114 47.081 1.79083 46.0082 1.91021 44.9951C1.96989 43.982 2.02958 42.9688 2.08927 42.0153C2.14896 40.883 2.20865 39.7507 2.26834 38.6183C2.38771 36.9497 2.4474 35.281 2.56678 33.6123C2.62647 32.5991 2.68616 31.5264 2.74585 30.5133C2.92491 28.1294 3.16367 25.7456 3.87993 23.4214C4.23806 22.2294 4.77526 21.1567 5.6109 20.2628C6.50623 19.3688 7.58062 18.8325 8.77439 18.4153C10.2069 17.8789 11.6394 17.581 13.1317 17.4022C13.6689 17.3426 14.2061 17.283 14.7432 17.1638C14.7432 17.1638 14.8029 17.1042 14.8626 17.1042ZM18.5633 52.683C19.6377 52.683 20.8315 52.6234 22.0849 52.6234C23.4578 52.5638 24.7709 52.5638 26.1438 52.5042C29.0088 52.385 31.9336 52.2658 34.7986 52.1466C35.2761 52.1466 35.8133 52.0274 36.2908 51.9082C36.7086 51.789 36.9474 51.4911 36.9474 51.0739C36.9474 50.5971 36.649 50.2991 36.2908 50.0012C35.6939 49.5244 35.2761 48.9284 35.2164 48.0941C35.0971 46.783 35.0374 45.4719 34.9777 44.1012C34.918 42.9092 34.8583 41.7769 34.7986 40.585C34.7389 39.4527 34.6792 38.2608 34.6195 37.1284C34.5599 35.9365 34.5002 34.7446 34.4405 33.5527C34.3808 32.4204 34.3211 31.288 34.2017 30.1557C34.0824 28.8446 33.9033 27.5931 33.7242 26.3416C33.5452 25.1497 33.3064 23.8981 32.8289 22.7658C32.2917 21.4547 31.5157 20.382 30.2026 19.786C29.3073 19.3688 28.4119 19.0709 27.5166 18.7729C25.9647 18.2961 24.2934 18.0577 22.6818 17.8789C21.9656 17.8193 21.2493 17.7598 20.533 18.0577C19.0408 18.5941 17.4889 18.5941 15.9967 17.9385C15.8773 17.8789 15.758 17.8789 15.6386 17.8789C14.3851 18.0577 13.072 18.2365 11.8185 18.4749C10.6247 18.7133 9.43097 19.0113 8.29688 19.5476C7.1628 20.0244 6.14809 20.7396 5.55121 21.8719C5.13339 22.7062 4.77526 23.5406 4.5365 24.4345C4.11868 26.282 3.82024 28.189 3.70086 30.0961C3.58149 31.6456 3.46211 33.1355 3.40242 34.685C3.34273 35.7577 3.28304 36.8305 3.22335 37.9032C3.10398 39.5719 3.04429 41.3002 2.92491 42.9688C2.80553 44.6375 2.74585 46.3062 2.62647 47.9153C2.56678 48.6901 2.26834 49.3456 1.73114 49.882C1.55207 50.0012 1.37301 50.18 1.25363 50.2991C0.776122 50.7759 0.955188 51.5507 1.55207 51.7295C1.96989 51.8486 2.38771 51.9678 2.80553 51.9678C3.82024 52.0274 4.83495 52.087 5.84965 52.1466C7.7 52.2062 9.55034 52.2658 11.4007 52.385C13.6689 52.5638 16.0564 52.6234 18.5633 52.683ZM21.7268 16.6274C21.5478 16.4486 21.3687 16.3295 21.2493 16.2103C20.8912 15.8527 21.0702 15.3163 21.4881 15.0779C22.264 14.7204 22.9803 14.4224 23.7562 14.0648C24.0547 13.9456 24.2934 13.8264 24.6516 13.6476C24.3531 13.3497 24.1144 13.0517 23.8159 12.7537C23.3981 12.3961 22.9206 12.2769 22.4431 12.6345C22.2043 12.7537 21.9656 12.9325 21.7865 13.0517C21.1896 13.4688 20.6524 13.886 19.9362 14.0052C19.5183 14.0648 19.2199 13.7668 19.3393 13.3497C19.3393 13.2901 19.3393 13.2305 19.399 13.1709C19.5183 12.6345 19.2199 12.1577 18.6827 12.0385C17.9067 11.9193 17.0114 12.5153 17.0114 13.2305C17.0114 13.6476 16.713 13.886 16.2952 13.7668C15.758 13.6476 15.2208 13.4688 14.6239 13.3497C14.027 13.2305 13.6092 13.588 13.7882 14.2436C13.9076 14.7204 14.1464 15.1375 14.5045 15.4951C15.0417 15.9719 15.5192 16.5082 16.0564 16.985C16.4145 17.283 16.8323 17.4022 17.3099 17.5214C17.3099 17.283 17.3099 17.1638 17.2502 17.0446C16.9517 16.2699 16.6533 15.4951 16.3548 14.7204C16.2355 14.482 16.2952 14.3032 16.5339 14.1244C16.713 13.9456 16.9517 14.0052 17.1308 14.184C17.2502 14.2436 17.2502 14.4224 17.3099 14.5416C17.7277 15.4951 18.0858 16.4486 18.5036 17.4618C18.5633 17.581 18.623 17.7002 18.7424 17.6406C18.8021 17.6406 18.8618 17.5214 18.8618 17.4022C18.9811 16.687 19.1005 15.9123 19.2199 15.1971C19.2796 14.8991 19.5183 14.7204 19.7571 14.78C20.0555 14.8396 20.1749 15.0183 20.1749 15.3163C20.1749 15.4355 20.1749 15.4951 20.1152 15.6143C19.9958 16.2103 19.9362 16.8658 19.8168 17.5214C20.533 17.2234 21.1896 17.1638 21.7268 16.6274Z" fill="#4606C8"/>
<path d="M26.9198 25.5669C26.502 25.5669 26.0842 25.2094 25.6664 24.8518C24.592 23.8983 23.7563 22.7659 22.9207 21.6336C22.3835 20.8589 21.906 20.0841 21.3688 19.3094C21.1897 19.0114 21.1897 18.7134 21.4882 18.5942C21.7269 18.4154 21.9657 18.475 22.2044 18.773C23.1594 20.0841 24.0548 21.4548 25.0695 22.7063C25.547 23.3023 26.1439 23.8387 26.6811 24.375C26.9198 24.6134 27.0392 24.6134 27.278 24.375C27.457 24.1962 27.6361 24.1962 27.8748 24.3154C28.0539 24.4346 28.1136 24.673 28.0539 24.9114C27.8152 25.3286 27.457 25.5669 26.9198 25.5669Z" fill="#4606C8"/>
<path d="M19.8166 23.0637C19.7569 24.3748 19.8166 25.3284 19.5181 26.2223C19.3391 26.8183 19.0406 27.2354 18.3841 27.3546C18.205 27.3546 18.0259 27.3546 17.8469 27.295C17.6081 27.2354 17.4887 26.9375 17.5484 26.6991C17.6081 26.4607 17.8469 26.2819 18.0856 26.3415C18.2647 26.4011 18.3841 26.3415 18.3841 26.1627C18.5034 25.8647 18.6228 25.5072 18.6228 25.2092C18.6825 24.1961 18.6825 23.1233 18.6825 22.1102C18.6825 21.3354 18.5631 20.5011 18.4437 19.7264C18.3841 19.3688 18.5631 19.1304 18.8616 19.0708C19.1003 19.0708 19.4584 19.3092 19.4584 19.6072C19.6375 20.9183 19.7569 22.2294 19.8166 23.0637Z" fill="#4606C8"/>
<path d="M10.2666 25.5074C9.96815 25.5074 9.61002 25.269 9.49064 24.9114C9.43096 24.7326 9.49065 24.4347 9.66971 24.3155C9.84878 24.1963 10.1472 24.1963 10.2666 24.3751C10.4457 24.6135 10.6247 24.5539 10.8038 24.4347C11.2216 24.0175 11.6991 23.6599 12.0573 23.1832C13.251 21.8124 14.2657 20.3225 15.2207 18.773C15.3401 18.5943 15.4595 18.4155 15.6983 18.4751C16.0564 18.5347 16.2355 18.8326 16.0564 19.1306C15.2207 20.3225 14.4448 21.5145 13.6092 22.7064C13.072 23.4811 12.4154 24.1963 11.6394 24.7922C11.2813 25.1498 10.9232 25.4478 10.2666 25.5074Z" fill="#4606C8"/>
<path d="M19.0407 49.405C13.3106 49.405 8.59521 44.7565 8.59521 38.9757C8.59521 33.1949 13.2509 28.5464 19.0407 28.5464C24.8305 28.5464 29.4862 33.1949 29.4862 38.9757C29.4862 44.7565 24.7708 49.405 19.0407 49.405ZM19.0407 29.6191C13.8478 29.6191 9.66961 33.7908 9.66961 38.9757C9.66961 44.1605 13.8478 48.3322 19.0407 48.3322C24.2336 48.3322 28.4118 44.1605 28.4118 38.9757C28.4118 33.7908 24.1739 29.6191 19.0407 29.6191Z" fill="#4606C8"/>
<path d="M46.5572 57.0931C43.8115 57.0931 41.603 54.888 41.603 52.1466V6.85369C41.603 4.11228 43.8115 1.90723 46.5572 1.90723C49.3029 1.90723 51.5113 4.11228 51.5113 6.85369V52.1466C51.5113 54.888 49.3029 57.0931 46.5572 57.0931ZM46.5572 3.21834C44.5278 3.21834 42.8565 4.88702 42.8565 6.91329V52.2062C42.8565 54.2325 44.5278 55.9012 46.5572 55.9012C48.5866 55.9012 50.2579 54.2325 50.2579 52.2062V6.91329C50.2579 4.82743 48.5866 3.21834 46.5572 3.21834Z" fill="#4606C8"/>
<path d="M48.7656 59.0002H44.3486L46.5571 55.186L48.7656 59.0002Z" fill="#4606C8"/>
<path d="M46.5571 3.81414L44.3486 0H48.7656L46.5571 3.81414Z" fill="#4606C8"/>
<path d="M46.9152 34.5659C45.1842 34.5659 43.7517 33.1952 43.2145 31.1093H41.6626V27.8911H43.2145C43.7517 25.8053 45.1842 24.4346 46.9152 24.4346C48.6462 24.4346 50.0787 25.8053 50.6159 27.8911H51.5112V31.1093H50.6159C50.0787 33.1356 48.6462 34.5659 46.9152 34.5659ZM42.9161 29.8578H44.2889L44.3486 30.3942C44.647 32.0629 45.7214 33.3144 46.9152 33.3144C48.109 33.3144 49.1834 32.0629 49.4818 30.3942L49.5415 29.8578H50.1981V29.2022H49.5415L49.4818 28.6063C49.1834 26.9376 48.109 25.6861 46.9152 25.6861C45.7214 25.6861 44.647 26.9376 44.3486 28.6063L44.2889 29.1427H42.9161V29.8578Z" fill="#4606C8"/>
<path d="M62.315 56.7949C58.6143 56.7949 55.6299 54.5899 55.6299 51.9081V7.21109C55.6299 4.52927 58.6143 2.32422 62.315 2.32422C66.0157 2.32422 69.0001 4.52927 69.0001 7.21109V51.9081C69.0001 54.5899 66.0157 56.7949 62.315 56.7949ZM62.315 3.57573C59.3306 3.57573 56.8833 5.18483 56.8833 7.21109V51.9081C56.8833 53.8747 59.3306 55.5434 62.315 55.5434C65.2994 55.5434 67.7467 53.9343 67.7467 51.9081V7.21109C67.7467 5.18483 65.2994 3.57573 62.315 3.57573Z" fill="#4606C8"/>
<path d="M65.2395 58.7022H59.4497L62.3744 55.186L65.2395 58.7022ZM62.1357 57.4507H62.5535L62.3148 57.2123L62.1357 57.4507Z" fill="#4606C8"/>
<path d="M62.3149 3.93315L59.3901 0.416992H65.1799L62.3149 3.93315ZM62.1358 1.66851L62.3746 1.90689L62.6133 1.66851H62.1358Z" fill="#4606C8"/>
<path d="M62.7924 38.2604C60.4048 38.2604 58.3754 35.6978 57.7786 31.9433H55.6895V27.116H57.7786C58.4351 23.3615 60.4048 20.7988 62.7924 20.7988C65.1799 20.7988 67.2093 23.3615 67.8062 27.116H69V31.9433H67.8062C67.2093 35.6978 65.1799 38.2604 62.7924 38.2604ZM56.9429 30.6918H58.9126L58.9723 31.2281C59.3901 34.5655 61.0017 36.9493 62.8521 36.9493C64.7024 36.9493 66.314 34.5655 66.7318 31.2281L66.7915 30.6918H67.8062V28.4271H66.7915L66.7318 27.8907C66.314 24.5534 64.7024 22.1695 62.8521 22.1695C61.0017 22.1695 59.3901 24.5534 58.9723 27.8907L58.9126 28.4271H56.9429V30.6918Z" fill="#4606C8"/>
<path fill-rule="evenodd" clip-rule="evenodd" d="M21.0702 43.6841V44.6376H20.1151L19.6376 44.2204V45.1144L18.9214 45.8295L18.2051 45.1144V44.2204L17.7873 44.6376H16.7726V43.6841L18.2051 42.2538V40.3467L16.6532 41.2406L16.1757 43.1477L15.2804 43.6245L14.8029 42.7901L14.9222 42.1942L13.9672 42.7901L13.0122 42.4922L13.251 41.5386L14.2657 41.0023L13.6688 40.8235L13.1316 39.9891L14.0269 39.5124L15.9966 39.9891L17.5485 39.0952L15.9966 38.2012L14.0269 38.7376L13.1913 38.2608L13.6688 37.3669L14.2657 37.2477L13.3106 36.6517L13.0122 35.6982L13.9672 35.4598L14.9819 35.9962L14.8029 35.4598L15.3401 34.5659L16.1757 35.0427L16.7129 37.0093L18.2051 37.9033V36.1154L16.7726 34.7447V33.7315H17.7873L18.2051 34.1487V33.0164L18.9214 32.3608L19.6376 33.0164V34.1487L20.1151 33.7315H21.0702V34.7447L19.6376 36.1154V37.9033L21.3089 36.9497L21.8461 34.9831L22.7414 34.5063L23.219 35.3406L23.0399 35.9366L23.8755 35.5194L24.8305 35.7578L24.5321 36.7113L23.7562 37.1881L24.353 37.3073L24.8902 38.2012L23.9949 38.678L22.0252 38.1416L20.3539 39.0952L22.0849 40.0487L24.0546 39.572L24.8902 40.0487L24.4127 40.8831L23.8158 41.0619L24.5918 41.479L24.8305 42.4326L23.8755 42.7305L23.0996 42.2538L23.2786 42.8497L22.7414 43.6841L21.9058 43.2073L21.3686 41.3002L19.6376 40.2871V42.2538L21.0702 43.6841Z" fill="#4606C8"/>
</g>
<defs>
<clipPath id="clip0_270_1512">
<rect width="69" height="59" fill="white"/>
</clipPath>
</defs>
</svg>
