<svg width="69" height="55" viewBox="0 0 69 55" fill="none" xmlns="http://www.w3.org/2000/svg">
<g clip-path="url(#clip0_270_1442)">
<path d="M62.2506 55.0001C61.7082 55.0001 61.1056 55.0001 60.5632 54.94C60.1414 54.94 59.7196 54.8799 59.2977 54.8799C57.7912 54.8799 56.2244 54.8198 54.1152 54.8198C53.0907 54.8198 52.0663 54.8198 50.9816 54.8198C48.9929 54.8198 47.0645 54.8198 45.0759 54.8198C42.3641 54.8198 40.4357 53.0766 40.1344 50.4919C39.8934 48.2078 39.9536 46.5247 40.1947 45.2023C40.3152 44.6613 40.5562 44.3006 40.7973 44.0001C40.9178 43.8198 41.0383 43.6394 41.1589 43.399C41.3397 42.9181 41.1589 42.1968 41.0383 41.5356C40.9781 41.2952 40.9178 40.9946 40.9178 40.7542C40.496 37.9892 40.3152 35.5848 40.3755 33.3608C40.496 28.6722 40.8576 24.7651 42.2436 20.9181C43.8707 16.2897 45.9196 13.2843 48.7519 11.0602C49.4148 10.5192 50.4392 10.1586 51.4034 10.0985C53.4523 9.97825 55.5012 9.97825 57.4899 10.0985C58.5746 10.1586 59.599 10.5192 60.3824 11.0001C64.1187 13.5848 66.5894 17.4318 67.9152 22.7214C68.6383 25.6067 68.9999 28.7925 68.9999 32.1586C68.9999 33.6613 68.8794 35.2241 68.7589 36.9072C68.6986 37.2078 68.6986 37.5684 68.6986 37.9291C68.6383 39.1313 68.5781 40.5138 68.0357 41.5356C67.5536 42.5575 67.6139 43.4591 67.9755 44.9017C68.5178 47.0056 68.2768 49.3498 68.0357 51.1531C67.8549 52.4154 67.0715 53.4974 65.806 54.1586C64.7213 54.8799 63.4558 55.0001 62.2506 55.0001ZM54.3562 53.4974C56.3449 53.4974 57.9117 53.4974 59.358 53.5575C59.7798 53.5575 60.2017 53.6176 60.6235 53.6176C62.1903 53.6777 63.8776 53.7979 65.2034 53.0766C66.0471 52.6558 66.5894 51.9345 66.71 51.1531C66.951 49.47 67.1318 47.3061 66.6497 45.4427C66.2881 44.0602 65.9868 42.6777 66.7702 41.1149C67.1921 40.3334 67.2523 39.0711 67.3126 38.0493C67.3126 37.6886 67.3728 37.328 67.3728 36.9673C67.5536 35.3444 67.6139 33.7815 67.6139 32.3389C67.6139 29.093 67.3126 26.0875 66.5894 23.2624C65.3239 18.3334 63.034 14.787 59.599 12.3225C59.0567 11.9619 58.213 11.6613 57.4296 11.6613C55.5012 11.5411 53.5126 11.5411 51.5239 11.6613C50.861 11.7214 50.1379 11.9619 49.6558 12.3225C47.0043 14.3662 45.1362 17.1914 43.5693 21.5192C42.2436 25.1859 41.9423 28.9728 41.7615 33.5411C41.7012 35.6449 41.882 37.9892 42.3038 40.6941C42.3641 40.9345 42.3641 41.1149 42.4244 41.3553C42.6052 42.1968 42.7859 43.0985 42.4846 43.94C42.3641 44.3007 42.1833 44.6012 42.0025 44.8416C41.8217 45.0821 41.7012 45.3225 41.641 45.5629C41.3999 46.7651 41.3999 48.328 41.5807 50.4318C41.8217 52.2952 43.268 53.4974 45.1964 53.4974C47.1248 53.4974 49.1134 53.4974 51.0418 53.4974C52.0663 53.4974 53.0907 53.4974 54.1755 53.4974C54.2357 53.4974 54.296 53.4974 54.3562 53.4974ZM53.5126 53.317C50.4392 53.317 46.8235 52.6558 44.6541 50.1914C43.9912 49.4099 43.6296 48.5083 43.6899 47.6067C43.7501 46.5247 44.2925 45.4427 45.2567 44.5411C43.9912 41.5356 43.3886 37.5083 43.3283 34.8635C43.2078 31.7979 43.6296 28.4318 43.9912 26.5083C44.4733 23.9236 45.558 22.0602 47.1851 20.858C48.9929 19.5356 51.6445 18.9946 54.3562 19.4154C55.7423 19.5957 58.4541 20.858 58.9964 23.0821C59.2977 24.4045 58.8759 25.787 58.5143 26.9291C58.4541 27.1695 58.3938 27.4099 58.2733 27.5903C57.7912 29.2733 57.4296 30.6558 57.1886 31.9782C56.5257 35.3444 56.5859 38.2897 57.2488 40.8744C57.5501 41.8963 57.7912 42.317 58.8156 42.4974C59.8401 42.6777 65.0226 43.94 65.4445 47.3061C65.7458 49.8908 63.3955 51.8143 58.8156 52.7761C57.7912 53.0165 55.8025 53.317 53.5126 53.317ZM52.6086 20.6777C51.2829 20.6777 49.475 20.9181 47.9685 22.0001C46.6427 22.9619 45.7388 24.5247 45.3169 26.7487C44.9554 28.6121 44.5938 31.7979 44.7143 34.8034C44.8348 37.4482 45.3772 41.5356 46.7632 44.3608L47.0043 44.8416L46.5824 45.2023C45.6785 45.9837 45.1362 46.8854 45.0759 47.6668C45.0156 48.2679 45.2567 48.7487 45.6785 49.2296C48.33 52.2351 54.0549 52.2952 58.5143 51.3935C60.2619 51.0329 64.3597 49.8908 64.0584 47.4263C63.8174 45.4427 60.4427 44.2405 58.5143 43.8198C56.827 43.4591 56.2846 42.5575 55.9231 41.175C55.1999 38.3498 55.1396 35.2843 55.8025 31.6777C56.0436 30.2952 56.4052 28.8526 56.9475 27.1695C57.0078 26.9291 57.068 26.6886 57.1886 26.4482C57.4899 25.4263 57.9117 24.2843 57.6707 23.3826C57.3091 21.94 55.1999 20.9181 54.1755 20.7979C53.7536 20.7378 53.2113 20.6777 52.6086 20.6777ZM60.744 40.634C60.6235 40.634 60.4427 40.634 60.3222 40.634C58.3938 40.3935 58.6951 37.7487 59.0567 34.0821C59.1169 33.6613 59.1169 33.2405 59.1772 32.7597C59.1772 32.5793 59.2375 32.399 59.2375 32.2187C59.4183 30.0547 59.7798 26.0274 61.5274 24.5848C62.0095 24.164 62.6121 23.9837 63.275 24.1039C66.3484 24.4646 65.9265 29.8744 65.6855 33.481C65.565 34.6832 64.9021 38.2296 62.9737 39.8526C62.3108 40.3935 61.5274 40.634 60.744 40.634ZM62.9737 25.4263C62.7327 25.4263 62.5519 25.4864 62.3711 25.6668C61.1056 26.6886 60.744 30.6558 60.6235 32.3389C60.6235 32.5793 60.5632 32.7597 60.5632 32.94C60.503 33.3608 60.503 33.8416 60.4427 34.2624C60.2619 36.0056 59.9003 39.2515 60.503 39.3116C61.1056 39.3717 61.5877 39.2515 62.0698 38.8307C63.5161 37.6285 64.1789 34.6832 64.2995 33.4209C64.4803 31.1367 64.8418 25.7269 63.1545 25.5466C63.034 25.4263 63.034 25.4263 62.9737 25.4263Z" fill="#4606C8"/>
<path d="M6.38777 53.4973C5.36332 53.4973 4.33886 53.4973 3.31441 53.4973C1.02445 53.4973 0 52.4754 0 50.3115C0 39.6721 0 28.9727 0 18.3333C0 16.1694 0.964192 15.1475 3.31441 15.0874C5.24279 15.0273 7.23144 14.847 9.22009 14.6065C9.34061 14.6065 9.46113 14.5464 9.58166 14.4863C9.40087 14.1257 8.67773 14.1257 7.23144 14.1257C6.20699 14.1858 5.18253 14.1858 4.39913 13.8852C2.89258 13.3442 1.80786 12.2623 1.2655 10.8197C0.723144 9.19671 0.964192 7.39343 1.92838 5.83059L2.28996 5.22949L2.89258 5.65026C3.37467 6.01091 3.85677 6.43168 4.33886 6.79233C5.5441 7.81419 6.68908 8.77594 8.13537 8.77594C12.414 8.77594 15.186 11.3005 15.7284 15.6284C15.9092 17.1311 15.9694 18.5738 15.9694 20.0765C15.9694 20.6175 15.9694 21.1585 16.0297 21.6994C16.2105 26.7486 16.0297 43.8798 15.9694 50.071C15.9092 53.1366 13.9808 53.5574 12.0524 53.5574H9.64192C8.61747 53.4972 7.47249 53.4973 6.38777 53.4973ZM8.13537 12.7432C9.46113 12.7432 10.7869 12.9836 10.9677 14.4262C11.0279 14.7268 10.9074 15.0273 10.7266 15.2677C10.3651 15.6885 9.76245 15.9289 9.34061 15.9891C7.2917 16.2295 5.30306 16.3497 3.37467 16.4699C1.80786 16.53 1.38603 16.8907 1.38603 18.3333C1.38603 28.9727 1.38603 39.6721 1.38603 50.3115C1.38603 51.694 1.80786 52.1147 3.25415 52.1147C5.42358 52.1147 7.53275 52.1147 9.70218 52.1147H12.1127C14.1013 52.1147 14.6437 51.6339 14.6437 49.9508C14.7039 43.7595 14.8847 26.6885 14.7039 21.6393C14.7039 21.0983 14.7039 20.5574 14.6437 20.0164C14.6437 18.5738 14.5834 17.1912 14.4026 15.7486C13.9205 12.1421 11.6908 10.1585 8.13537 10.0983C6.20699 10.0983 4.7607 8.89616 3.43493 7.75408C3.19389 7.57375 2.95284 7.33332 2.71179 7.15299C2.22969 8.17485 2.16943 9.31692 2.531 10.2787C2.89258 11.3606 3.73624 12.1421 4.82096 12.5027C5.36332 12.7432 6.26725 12.683 7.17118 12.6229C7.47249 12.7432 7.83406 12.7432 8.13537 12.7432Z" fill="#4606C8"/>
<path d="M29.7093 54.3989C29.5888 54.3989 29.408 54.3989 29.2874 54.3989C27.0578 54.3989 24.9486 54.3388 22.7792 54.1585C21.0316 54.0382 20.1276 52.9563 20.1879 51.0929C20.2481 49.2896 20.3084 47.5464 20.3687 45.7432C20.4892 42.3169 20.6097 38.7104 20.67 35.224C20.7302 33.2404 21.4534 31.5574 22.9599 30.1147C24.0447 29.0929 25.1294 28.0109 26.2141 26.9891C26.5154 26.6885 26.6359 26.388 26.3949 25.6667C26.2141 25.1257 26.2744 24.5847 26.3346 24.1038C26.3346 23.9235 26.3949 23.8033 26.3949 23.6229C26.3949 23.5027 26.4551 23.3825 26.4551 23.2623C25.6115 21.9399 26.2141 20.7377 26.6962 19.7759L26.9975 19.1147H33.8674L34.0481 21.6393C34.1687 23.0219 34.2892 24.4645 34.3495 25.847C34.5302 28.0109 34.6508 30.1147 34.8316 32.2787C35.0123 35.0437 35.2534 37.8087 35.4342 40.5738C35.5547 42.4973 35.7355 44.4208 35.856 46.4044C35.9765 48.0273 36.0971 49.6503 36.2176 51.2732C36.3381 53.0164 35.615 53.9781 33.9276 54.1585C32.7826 54.3388 31.4569 54.3989 29.7093 54.3989ZM27.9014 20.5574C27.4193 21.5191 27.2385 22.0601 27.7809 22.7814C28.0822 23.1421 27.9014 23.5628 27.8412 23.7432C27.8412 23.8033 27.8412 23.8033 27.7809 23.8634C27.7809 23.9836 27.7206 24.1639 27.7206 24.4044C27.6604 24.765 27.6001 25.1257 27.7206 25.306C27.9617 26.0273 28.2027 27.1093 27.2385 28.071C26.1538 29.153 25.0691 30.1749 23.9844 31.1967C22.7189 32.3989 22.1163 33.7213 22.1163 35.3443C22.056 38.8306 21.9355 42.4372 21.815 45.8634C21.7547 47.6667 21.6944 49.4098 21.6342 51.2131C21.5739 52.3552 21.9355 52.7759 22.9599 52.8361C25.0691 53.0164 27.1783 53.0164 29.3477 53.0765C31.2158 53.0765 32.6019 53.0164 33.9276 52.8962C34.7713 52.7759 35.0726 52.5956 35.0123 51.5136C34.8918 49.8907 34.7713 48.2677 34.6508 46.6448C34.47 44.7213 34.3495 42.7978 34.2289 40.8142C34.0481 38.0492 33.8071 35.2841 33.6263 32.5191C33.4455 30.3552 33.325 28.2514 33.1442 26.0874C33.0237 24.7049 32.9032 23.3224 32.8429 21.8798L32.7224 20.6175H27.9014V20.5574ZM28.0822 51.8142C27.1783 51.8142 26.2743 51.8142 25.0088 51.8142C23.9844 51.8142 23.3215 51.5738 22.8394 51.0328C22.1765 50.3115 22.1163 49.2896 22.1163 48.4481C22.1163 47.9071 22.1765 47.0656 22.2368 46.1038C22.3573 42.8579 22.5381 37.929 22.5381 36.7268C22.5381 35.3443 22.6586 33.6011 23.6831 32.6994C24.0447 32.3989 24.4665 31.9781 25.0088 31.5574C27.9617 28.8525 29.408 27.6503 30.0709 27.4699C31.1556 27.1694 31.7582 27.5902 32.0595 28.0109C32.6621 28.8525 32.7826 30.3552 32.9032 31.7377L32.9634 32.2186C33.0237 32.8197 33.1442 34.5027 33.325 36.6667C33.6263 40.694 34.0481 46.1639 34.2289 48.5683C34.2892 49.53 34.2892 50.5519 33.6263 51.2131C33.2045 51.694 32.5416 51.9344 31.5171 51.9344C30.1311 51.8142 29.1067 51.8142 28.0822 51.8142ZM30.6735 28.612C30.6132 28.612 30.4927 28.612 30.3722 28.6721C29.8298 28.8525 27.2988 31.1967 25.9128 32.459C25.4307 32.8798 24.9486 33.3005 24.587 33.6612C23.8639 34.2623 23.9241 36.0656 23.9241 36.6667C23.9241 37.929 23.7433 42.8579 23.6228 46.1639C23.5626 47.1257 23.5626 47.9672 23.5626 48.5082C23.5626 49.3497 23.6228 49.8306 23.8639 50.1311C24.0447 50.3716 24.4665 50.4317 25.0691 50.4918C27.7206 50.4918 28.9861 50.4918 31.5171 50.4918C32.0595 50.4918 32.4211 50.3716 32.6019 50.1912C32.9032 49.8907 32.8429 49.1093 32.8429 48.5683C32.6621 46.1639 32.2403 40.694 31.939 36.6667C31.7582 34.5628 31.6377 32.8197 31.5774 32.2186L31.5171 31.7377C31.4569 30.7158 31.3364 29.2732 30.9748 28.7322C30.8543 28.6721 30.8543 28.612 30.6735 28.612Z" fill="#4606C8"/>
<path d="M59.117 10.8798H49.7764L49.9572 10.0383C50.0777 9.61749 50.0174 9.19672 50.0174 8.71585C49.9572 7.81421 49.8969 6.79235 50.6803 5.71038C50.8611 5.46994 50.8008 4.80874 50.7406 4.26776C50.62 3.9071 50.62 3.54645 50.62 3.18579C50.62 1.14208 51.765 0.0601093 53.7537 0C54.2358 0 54.8384 0 55.3807 0C57.0681 0.0601093 58.1528 1.14208 58.2733 2.82514C58.2733 3.30601 58.2733 3.72678 58.2733 4.20765C58.2733 4.56831 58.2733 4.92896 58.2733 5.22951C58.2733 5.34973 58.2733 5.46995 58.2733 5.59016C58.2733 5.71038 58.2733 5.8306 58.2733 5.89071C58.2733 5.89071 58.3336 5.89071 58.3938 5.89071C59.0567 5.95082 59.1772 6.79235 59.1772 7.0929C59.1772 7.81421 59.1772 8.53552 59.1772 9.31694L59.117 10.8798ZM51.4034 9.49727H57.7912V9.31694C57.7912 8.59563 57.7912 7.87432 57.7912 7.21311C56.827 6.85246 56.8873 5.89071 56.8873 5.53005C56.8873 5.46994 56.8873 5.34973 56.8873 5.28962C56.8873 4.92896 56.8873 4.56831 56.8873 4.20765C56.8873 3.78689 56.8873 3.36612 56.8873 2.94536C56.827 1.98361 56.3449 1.50273 55.3205 1.44262C54.8384 1.44262 54.296 1.44262 53.8139 1.44262C52.5484 1.44262 52.0663 1.98361 52.0061 3.2459C52.0061 3.54645 52.0061 3.84699 52.0663 4.14754C52.1266 4.98907 52.2471 5.89071 51.765 6.55191C51.2829 7.21311 51.3432 7.87432 51.3432 8.65574C51.3432 8.89617 51.4034 9.19672 51.4034 9.49727Z" fill="#4606C8"/>
<path d="M31.095 17.3717C30.6731 17.3717 30.2513 17.3116 29.8295 17.3116C29.2268 17.2515 28.6845 17.1914 28.2024 17.2515C27.7806 17.3116 27.419 17.011 27.2382 16.8307C27.1779 16.7706 27.1779 16.7706 27.1177 16.7105C26.8164 16.47 26.4548 16.1695 26.1535 15.9291C25.4303 15.328 24.7675 14.7269 24.0443 14.3061C23.1404 13.7651 22.2365 12.9837 22.4775 11.3608C22.4775 11.1804 22.4775 10.94 22.4775 10.6394C22.4775 10.4591 22.4775 10.2788 22.4775 10.0985V9.43726H25.0085C27.2382 9.43726 29.3474 9.43726 31.5168 9.43726C32.0592 9.43726 32.5413 9.79791 32.8426 10.1586C33.626 11.1804 34.3491 12.2624 35.0723 13.2843L35.1928 13.5247C35.3133 13.705 35.7351 14.3061 35.5544 14.9673C35.4338 15.3881 35.0723 15.6886 34.5299 15.869C34.2889 15.9291 34.1683 16.0493 34.1683 16.0493C33.2644 17.1312 32.1797 17.3717 31.095 17.3717ZM28.7448 15.869C29.1666 15.869 29.5884 15.9291 30.0103 15.9291C31.3963 16.0493 32.3002 16.1094 33.0836 15.0875C33.3247 14.787 33.626 14.6067 34.1081 14.4263C34.1683 14.4263 34.1683 14.4263 34.2286 14.3662C34.2286 14.3061 34.1683 14.246 34.1081 14.1859L33.9875 13.9455C33.2644 12.9236 32.5413 11.9017 31.8181 10.8799C31.7579 10.8198 31.6373 10.7597 31.5771 10.6996C29.4679 10.6996 27.2985 10.6996 25.129 10.6996H23.9841C23.9841 11.0001 23.9841 11.2405 23.9238 11.481C23.8033 12.0821 23.9238 12.4427 24.8277 12.9837C25.6714 13.4646 26.4548 14.1258 27.1779 14.7269C27.4792 14.9673 27.7806 15.2679 28.0819 15.5083C28.1421 15.5684 28.2627 15.6285 28.3229 15.7487C28.4434 15.869 28.6242 15.869 28.7448 15.869Z" fill="#4606C8"/>
<path d="M7.47265 9.97812L6.80977 9.49725C6.02636 8.89615 5.30322 8.29506 4.58008 7.69397C3.85693 7.09288 3.13379 6.49178 2.35038 5.89069L1.6875 5.40982L2.29012 4.86883C2.59143 4.56829 2.89274 4.26774 3.19405 3.96719C3.97746 3.18577 4.7006 2.46446 5.60453 1.68304C6.26741 1.14206 7.35213 0.661182 8.85868 1.80326C10.0037 2.58468 10.305 3.66665 9.82287 4.80872C9.58182 5.34971 9.34078 5.9508 9.09973 6.55189C8.73815 7.45353 8.37658 8.35517 7.89449 9.31692L7.47265 9.97812ZM3.79667 5.2896C4.39929 5.71036 4.94165 6.19124 5.42374 6.612C5.90584 7.03277 6.38794 7.45353 6.93029 7.8743C7.2316 7.21309 7.47265 6.612 7.7137 6.01091C7.95475 5.40982 8.1958 4.80872 8.43684 4.26774C8.61763 3.90708 8.67789 3.48632 7.95475 2.94534C7.05082 2.28413 6.68925 2.52457 6.4482 2.76501C5.66479 3.42621 4.94165 4.14752 4.15824 4.92894C4.03772 5.04916 3.91719 5.16938 3.79667 5.2896Z" fill="#4606C8"/>
<path d="M18.8018 22.7212L20.6096 20.377C21.9956 18.5737 22.6585 16.53 22.779 13.5846L22.8393 12.2622L28.2026 16.2895L27.6 17.4917H26.9974C26.8769 17.4917 26.6961 17.4917 26.5756 17.4917C25.3703 17.3715 25.2498 17.4917 24.828 18.5136C24.2856 20.0764 23.0201 20.6174 21.9354 21.0983C21.7546 21.1584 21.5738 21.2786 21.393 21.3387L18.8018 22.7212ZM24.0446 14.907C23.8638 16.4097 23.5625 17.7322 23.0201 18.9343C23.2611 18.6939 23.4419 18.4535 23.5625 18.0928C24.0446 16.7704 24.5869 16.2294 25.6716 16.1092L24.0446 14.907Z" fill="#4606C8"/>
<path d="M33.7467 19.7759H26.8769L26.8166 19.2349C26.6358 18.3934 26.5756 17.6721 26.9974 17.1311C27.4192 16.6502 28.0821 16.5901 28.8655 16.5901C29.89 16.5901 30.8542 16.5901 31.8786 16.5901C32.662 16.5901 33.2646 16.6502 33.6865 17.1311C34.1083 17.6119 34.048 18.2731 33.8673 19.1748L33.7467 19.7759ZM28.0821 18.3934H32.5415C32.5415 18.213 32.5415 18.0928 32.5415 18.0327C32.421 18.0327 32.2402 17.9726 31.8184 17.9726C30.8542 17.9726 29.8297 17.9726 28.8655 17.9726C28.3834 17.9726 28.1424 18.0327 28.0821 18.0327C28.0218 18.0928 28.0218 18.213 28.0821 18.3934Z" fill="#4606C8"/>
<path d="M22.116 13.8252C21.9955 13.8252 21.9353 13.8252 21.8147 13.8252C21.4532 13.7651 21.1519 13.7651 20.7903 13.705L19.7056 13.5246V9.67764L23.261 9.49731V13.8252H22.5379C22.4776 13.8252 22.3571 13.8252 22.2968 13.8252C22.2366 13.8252 22.1763 13.8252 22.116 13.8252ZM21.0916 12.3225C21.3326 12.3826 21.6339 12.3826 21.875 12.4427V11H21.0916V12.3225Z" fill="#4606C8"/>
<path d="M9.22005 50.0711C7.89428 50.0711 6.62878 50.0711 5.12223 50.0711C2.89254 50.0711 1.74756 48.8689 1.74756 46.5246C1.74756 42.9181 1.74756 39.3115 1.80782 35.705C1.80782 31.4372 1.86808 26.9891 1.80782 22.6613C1.80782 21.6995 1.80782 20.3771 3.19385 19.9563C3.97725 19.7159 4.7004 19.4755 5.42354 19.2951C6.99035 18.8143 8.31612 18.3935 10.1842 18.0328C11.0279 17.8525 11.8113 18.0929 12.4742 18.6339C13.3781 19.3552 13.9205 20.6175 13.9205 22C13.9205 23.8033 13.9807 25.6667 13.9807 27.47C13.9807 29.7541 14.041 32.0984 14.041 34.4427C14.041 36.3662 14.041 38.2897 14.041 40.2132C14.041 42.3771 14.1013 44.4809 14.041 46.5847C14.041 48.7487 13.8 50.1913 11.0882 50.1913C10.4855 50.0711 9.88293 50.0711 9.22005 50.0711ZM10.7869 19.235C10.6663 19.235 10.6061 19.235 10.4855 19.235C8.67769 19.5957 7.35193 20.0164 5.84538 20.4973C5.18249 20.7378 4.45935 20.9181 3.61568 21.1585C3.31437 21.2186 3.19385 21.399 3.19385 22.541C3.19385 26.929 3.19385 31.317 3.19385 35.6449C3.19385 39.2514 3.13358 42.858 3.13358 46.4645C3.13358 48.0875 3.61568 48.6285 5.12223 48.6285C7.29166 48.6285 8.91874 48.6285 11.1484 48.6285C12.5345 48.6285 12.7152 48.5684 12.7152 46.4044C12.7152 44.3006 12.7152 42.1367 12.7152 40.0328C12.7152 38.1093 12.7152 36.1858 12.7152 34.2623C12.7152 31.9782 12.7152 29.6339 12.655 27.3498C12.655 25.4864 12.5947 23.6831 12.5947 21.8197C12.5947 20.858 12.2331 19.9563 11.6908 19.5356C11.3895 19.3552 11.0882 19.235 10.7869 19.235Z" fill="#4606C8"/>
</g>
<defs>
<clipPath id="clip0_270_1442">
<rect width="69" height="55" fill="white"/>
</clipPath>
</defs>
</svg>
