<svg width="72" height="52" viewBox="0 0 72 52" fill="none" xmlns="http://www.w3.org/2000/svg">
<g clip-path="url(#clip0_270_1538)">
<path d="M32.2738 5.87573C35.6186 5.87573 38.9633 5.87573 42.3667 5.87573C42.4254 5.87573 42.5428 5.87573 42.6015 5.87573C43.2469 5.87573 43.5403 6.34579 43.423 6.93336C43.1882 7.75596 42.9535 8.57856 42.7775 9.40116C42.6601 10.1062 42.6015 10.8113 42.5428 11.5164C42.4254 12.7503 42.3081 13.9254 42.2494 15.1593C42.1907 16.0995 42.0733 17.0983 42.0147 18.0384C41.8973 19.2136 41.7799 20.3887 41.7213 21.6226C41.6626 22.5627 41.5452 23.5616 41.4865 24.5017C41.3692 25.6769 41.2518 26.9108 41.1931 28.0859C41.1345 29.026 41.0171 29.9661 40.9584 30.9062C40.8411 32.1401 40.7237 33.3153 40.665 34.5492C40.6063 35.4305 40.489 36.3706 40.4303 37.252C40.3129 38.5447 40.1956 39.8373 40.0782 41.0712C39.9022 42.9514 39.7848 44.8317 39.8435 46.7119C39.8435 47.652 39.6088 48.4746 39.022 49.1797C38.3178 50.061 37.379 50.5311 36.264 50.5899C33.6821 50.6486 31.1002 50.5899 28.5183 50.5899C26.8166 50.5899 25.2909 49.1797 24.9975 47.5345C24.9389 47.2407 24.9389 47.0057 24.9389 46.7119C24.8802 45.3605 24.8802 44.0091 24.8215 42.6576C24.7628 41.2475 24.5868 39.8961 24.4694 38.4859C24.3521 37.3108 24.2934 36.1356 24.176 34.9605C24.0587 33.7853 23.9413 32.6102 23.8826 31.4351C23.8239 30.4949 23.7066 29.5548 23.6479 28.6147C23.5305 27.4396 23.4132 26.2057 23.3545 25.0305C23.2958 24.0904 23.1785 23.1503 23.1198 22.2102C23.0024 20.9763 22.8851 19.8012 22.8264 18.5673C22.7677 17.6271 22.6504 16.687 22.5917 15.7469C22.533 14.748 22.4156 13.7492 22.357 12.7503C22.2983 11.869 22.2396 10.9288 22.1222 10.0475C22.0636 9.45991 21.8875 8.81359 21.7115 8.22601C21.5941 7.81472 21.4768 7.40342 21.4181 6.99212C21.3007 6.40455 21.5941 6.052 22.1809 5.99325C22.2396 5.99325 22.357 5.99325 22.4156 5.99325C25.5257 5.87573 28.9291 5.87573 32.2738 5.87573ZM23.4132 10.4C23.9413 16.6283 24.4694 22.7978 25.0562 29.026C29.9266 29.026 34.7384 29.026 39.5501 29.026C40.0782 22.7978 40.6063 16.6283 41.1931 10.4C35.2078 10.4 29.3398 10.4 23.4132 10.4ZM38.9046 36.4882C34.5037 36.4882 30.1027 36.4882 25.7017 36.4882C25.8777 38.7209 26.1125 40.9537 26.2885 43.1865C30.3374 43.1865 34.3276 43.1865 38.3765 43.1865C38.4939 40.9537 38.7286 38.7209 38.9046 36.4882ZM39.4327 30.5537C34.621 30.5537 29.9266 30.5537 25.1736 30.5537C25.2909 32.0814 25.4083 33.5503 25.5843 35.0192C30.1027 35.0192 34.5623 35.0192 39.0807 35.0192C39.1394 33.4916 39.2567 32.0226 39.4327 30.5537ZM26.3472 44.7141C26.3472 45.5367 26.2885 46.3593 26.3472 47.1819C26.4059 48.0045 26.8753 48.6509 27.5794 48.9447C27.9315 49.1209 28.3423 49.1797 28.753 49.1797C30.9829 49.1797 33.2127 49.1797 35.4425 49.1797C35.6772 49.1797 35.912 49.1797 36.1467 49.1209C37.3203 49.0622 38.2005 48.0045 38.2005 47.0057C38.2005 46.3006 38.2005 45.5955 38.2005 44.8317C38.2005 44.7729 38.2005 44.7141 38.1418 44.6554C37.6137 44.6554 37.0269 44.6554 36.4988 44.6554C36.4401 44.6554 36.3814 44.6554 36.3227 44.6554C36.3227 45.0667 36.264 45.4192 36.264 45.8305C36.1467 46.7119 35.3252 47.5932 34.445 47.5932C32.978 47.652 31.5697 47.652 30.1027 47.5932C29.1051 47.5932 28.1662 46.6531 28.1076 45.478C28.1076 45.1842 28.1076 44.9492 28.1076 44.6554C27.5794 44.7141 26.934 44.7141 26.3472 44.7141ZM23.1785 8.87234C29.2812 8.87234 35.3252 8.87234 41.3692 8.87234C41.4865 8.40229 41.6039 7.87347 41.7213 7.40342C35.3838 7.40342 29.1051 7.40342 22.7677 7.40342C22.9438 7.93223 23.0611 8.40229 23.1785 8.87234ZM34.8557 44.7141C33.0953 44.7141 31.3936 44.7141 29.6332 44.7141C29.6332 45.0079 29.6332 45.243 29.6332 45.5367C29.6919 45.8893 29.9266 46.1831 30.3374 46.2418C31.6283 46.2418 32.9193 46.2418 34.1516 46.2418C34.5037 46.2418 34.7971 45.948 34.8557 45.5955C34.9144 45.3017 34.8557 45.0079 34.8557 44.7141Z" fill="#4606C8"/>
<path d="M5.22241 12.1039C5.22241 11.1051 5.22241 10.1062 5.22241 9.10732C5.10505 9.10732 4.98769 9.10732 4.92901 9.10732C4.04881 9.10732 3.16862 9.10732 2.3471 9.10732C1.87766 9.10732 1.58427 8.81353 1.58427 8.34348C1.58427 7.34461 1.58427 6.40449 1.58427 5.40562C1.58427 4.93557 1.87766 4.64178 2.28842 4.64178C3.69674 4.64178 5.16373 4.58303 6.57204 4.81805C7.80431 5.05308 9.03659 5.1706 10.3275 5.34687C11.5598 5.52314 12.7921 5.69941 14.083 5.87568C14.6698 5.93444 15.198 5.99319 15.7848 6.11071C16.0195 6.16947 16.1955 6.22822 16.3716 6.40449C16.841 6.87455 17.3104 7.34461 17.7799 7.75591C18.0146 7.99093 18.0733 8.28472 17.9559 8.57851C17.8385 8.93105 17.5451 9.04856 17.1931 9.04856C14.8459 9.04856 12.5574 9.04856 10.2102 9.04856C10.0928 9.04856 9.97546 9.04856 9.8581 9.04856C9.8581 10.0474 9.8581 11.0463 9.8581 12.0452C9.97546 12.0452 10.0341 12.0452 10.1515 12.0452C10.797 12.0452 11.3838 12.0452 12.0293 12.0452C12.5574 12.0452 12.7921 12.339 12.7921 12.8678C12.7921 13.6316 12.7921 14.3367 12.7921 15.1005C12.7921 15.2768 12.8508 15.3943 12.9681 15.4531C14.083 16.0407 14.7285 16.9808 14.9632 18.2147C15.0219 18.4497 14.9632 18.626 14.9632 18.861C14.9632 28.2621 14.9632 37.6045 14.9632 47.0056C14.9632 48.122 14.3764 49.0034 13.3202 49.2384C13.0855 49.2972 12.8508 49.2971 12.6161 49.2971C9.21263 49.2971 5.80921 49.2971 2.40578 49.2971C1.05615 49.2971 0.0585938 48.357 0.0585938 46.9469C0.0585938 37.5457 0.0585938 28.1446 0.0585938 18.7435C0.0585938 17.2746 0.704071 16.1582 2.0537 15.3943C2.22974 15.2768 2.28842 15.1593 2.28842 14.983C2.28842 14.2779 2.28842 13.5141 2.28842 12.809C2.28842 12.2802 2.58182 11.9864 3.05126 11.9864C3.63806 11.9864 4.28353 11.9864 4.87033 11.9864C4.98769 12.1039 5.10505 12.1039 5.22241 12.1039ZM1.52559 38.9559C5.51581 38.9559 9.44735 38.9559 13.4376 38.9559C13.4376 33.9616 13.4376 29.026 13.4376 24.0316C9.44735 24.0316 5.51581 24.0316 1.52559 24.0316C1.52559 29.026 1.52559 33.9616 1.52559 38.9559ZM13.4376 40.4248C9.44735 40.4248 5.51581 40.4248 1.52559 40.4248C1.52559 40.5423 1.52559 40.6011 1.52559 40.7186C1.52559 42.8339 1.52559 44.8904 1.52559 47.0056C1.52559 47.652 1.81898 47.9457 2.46446 47.9457C5.8092 47.9457 9.15395 47.9457 12.4987 47.9457C13.1442 47.9457 13.4376 47.652 13.4376 47.0056C13.4376 45.3017 13.4376 43.6565 13.4376 41.9525C13.4376 41.4237 13.4376 40.9536 13.4376 40.4248ZM1.52559 19.5661C5.51581 19.5661 9.44735 19.5661 13.4376 19.5661C13.4376 19.331 13.4376 19.1548 13.4376 18.9197C13.4376 17.5683 12.44 16.5695 11.0904 16.5695C8.68451 16.5695 6.21996 16.5695 3.8141 16.5695C3.28598 16.5695 2.81654 16.7457 2.40578 17.0395C1.52559 17.6859 1.40823 18.5672 1.52559 19.5661ZM13.4376 21.0938C9.44735 21.0938 5.51581 21.0938 1.52559 21.0938C1.52559 21.6226 1.52559 22.0926 1.52559 22.5627C5.51581 22.5627 9.44735 22.5627 13.4376 22.5627C13.4376 22.0339 13.4376 21.5638 13.4376 21.0938ZM15.2566 7.63839C15.198 7.57964 15.198 7.57964 15.198 7.57964C14.083 7.40336 13.0268 7.28585 11.9119 7.10958C10.5623 6.93331 9.15395 6.75704 7.80431 6.52201C6.27864 6.28698 4.75297 6.05195 3.16862 6.16947C3.10994 6.16947 3.05126 6.16947 2.99258 6.16947C2.99258 6.63952 2.99258 7.16834 2.99258 7.63839C7.10016 7.63839 11.1491 7.63839 15.2566 7.63839ZM11.1491 15.1005C11.1491 14.5717 11.1491 14.1017 11.1491 13.6316C8.68451 13.6316 6.21996 13.6316 3.75542 13.6316C3.75542 14.1604 3.75542 14.6305 3.75542 15.1005C6.21996 15.1005 8.68451 15.1005 11.1491 15.1005ZM8.21507 12.1039C8.21507 11.1051 8.21507 10.1062 8.21507 9.10732C7.68696 9.10732 7.21752 9.10732 6.74808 9.10732C6.74808 10.1062 6.74808 11.1051 6.74808 12.1039C7.21752 12.1039 7.68696 12.1039 8.21507 12.1039Z" fill="#4606C8"/>
<path d="M33.0953 17.8622C33.0366 19.7424 31.5696 21.3289 29.7505 21.5051C27.7554 21.7402 25.7603 20.2712 25.5842 18.0385C25.5256 17.3921 25.7603 16.7458 26.0537 16.1582C26.6405 14.8656 27.462 13.6904 28.3422 12.5741C28.4596 12.3978 28.5769 12.2215 28.753 12.104C29.105 11.7515 29.5745 11.7515 29.9265 12.104C31.0415 13.4554 32.0977 14.8656 32.7432 16.452C32.8605 16.9808 32.9779 17.4509 33.0953 17.8622ZM29.2811 13.808C28.5182 14.8656 27.7554 15.9232 27.2273 17.0984C27.0512 17.5097 26.9926 17.921 27.1099 18.2735C27.462 19.6837 28.8116 20.3888 30.1613 19.8599C31.2175 19.4486 31.863 18.156 31.3935 17.0984C30.8654 15.9232 30.1026 14.8656 29.2811 13.808Z" fill="#4606C8"/>
<path d="M35.2669 27.4983C33.6239 27.4983 32.2742 26.1469 32.3329 24.443C32.3329 23.9142 32.5676 23.4441 32.7437 22.9741C33.2131 21.7989 33.9173 20.7413 34.6214 19.6837C34.9148 19.2724 35.5603 19.2136 35.8537 19.6249C36.6752 20.8588 37.4967 22.0927 38.0248 23.5029C38.7877 25.5594 37.2033 27.5571 35.2669 27.4983ZM35.2669 21.4464C35.2082 21.5051 35.1495 21.5639 35.1495 21.6226C34.7388 22.3865 34.328 23.0916 33.9759 23.8554C33.8586 24.1492 33.7999 24.5017 33.7999 24.7955C33.8586 25.6181 34.7388 26.1469 35.619 25.9707C36.4405 25.7944 36.9686 24.8543 36.6752 24.1492C36.3231 23.2091 35.795 22.3277 35.2669 21.4464Z" fill="#4606C8"/>
<path d="M36.029 41.7175C35.5595 41.7175 35.1488 41.3062 35.3248 40.8362C35.5595 40.0723 35.7942 39.2497 36.0876 38.4859C36.205 38.1333 36.6744 37.9571 37.0265 38.0746C37.4373 38.1921 37.6133 38.6034 37.496 39.0147C37.2612 39.7785 37.0265 40.4836 36.7331 41.2475C36.6158 41.5412 36.3224 41.7175 36.029 41.7175Z" fill="#4606C8"/>
<path d="M32.2738 33.4916C30.8068 33.4916 29.3398 33.4916 27.9315 33.4916C27.4621 33.4916 27.11 33.1978 27.11 32.8453C27.0513 32.3752 27.3447 32.0815 27.8141 32.0227C27.9315 32.0227 28.0489 32.0227 28.1662 32.0227C30.9828 32.0227 33.7995 32.0227 36.5574 32.0227C36.7335 32.0227 36.9682 32.0815 37.1442 32.1402C37.4376 32.3165 37.555 32.669 37.4376 32.9628C37.3202 33.3154 37.0855 33.4916 36.6748 33.5504C35.5599 33.5504 34.5036 33.5504 33.3887 33.5504C33.0366 33.4916 32.6259 33.4916 32.2738 33.4916Z" fill="#4606C8"/>
<path d="M12.0294 32.9628C11.912 35.5481 9.74086 37.6046 7.15895 37.4283C4.92912 37.252 3.16873 35.4893 2.93401 33.3153C2.81665 32.3752 3.16873 31.5526 3.57949 30.73C4.28365 29.2023 5.2812 27.8509 6.27876 26.4995C6.4548 26.2644 6.63084 26.0294 6.86555 25.7944C7.21763 25.4419 7.74575 25.3831 8.03915 25.7356C9.50614 27.5571 10.9145 29.3786 11.736 31.5526C11.912 32.0814 11.9707 32.5515 12.0294 32.9628ZM7.51103 27.4396C7.45235 27.4983 7.39367 27.4983 7.39367 27.4983C6.39612 28.791 5.51592 30.0837 4.81176 31.4938C4.63573 31.8464 4.45969 32.2577 4.40101 32.669C4.28365 33.9029 4.87044 34.9017 5.92668 35.4893C6.98291 36.0769 8.09783 36.0181 9.15406 35.313C10.0929 34.6667 10.8558 33.139 10.2103 31.7876C9.85822 31.1413 9.56482 30.495 9.21274 29.8486C8.68463 29.1435 8.09783 28.3209 7.51103 27.4396Z" fill="#4606C8"/>
<path d="M4.46007 44.8904C4.57743 44.8904 4.69479 44.8904 4.81215 44.8904C5.69234 44.8904 6.57254 44.8904 7.39406 44.8904C7.86349 44.8904 8.15689 45.1842 8.15689 45.6542C8.15689 46.0655 7.86349 46.3593 7.39406 46.3593C6.22046 46.3593 4.98819 46.3593 3.81459 46.3593C3.34516 46.3593 3.05176 46.0655 3.05176 45.5955C3.05176 44.6554 3.05176 43.7153 3.05176 42.7164C3.05176 42.1876 3.34516 41.8938 3.81459 41.8938C4.22535 41.8938 4.51875 42.2463 4.51875 42.7752C4.46007 43.4802 4.46007 44.1853 4.46007 44.8904Z" fill="#4606C8"/>
<path d="M10.7975 46.4181C10.6802 46.4181 10.5628 46.4181 10.3868 46.4181C9.97602 46.3593 9.68262 46.0655 9.68262 45.6542C9.68262 45.2429 9.97602 44.9491 10.3868 44.8904C10.6215 44.8904 10.9149 44.8904 11.1496 44.8904C11.5604 44.8904 11.8538 45.2429 11.8538 45.6542C11.8538 46.0655 11.5604 46.3593 11.1496 46.4181C11.0909 46.4181 10.9149 46.4181 10.7975 46.4181Z" fill="#4606C8"/>
<path d="M55.0998 12.5153C55.0411 11.6927 55.4518 10.9288 54.4543 10.4C54.2196 10.2825 54.1609 9.75367 54.1609 9.40113C54.1609 7.28588 54.1022 5.11186 54.1609 2.99661C54.1609 1.05763 55.2758 0 57.2709 0C58.2685 0 59.3247 0 60.3223 0C62.0827 0.0587571 63.1389 1.11638 63.1389 2.82034C63.1389 5.05311 63.1389 7.28588 63.1389 9.51864C63.1389 9.81243 63.0215 10.165 62.8455 10.4C62.1413 11.2814 62.0827 11.2226 62.3761 12.5153C64.6059 12.6328 66.6597 13.4554 68.3614 14.8655C70.7086 16.8045 72.1169 19.2723 71.9995 22.3864C71.8822 26.6169 71.5888 30.8475 71.354 35.078C71.1193 38.7209 70.7673 42.3638 70.7086 45.948C70.5912 50.3548 68.5374 52.1175 64.5472 51.9412C60.3809 51.8237 56.2147 51.9412 52.0484 51.8825C48.821 51.8825 47.1193 50.1785 46.8846 46.9469C46.4739 40.2486 45.9457 33.609 45.5937 26.9107C45.4763 24.7955 45.3003 22.6215 45.6523 20.565C46.2978 16.5695 49.9946 12.9266 55.0998 12.5153ZM58.7379 50.1785C61.0264 50.1785 63.3149 50.1785 65.6034 50.1785C67.5985 50.1785 68.5961 49.1797 68.7135 47.1819C69.0069 42.6576 69.3589 38.0746 69.6523 33.5503C69.8871 29.9661 70.1805 26.4407 70.2391 22.8565C70.3565 18.1559 66.425 14.3367 61.7893 14.3955C59.9115 14.3955 57.9751 14.513 56.0973 14.3955C51.1682 14.1605 46.7086 18.3322 47.2367 23.6203C47.5301 26.9695 47.6474 30.3186 47.8822 33.609C48.1756 38.1333 48.469 42.6576 48.7624 47.1232C48.9384 49.2972 49.936 50.1198 52.0484 50.1198C54.2783 50.1785 56.5081 50.1785 58.7379 50.1785ZM61.3785 8.87232C61.3785 7.22712 61.3785 5.69943 61.3785 4.17175C61.3785 1.88023 61.3785 1.82147 59.0313 1.88023C55.7452 1.88023 56.0386 1.52768 56.0386 4.87684C56.0386 6.22825 56.0386 7.5209 56.0386 8.87232C57.9164 8.87232 59.5594 8.87232 61.3785 8.87232ZM60.3809 12.4565C60.3809 11.8689 60.3809 11.3989 60.3809 10.9288C59.2073 10.9288 58.0924 10.9288 56.9775 10.9288C56.9775 11.4576 56.9775 11.9277 56.9775 12.4565C58.0924 12.4565 59.2073 12.4565 60.3809 12.4565Z" fill="#4606C8"/>
<path d="M59.6777 31.3174C59.6777 32.2576 59.6777 33.1389 59.6777 34.1378C61.2621 32.5513 63.0812 31.5525 65.2523 31.3762C66.4846 31.2587 66.778 31.5525 66.7193 32.7864C66.5433 36.4881 63.6093 39.6022 59.6191 40.2485C59.6191 41.0124 59.6191 41.7762 59.6191 42.54C59.6191 43.1864 59.5604 43.8914 58.6802 43.8914C57.8587 43.8914 57.8 43.2451 57.8 42.5988C57.8 41.835 57.8 41.0711 57.8 40.6598C56.2156 39.8372 54.7486 39.3084 53.5164 38.3683C51.6386 36.9581 50.7584 34.9016 50.5824 32.6101C50.5237 31.67 50.8758 31.3174 51.8733 31.3762C53.9271 31.5525 55.7462 32.2576 57.2132 33.7852C57.3305 33.9027 57.5066 34.0203 57.7413 34.2553C57.7413 33.1977 57.7413 32.3163 57.7413 31.7287C56.2156 30.9061 54.69 30.2598 53.4577 29.3785C51.5213 27.9683 50.8171 25.853 50.6411 23.5615C50.5824 22.7389 50.9931 22.4451 51.756 22.5039C54.5726 22.6214 56.7437 23.914 58.3281 26.2056C58.4455 26.3231 58.5041 26.4994 58.5041 26.4406C59.6777 25.4417 60.7926 24.2666 62.1423 23.444C63.1398 22.8564 64.4308 22.7389 65.6044 22.5039C66.4259 22.3276 66.778 22.7977 66.778 23.6203C66.7193 27.0869 64.2547 30.2011 60.734 31.1412C60.3819 31.1999 60.0885 31.2587 59.6777 31.3174ZM59.7951 38.3683C62.4944 37.8982 64.7829 35.5479 64.7242 33.3739C62.1423 33.7265 60.1472 35.7242 59.7951 38.3683ZM57.6239 38.3095C57.2719 35.6655 55.042 33.4914 52.6362 33.3739C53.223 36.0768 55.1007 37.957 57.6239 38.3095ZM59.8538 29.3197C62.553 29.0847 64.8415 26.1468 64.7242 24.4429C62.7291 24.3841 59.9125 26.9107 59.8538 29.3197ZM52.6948 24.5016C53.0469 27.0282 55.5702 29.496 57.6239 29.2609C57.0371 26.6169 54.866 24.5016 52.6948 24.5016Z" fill="#4606C8"/>
<path d="M58.7382 44.714C60.3812 44.714 62.0243 44.714 63.6673 44.714C64.3715 44.714 64.9583 44.8903 64.9583 45.7129C64.9583 46.4767 64.3128 46.5943 63.6673 46.5943C60.3812 46.5943 57.0952 46.5943 53.7504 46.5943C53.105 46.5943 52.4008 46.418 52.4595 45.5954C52.5182 44.8315 53.1636 44.6553 53.8678 44.6553C55.5108 44.714 57.0952 44.714 58.7382 44.714Z" fill="#4606C8"/>
</g>
<defs>
<clipPath id="clip0_270_1538">
<rect width="72" height="52" fill="white"/>
</clipPath>
</defs>
</svg>
