<svg width="19" height="19" viewBox="0 0 19 19" fill="none" xmlns="http://www.w3.org/2000/svg">
<g clip-path="url(#clip0_115_255)">
<path d="M16.1338 16.7279C15.9755 16.7279 15.8251 16.6646 15.7142 16.5537L10.6634 11.5029C10.4338 11.2733 10.4338 10.8933 10.6634 10.6637L16.783 4.54416C16.9334 4.39375 17.163 4.33833 17.3688 4.39375C17.5746 4.45708 17.7329 4.62333 17.7804 4.82916C17.9308 5.50208 18.0101 6.25416 18.0101 7.125V11.875C18.0101 14.0679 17.5509 15.5483 16.5534 16.5537C16.4426 16.6646 16.2763 16.6883 16.1338 16.7279ZM11.9221 11.0833L16.0863 15.2475C16.5851 14.4796 16.8226 13.3871 16.8226 11.875V7.125C16.8226 6.80041 16.8146 6.49958 16.7908 6.21458L11.9221 11.0833Z" fill="#4606C8"/>
<path d="M4.96366 17.7967C4.91616 17.7967 4.87659 17.7888 4.82909 17.7808C2.20868 17.1792 0.989502 15.3029 0.989502 11.875V7.12501C0.989502 2.82626 2.82617 0.989594 7.12492 0.989594H11.8749C15.3028 0.989594 17.1791 2.20877 17.7808 4.82918C17.8283 5.0271 17.7649 5.24084 17.6224 5.38334L5.38324 17.6225C5.27241 17.7333 5.12199 17.7967 4.96366 17.7967ZM7.12492 2.17709C3.47534 2.17709 2.177 3.47543 2.177 7.12501V11.875C2.177 14.6221 2.93701 15.9996 4.78159 16.5458L16.5378 4.78959C15.9995 2.94501 14.6141 2.185 11.867 2.185H7.12492V2.17709Z" fill="#4606C8"/>
<path d="M11.8753 18.0103H7.12529C6.25446 18.0103 5.5103 17.9391 4.82947 17.7808C4.61572 17.7333 4.44945 17.5749 4.39404 17.3691C4.3307 17.1633 4.39404 16.9416 4.54445 16.7833L10.6641 10.6637C10.8937 10.4341 11.2737 10.4341 11.5032 10.6637L16.5541 15.7145C16.6649 15.8253 16.7282 15.9758 16.7282 16.1341C16.7282 16.2924 16.6649 16.4428 16.5541 16.5537C15.5487 17.5512 14.0682 18.0103 11.8753 18.0103ZM6.21489 16.7912C6.49989 16.8149 6.80071 16.8228 7.12529 16.8228H11.8753C13.3953 16.8228 14.4799 16.5853 15.2478 16.0866L11.0837 11.9224L6.21489 16.7912Z" fill="#4606C8"/>
<path d="M7.21918 10.5371C6.72043 10.5371 6.22167 10.355 5.82584 9.98291C4.56709 8.78749 4.06044 7.47336 4.36128 6.19086C4.66211 4.8767 5.81001 3.99002 7.21918 3.99002C8.62838 3.99002 9.77629 4.8767 10.0771 6.19086C10.37 7.48128 9.86338 8.78749 8.60463 9.98291C8.21671 10.3471 7.71793 10.5371 7.21918 10.5371ZM5.5171 6.4521C5.26377 7.52877 5.99209 8.49465 6.64918 9.12007C6.97376 9.42874 7.47252 9.42874 7.78918 9.12007C8.43837 8.50257 9.16671 7.53669 8.92129 6.4521C8.70754 5.51002 7.86834 5.1696 7.21918 5.1696C6.57001 5.1696 5.73877 5.51002 5.5171 6.4521Z" fill="#4606C8"/>
<path d="M7.24406 7.51311C6.80864 7.51311 6.45239 7.15686 6.45239 6.72145C6.45239 6.28603 6.80073 5.92978 7.24406 5.92978H7.25198C7.6874 5.92978 8.04365 6.28603 8.04365 6.72145C8.04365 7.15686 7.67948 7.51311 7.24406 7.51311Z" fill="#4606C8"/>
</g>
<defs>
<clipPath id="clip0_115_255">
<rect width="19" height="19" fill="white"/>
</clipPath>
</defs>
</svg>
