<svg width="43" height="43" viewBox="0 0 43 43" fill="none" xmlns="http://www.w3.org/2000/svg">
<path d="M16.125 24.4683C14.3056 24.7317 12.0803 25.2195 11.2109 26.0889C9.63603 27.6638 9.63603 30.2156 11.2109 31.7904C12.7858 33.3653 15.3376 33.3653 16.9124 31.7904C17.7818 30.921 18.2696 28.6971 18.533 26.8763H24.4683C24.7317 28.6958 25.2195 30.921 26.0889 31.7904C27.6638 33.3653 30.2156 33.3653 31.7904 31.7904C33.3653 30.2156 33.3653 27.6638 31.7904 26.0889C30.921 25.2195 28.6971 24.7317 26.8763 24.4683V18.533C28.6958 18.2696 30.921 17.7818 31.7904 16.9124C33.3653 15.3376 33.3653 12.7858 31.7904 11.2109C30.2169 9.63603 27.6638 9.63603 26.0889 11.2109C25.2195 12.0803 24.7317 14.3042 24.4683 16.125H18.533C18.2696 14.3056 17.7818 12.0803 16.9124 11.2109C15.3376 9.63603 12.7858 9.63603 11.2109 11.2109C9.63603 12.7858 9.63603 15.3376 11.2109 16.9124C12.0803 17.7818 14.3042 18.2696 16.125 18.533V24.4683ZM14.9815 29.9186C14.4601 30.4104 13.6297 30.4064 13.1123 29.889C12.599 29.3757 12.5883 28.5453 13.0828 28.0185C13.459 27.7565 14.491 27.4703 15.7528 27.2459C15.5257 28.5063 15.2395 29.5464 14.9815 29.9186ZM29.9186 28.0185C30.4131 28.5439 30.4023 29.3744 29.889 29.8877C29.3717 30.405 28.5412 30.4091 28.0199 29.9172C27.7578 29.541 27.4716 28.509 27.2472 27.2472C28.5063 27.4743 29.5464 27.7605 29.9186 28.0185ZM28.0185 13.0814C28.5386 12.5923 29.369 12.5909 29.8877 13.111C30.401 13.6243 30.4118 14.4547 29.9172 14.9815C29.541 15.2435 28.509 15.5297 27.2486 15.7541C27.4743 14.4937 27.7605 13.4536 28.0185 13.0814ZM13.0814 14.9815C12.5869 14.4561 12.5977 13.6256 13.111 13.1123C13.6323 12.5909 14.4628 12.595 14.9815 13.0828C15.2435 13.459 15.5297 14.491 15.7541 15.7528C14.4937 15.5257 13.4536 15.2395 13.0814 14.9815ZM24.1875 18.8125V24.1875H18.8125V18.8125H24.1875ZM34.9375 5.375H8.0625C6.58438 5.375 5.375 6.58438 5.375 8.0625V34.9375C5.375 36.4156 6.58438 37.625 8.0625 37.625H34.9375C36.4156 37.625 37.625 36.4156 37.625 34.9375V8.0625C37.625 6.58438 36.4156 5.375 34.9375 5.375ZM34.9375 34.9375H8.0625V8.0625H34.9375V34.9375Z" fill="#4606C8"/>
</svg>
