<svg width="32" height="33" viewBox="0 0 32 33" fill="none" xmlns="http://www.w3.org/2000/svg">
<g clip-path="url(#clip0_172_300)">
<path d="M16 0C7.17762 0 0 7.4018 0 16.5C0 25.5982 7.17762 33 16 33C24.8224 33 32 25.5982 32 16.5C32 7.4018 24.8224 0 16 0ZM16 30.3244C8.60825 30.3244 2.59456 24.1227 2.59456 16.5C2.59456 8.87726 8.60825 2.67564 16 2.67564C23.3918 2.67564 29.4054 8.87726 29.4054 16.5C29.4054 24.1227 23.3918 30.3244 16 30.3244Z" fill="#4606C8"/>
<path d="M19.3636 7.61649L16 4.14795L12.6364 7.61662C8.08407 12.3113 8.08407 19.9499 12.6364 24.6446L14.7027 26.7753V28.7438H17.2973V26.7753L19.3636 24.6445C23.9159 19.9498 23.9159 12.3112 19.3636 7.61649ZM17.5289 22.7525L17.2973 22.9913V18.6532H14.7027V22.9913L14.4711 22.7525C10.9304 19.1011 10.9304 13.1598 14.4711 9.50851L16 7.93186L17.5289 9.50858C21.0696 13.1599 21.0696 19.1011 17.5289 22.7525Z" fill="#4606C8"/>
</g>
<defs>
<clipPath id="clip0_172_300">
<rect width="32" height="33" fill="white"/>
</clipPath>
</defs>
</svg>
