<svg width="43" height="43" viewBox="0 0 43 43" fill="none" xmlns="http://www.w3.org/2000/svg">
<path d="M9.98826 3.71613C10.4538 3.9399 10.7499 4.41071 10.7499 4.92726C10.7499 6.41406 11.3091 7.27008 12.0097 8.31257L12.0606 8.3883C12.6564 9.27345 13.4374 10.4338 13.4374 12.0939C13.4374 13.788 12.5825 15.2823 11.2805 16.1691C11.6231 16.4563 11.9265 16.8104 12.1873 17.2325C13.0397 18.612 13.4374 20.7199 13.4374 23.7485C13.4374 26.816 13.0254 30.4997 12.3542 33.4405C12.0205 34.9029 11.6071 36.2519 11.1131 37.2658C10.8681 37.7685 10.5698 38.2596 10.1984 38.6437C9.83104 39.0234 9.26346 39.4256 8.51033 39.4256C7.75721 39.4256 7.18963 39.0234 6.82228 38.6437C6.45085 38.2596 6.15254 37.7685 5.90755 37.2658C5.41356 36.2519 5.00021 34.9029 4.66648 33.4405C3.99528 30.4997 3.58325 26.816 3.58325 23.7485C3.58325 20.7199 3.98098 18.612 4.83339 17.2325C5.09413 16.8104 5.39762 16.4563 5.74015 16.1691C4.4382 15.2823 3.58325 13.788 3.58325 12.0939C3.58325 11.4342 3.58386 10.3003 4.27019 8.83609C4.94185 7.40319 6.21818 5.75681 8.56674 3.87798C8.97009 3.55528 9.5227 3.49237 9.98826 3.71613ZM6.27075 12.0917V12.0939C6.27075 13.3308 7.27344 14.3335 8.51033 14.3335C9.74723 14.3335 10.7499 13.3308 10.7499 12.0939C10.7499 11.3073 10.4188 10.7635 9.77909 9.8116L9.75719 9.77901C9.34713 9.16896 8.86281 8.44845 8.51716 7.52079C7.54378 8.51056 7.00623 9.33116 6.7036 9.97675C6.27075 10.9002 6.27075 11.5573 6.27075 12.0917ZM7.1197 18.6451C6.67517 19.3645 6.27075 20.8399 6.27075 23.7485C6.27075 26.6181 6.66087 30.1011 7.28659 32.8425C7.60131 34.2215 7.9601 35.3426 8.32354 36.0886C8.39044 36.2259 8.45311 36.3413 8.51033 36.4371C8.56756 36.3413 8.63023 36.2259 8.69713 36.0886C9.06057 35.3426 9.41935 34.2215 9.73408 32.8425C10.3598 30.1011 10.7499 26.6181 10.7499 23.7485C10.7499 20.8399 10.3455 19.3645 9.90097 18.6451C9.69869 18.3176 9.49788 18.1626 9.31847 18.0756C9.12527 17.9819 8.86989 17.9256 8.51033 17.9256C8.15078 17.9256 7.8954 17.9819 7.7022 18.0756C7.52279 18.1626 7.32198 18.3176 7.1197 18.6451Z" fill="#4606C8"/>
<path d="M17.9166 26.7263C16.9521 26.5645 16.0312 26.2743 15.172 25.8738C15.2096 25.1459 15.2291 24.433 15.2291 23.7484C15.2291 23.4334 15.2251 23.1243 15.2167 22.8215C16.0249 23.3646 16.9369 23.7654 17.9166 23.9877V18.8125C17.9166 17.3282 19.1198 16.125 20.604 16.125H27.7707C27.7707 11.6722 24.161 8.0625 19.7082 8.0625C17.8657 8.0625 16.1675 8.68059 14.8097 9.72072C14.4522 8.73097 13.9413 7.97283 13.5858 7.44534L13.5137 7.33816C15.2646 6.1015 17.4016 5.375 19.7082 5.375C25.6453 5.375 30.4582 10.1879 30.4582 16.125H36.729C38.2134 16.125 39.4165 17.3282 39.4165 18.8125V34.9375C39.4165 36.4217 38.2134 37.625 36.729 37.625H20.604C19.1198 37.625 17.9166 36.4217 17.9166 34.9375V26.7263ZM20.604 26.8383V34.9375H36.729V18.8125H30.1196C28.9982 23.1698 25.2135 26.4579 20.604 26.8383ZM27.312 18.8125H20.604V24.1382C23.7199 23.7939 26.3007 21.6738 27.312 18.8125Z" fill="#4606C8"/>
</svg>
