<svg width="32" height="33" viewBox="0 0 32 33" fill="none" xmlns="http://www.w3.org/2000/svg">
<g clip-path="url(#clip0_174_327)">
<path d="M0 0V33H32V0H0ZM29.8667 30.8H2.13331V2.19998H29.8666V30.8H29.8667Z" fill="#4606C8"/>
<path d="M14.5777 8.7998C12.8132 8.7998 11.3777 10.2801 11.3777 12.0998C11.3777 13.9195 12.8132 15.3998 14.5777 15.3998C16.3422 15.3998 17.7777 13.9195 17.7777 12.0998C17.7777 10.2801 16.3422 8.7998 14.5777 8.7998ZM14.5777 13.1998C13.9895 13.1998 13.511 12.7064 13.511 12.0998C13.511 11.4932 13.9895 10.9998 14.5777 10.9998C15.1659 10.9998 15.6444 11.4932 15.6444 12.0998C15.6444 12.7064 15.1659 13.1998 14.5777 13.1998Z" fill="#4606C8"/>
<path d="M15.9999 4.3999C9.53016 4.3999 4.2666 9.82795 4.2666 16.4999C4.2666 23.1718 9.53016 28.5999 15.9999 28.5999C22.4697 28.5999 27.7332 23.1718 27.7332 16.4999C27.7332 9.82795 22.4697 4.3999 15.9999 4.3999ZM6.39991 16.4999C6.39991 11.041 10.7065 6.59988 15.9999 6.59988C20.574 6.59988 24.4106 9.91619 25.369 14.3395L23.1111 12.0109L14.5777 20.811L8.88885 14.9443L6.44554 17.464C6.41566 17.1466 6.39991 16.8251 6.39991 16.4999ZM15.9999 26.3999C11.8962 26.3999 8.38635 23.7306 7.01554 19.9874L8.88892 18.0555L14.5778 23.9221L23.1111 15.1221L25.5376 17.6245C24.9944 22.5558 20.9246 26.3999 15.9999 26.3999Z" fill="#4606C8"/>
</g>
<defs>
<clipPath id="clip0_174_327">
<rect width="32" height="33" fill="white"/>
</clipPath>
</defs>
</svg>
