<svg width="20" height="20" viewBox="0 0 20 20" fill="none" xmlns="http://www.w3.org/2000/svg">
<path d="M14.1667 17.7083H5.83341C2.79175 17.7083 1.04175 15.9583 1.04175 12.9167V7.08332C1.04175 4.04166 2.79175 2.29166 5.83341 2.29166H14.1667C17.2084 2.29166 18.9584 4.04166 18.9584 7.08332V12.9167C18.9584 15.9583 17.2084 17.7083 14.1667 17.7083ZM5.83341 3.54166C3.45008 3.54166 2.29175 4.69999 2.29175 7.08332V12.9167C2.29175 15.3 3.45008 16.4583 5.83341 16.4583H14.1667C16.5501 16.4583 17.7084 15.3 17.7084 12.9167V7.08332C17.7084 4.69999 16.5501 3.54166 14.1667 3.54166H5.83341Z" fill="#4606C8"/>
<path d="M9.999 10.7233C9.299 10.7233 8.59067 10.5067 8.049 10.065L5.44067 7.98169C5.174 7.76503 5.12401 7.37336 5.34067 7.10669C5.55733 6.84003 5.94901 6.79003 6.21567 7.00669L8.824 9.09001C9.45733 9.59834 10.5323 9.59834 11.1657 9.09001L13.774 7.00669C14.0407 6.79003 14.4407 6.83169 14.649 7.10669C14.8657 7.37336 14.824 7.77336 14.549 7.98169L11.9407 10.065C11.4073 10.5067 10.699 10.7233 9.999 10.7233Z" fill="#4606C8"/>
</svg>
