<svg width="502" height="502" viewBox="0 0 502 502" fill="none" xmlns="http://www.w3.org/2000/svg">
<g clip-path="url(#clip0_161_121)">
<path d="M325.485 10.6745L322.155 14.0044L487.871 179.721L491.201 176.391L325.485 10.6745Z" fill="white"/>
<path d="M245.483 0.00448017L242.153 3.33435L498.553 259.734L501.883 256.405L245.483 0.00448017Z" fill="white"/>
<path d="M185.459 9.09054L182.129 12.4204L489.587 319.878L492.917 316.549L185.459 9.09054Z" fill="white"/>
<path d="M135.87 28.8324L132.54 32.1622L469.745 369.367L473.075 366.037L135.87 28.8324Z" fill="white"/>
<path d="M281.766 1.51095L278.436 4.84082L496.987 223.391L500.316 220.061L281.766 1.51095Z" fill="white"/>
<path d="M213.862 2.9382L210.532 6.26807L495.68 291.416L499.01 288.086L213.862 2.9382Z" fill="white"/>
<path d="M159.61 17.7956L156.28 21.1255L480.832 345.677L484.162 342.347L159.61 17.7956Z" fill="white"/>
<path d="M114.238 41.755L110.908 45.0848L456.771 390.947L460.101 387.618L114.238 41.755Z" fill="white"/>
<path d="M94.3826 56.4548L91.0527 59.7847L442.132 410.864L445.462 407.534L94.3826 56.4548Z" fill="white"/>
<path d="M76.303 72.9299L72.9731 76.2598L425.717 429.004L429.047 425.674L76.303 72.9299Z" fill="white"/>
<path d="M59.8882 91.0699L56.5583 94.3998L407.638 445.479L410.968 442.149L59.8882 91.0699Z" fill="white"/>
<path d="M45.0276 110.986L41.6978 114.316L387.56 460.178L390.89 456.848L45.0276 110.986Z" fill="white"/>
<path d="M32.1648 132.678L28.835 136.007L366.04 473.212L369.37 469.882L32.1648 132.678Z" fill="white"/>
<path d="M21.1889 156.256L17.859 159.586L342.41 484.138L345.74 480.808L21.1889 156.256Z" fill="white"/>
<path d="M12.4331 182.055L9.10327 185.385L316.561 492.843L319.891 489.513L12.4331 182.055Z" fill="white"/>
<path d="M6.22977 210.629L2.8999 213.959L288.048 499.107L291.378 495.777L6.22977 210.629Z" fill="white"/>
<path d="M3.35685 242.311L0.0269775 245.64L256.427 502.04L259.757 498.711L3.35685 242.311Z" fill="white"/>
<path d="M4.9235 278.432L1.59363 281.762L220.144 500.312L223.474 496.982L4.9235 278.432Z" fill="white"/>
<path d="M14.1492 322.211L10.8193 325.54L176.536 491.257L179.866 487.927L14.1492 322.211Z" fill="white"/>
<path d="M391.404 42.0396L388.074 45.3695L456.558 113.854L459.888 110.524L391.404 42.0396Z" fill="white"/>
<path d="M45.4623 388.079L42.1324 391.409L110.617 459.894L113.947 456.564L45.4623 388.079Z" fill="white"/>
</g>
<defs>
<clipPath id="clip0_161_121">
<rect width="502" height="502" fill="white"/>
</clipPath>
</defs>
</svg>
