<svg width="139" height="60" viewBox="0 0 139 60" fill="none" xmlns="http://www.w3.org/2000/svg">
<g clip-path="url(#clip0_310_117)">
<path fill-rule="evenodd" clip-rule="evenodd" d="M0 43.2764H138.706V60.0001H0V43.2764Z" fill="#71AA02"/>
<path d="M15.5751 0.880196C19.3953 0.880196 22.481 2.05379 24.8319 4.40098C27.1829 6.74817 28.3584 9.82885 28.3584 13.643C28.3584 17.4572 27.1829 20.5379 24.685 22.8851C22.1871 25.2323 18.9545 26.4059 15.1342 26.4059H7.78753V38.1418H0V0.880196H15.5751ZM7.78753 20.2445H13.371C15.5751 20.2445 17.3383 19.6577 18.6607 18.4841C19.8362 17.3105 20.5708 15.6968 20.5708 13.643C20.5708 11.5892 19.9831 9.82885 18.6607 8.80196C17.4852 7.62836 15.722 7.04156 13.518 7.04156H7.78753V20.2445ZM50.6924 0.146699C56.2759 0.146699 60.537 1.90709 63.7696 5.28117C67.0021 8.80196 68.6184 13.4963 68.6184 19.3643C68.6184 25.2323 67.0021 29.9266 63.7696 33.4474C60.537 36.9682 56.129 38.5819 50.6924 38.5819C45.1089 38.5819 40.8478 36.8215 37.6152 33.4474C34.3827 29.9266 32.7664 25.379 32.7664 19.3643C32.7664 13.4963 34.3827 8.80196 37.6152 5.28117C40.7008 1.90709 45.1089 0.146699 50.6924 0.146699ZM50.6924 6.60147C47.6068 6.60147 45.2558 7.77506 43.3457 10.1222C41.5825 12.4694 40.5539 15.5501 40.5539 19.3643C40.5539 23.1785 41.4355 26.4059 43.1987 28.6064C44.9619 30.9535 47.4598 31.9804 50.5455 31.9804C53.6311 31.9804 55.982 30.8068 57.8922 28.6064C59.6554 26.2592 60.537 23.1785 60.537 19.3643C60.537 15.4034 59.6554 12.3227 57.8922 10.1222C56.129 7.77506 53.6311 6.60147 50.6924 6.60147ZM90.8055 38.8753C85.3689 38.8753 81.1078 37.1149 77.8753 33.5941C74.6427 30.0733 73.1734 25.379 73.1734 19.3643C73.1734 13.3496 74.7896 8.65526 78.0222 5.13447C81.1078 1.76039 85.3689 0 90.8055 0C95.2135 0 98.8869 1.17359 101.826 3.66748C104.911 6.16137 106.527 9.38875 107.115 13.3496H99.4746C99.0338 11.2958 98.0053 9.68215 96.389 8.36186C94.7727 7.18826 93.0095 6.60147 90.8055 6.60147C87.8668 6.60147 85.5159 7.77506 83.7526 9.97555C81.9894 12.3227 81.1078 15.4034 81.1078 19.3643C81.1078 23.3252 81.9894 26.4059 83.7526 28.7531C85.5159 31.1002 87.8668 32.2738 90.8055 32.2738C93.0095 32.2738 94.9197 31.687 96.389 30.5134C97.8584 29.3399 98.8869 27.8729 99.4746 25.8191H107.115C106.527 29.78 104.764 33.0073 101.826 35.3545C98.8869 37.7017 95.2135 38.8753 90.8055 38.8753ZM120.192 37.9951V7.18826H109.319V0.880196H139V7.33496H128.127V38.1418H120.192V37.9951Z" fill="white"/>
</g>
<path d="M7.224 49.225H3.726V55H4.375V49.841H6.575V55H7.224V49.225ZM10.4601 55.132C11.6151 55.132 12.3851 54.395 12.3851 53.042V51.183C12.3851 49.83 11.6151 49.093 10.4601 49.093C9.30515 49.093 8.53515 49.83 8.53515 51.183V53.042C8.53515 54.395 9.30515 55.132 10.4601 55.132ZM10.4601 54.494C9.67915 54.494 9.19515 54.043 9.19515 53.042V51.183C9.19515 50.182 9.67915 49.731 10.4601 49.731C11.2411 49.731 11.7251 50.182 11.7251 51.183V53.042C11.7251 54.043 11.2411 54.494 10.4601 54.494ZM13.0238 55.044C14.0578 55.044 14.4428 54.164 14.5418 52.426C14.5748 51.799 14.6298 50.699 14.6518 49.841H16.3348V55H16.9838V49.225H14.0138C13.9918 50.303 13.9698 51.26 13.9038 52.327C13.8268 53.482 13.7058 54.417 13.0238 54.417V55.044ZM18.4321 55H19.1031L20.8961 51.381C21.0831 50.996 21.2811 50.589 21.3581 50.336L21.3801 50.347C21.3581 50.809 21.3361 51.282 21.3361 51.887V55H21.9851V49.225H21.3141L19.4661 52.987C19.3561 53.218 19.1801 53.614 19.0811 53.845L19.0591 53.823C19.0921 53.394 19.0811 52.954 19.0811 52.525V49.225H18.4321V55ZM26.3089 49.225H23.4379V55H24.0869V49.852H26.3089V49.225ZM29.1777 49.093C28.6167 49.093 28.1217 49.335 27.8137 49.764L27.7257 49.225H27.1977V56.98H27.8357V54.483C28.1547 54.923 28.6607 55.132 29.1777 55.132C30.2887 55.132 30.9707 54.395 30.9707 52.965V51.304C30.9707 49.841 30.2227 49.093 29.1777 49.093ZM30.3107 52.965C30.3107 54.065 29.8817 54.527 29.0347 54.527C28.3087 54.527 27.8357 53.889 27.8357 52.965V51.282C27.8357 50.204 28.3747 49.698 29.0347 49.698C29.8377 49.698 30.3107 50.171 30.3107 51.304V52.965ZM33.9727 49.093C32.9057 49.093 32.1907 49.742 32.1467 50.732H32.7957C32.8397 50.094 33.2907 49.72 33.9507 49.72C34.6987 49.72 35.0947 50.171 35.0947 51.018V51.634H33.9507C32.6857 51.634 31.9707 52.25 31.9707 53.361C31.9707 54.483 32.7407 55.132 33.7967 55.132C34.4237 55.132 34.8637 54.846 35.1277 54.461L35.1827 55H35.7437V51.007C35.7437 49.83 35.0727 49.093 33.9727 49.093ZM33.8957 54.494C33.1477 54.494 32.6307 54.131 32.6307 53.372C32.6307 52.635 33.0817 52.239 33.9287 52.239H35.0947V53.372C35.0947 54.032 34.6327 54.494 33.8957 54.494ZM40.4547 49.137H40.1687V47.08H39.5307V49.137H39.2447C38.0347 49.137 37.0557 49.973 37.0557 51.425V52.855C37.0557 54.274 38.0457 55.088 39.2447 55.088H39.5307V56.98H40.1687V55.088H40.4547C41.6537 55.088 42.6437 54.274 42.6437 52.855V51.425C42.6437 49.973 41.6647 49.137 40.4547 49.137ZM39.2447 54.45C38.4087 54.45 37.7157 53.922 37.7157 52.855V51.425C37.7157 50.314 38.3977 49.775 39.2447 49.775H39.5307V54.45H39.2447ZM41.9837 52.855C41.9837 53.922 41.2907 54.45 40.4547 54.45H40.1687V49.775H40.4547C41.3017 49.775 41.9837 50.314 41.9837 51.425V52.855ZM43.9555 55H44.6265L46.4195 51.381C46.6065 50.996 46.8045 50.589 46.8815 50.336L46.9035 50.347C46.8815 50.809 46.8595 51.282 46.8595 51.887V55H47.5085V49.225H46.8375L44.9895 52.987C44.8795 53.218 44.7035 53.614 44.6045 53.845L44.5825 53.823C44.6155 53.394 44.6045 52.954 44.6045 52.525V49.225H43.9555V55ZM51.5354 49.225V52.173C51.1724 52.393 50.8094 52.415 50.4354 52.415C49.7644 52.415 49.2474 51.953 49.2474 50.787V49.225H48.5984V50.787C48.5984 52.305 49.4124 53.053 50.3804 53.053C50.7764 53.053 51.1614 53.02 51.5354 52.822V55H52.1844V49.225H51.5354ZM56.7142 53.229C56.6262 54.076 56.2082 54.472 55.3722 54.472C54.6132 54.472 54.1512 54.021 54.1512 53.053V52.426H57.2862V51.15C57.2862 49.83 56.5162 49.093 55.3612 49.093C54.2392 49.093 53.4912 49.83 53.4912 51.15V53.053C53.4912 54.373 54.2282 55.11 55.3502 55.11C56.5602 55.11 57.2752 54.439 57.3632 53.229H56.7142ZM55.3722 49.731C56.1642 49.731 56.6372 50.182 56.6372 51.15V51.821H54.1512V51.15C54.1512 50.182 54.6132 49.731 55.3722 49.731ZM60.2914 55.11C61.4354 55.11 62.1724 54.373 62.2054 53.053H61.5454C61.5124 54.021 61.0614 54.472 60.2914 54.472C59.5544 54.472 59.1034 54.021 59.1034 53.053V51.15C59.1034 50.182 59.5544 49.731 60.2914 49.731C61.0614 49.731 61.5014 50.182 61.5344 51.15H62.1944C62.1614 49.83 61.4354 49.093 60.2914 49.093C59.1804 49.093 58.4434 49.83 58.4434 51.15V53.053C58.4434 54.373 59.1804 55.11 60.2914 55.11ZM66.4474 55H67.2504L64.8634 51.733L66.9644 49.225H66.1284L64.8414 50.798C64.5554 51.15 64.2694 51.502 63.9834 51.843V49.225H63.3344V55H63.9834V52.789L64.4344 52.239L66.4474 55ZM69.5422 55.132C70.6972 55.132 71.4672 54.395 71.4672 53.042V51.183C71.4672 49.83 70.6972 49.093 69.5422 49.093C68.3872 49.093 67.6172 49.83 67.6172 51.183V53.042C67.6172 54.395 68.3872 55.132 69.5422 55.132ZM69.5422 54.494C68.7612 54.494 68.2772 54.043 68.2772 53.042V51.183C68.2772 50.182 68.7612 49.731 69.5422 49.731C70.3232 49.731 70.8072 50.182 70.8072 51.183V53.042C70.8072 54.043 70.3232 54.494 69.5422 54.494ZM75.8568 53.229C75.7688 54.076 75.3508 54.472 74.5148 54.472C73.7558 54.472 73.2938 54.021 73.2938 53.053V52.426H76.4288V51.15C76.4288 49.83 75.6588 49.093 74.5038 49.093C73.3818 49.093 72.6338 49.83 72.6338 51.15V53.053C72.6338 54.373 73.3708 55.11 74.4928 55.11C75.7028 55.11 76.4178 54.439 76.5058 53.229H75.8568ZM74.5148 49.731C75.3068 49.731 75.7798 50.182 75.7798 51.15V51.821H73.2938V51.15C73.2938 50.182 73.7558 49.731 74.5148 49.731ZM83.7406 49.225H80.2426V55H80.8916V49.841H83.0916V55H83.7406V49.225ZM87.1748 49.093C86.6138 49.093 86.1188 49.335 85.8108 49.764L85.7228 49.225H85.1947V56.98H85.8328V54.483C86.1518 54.923 86.6578 55.132 87.1748 55.132C88.2858 55.132 88.9678 54.395 88.9678 52.965V51.304C88.9678 49.841 88.2198 49.093 87.1748 49.093ZM88.3078 52.965C88.3078 54.065 87.8788 54.527 87.0318 54.527C86.3058 54.527 85.8328 53.889 85.8328 52.965V51.282C85.8328 50.204 86.3718 49.698 87.0318 49.698C87.8348 49.698 88.3078 50.171 88.3078 51.304V52.965ZM93.3558 53.229C93.2678 54.076 92.8498 54.472 92.0138 54.472C91.2548 54.472 90.7928 54.021 90.7928 53.053V52.426H93.9278V51.15C93.9278 49.83 93.1578 49.093 92.0028 49.093C90.8808 49.093 90.1328 49.83 90.1328 51.15V53.053C90.1328 54.373 90.8698 55.11 91.9918 55.11C93.2018 55.11 93.9168 54.439 94.0048 53.229H93.3558ZM92.0138 49.731C92.8058 49.731 93.2788 50.182 93.2788 51.15V51.821H90.7928V51.15C90.7928 50.182 91.2548 49.731 92.0138 49.731ZM94.502 56.265H95.14V55H98.583V56.265H99.221V54.384H98.583V49.225H95.591C95.58 50.083 95.547 50.919 95.492 51.777C95.415 52.877 95.228 53.801 94.92 54.384H94.502V56.265ZM95.635 54.384C95.866 53.823 96.031 52.998 96.119 51.876C96.174 51.194 96.196 50.523 96.207 49.841H97.934V54.384H95.635ZM103.624 49.225H100.126V55H100.775V49.841H102.975V55H103.624V49.225ZM107.059 49.093C106.498 49.093 106.003 49.335 105.695 49.764L105.607 49.225H105.079V56.98H105.717V54.483C106.036 54.923 106.542 55.132 107.059 55.132C108.17 55.132 108.852 54.395 108.852 52.965V51.304C108.852 49.841 108.104 49.093 107.059 49.093ZM108.192 52.965C108.192 54.065 107.763 54.527 106.916 54.527C106.19 54.527 105.717 53.889 105.717 52.965V51.282C105.717 50.204 106.256 49.698 106.916 49.698C107.719 49.698 108.192 50.171 108.192 51.304V52.965ZM110.16 55H110.831L112.624 51.381C112.811 50.996 113.009 50.589 113.086 50.336L113.108 50.347C113.086 50.809 113.064 51.282 113.064 51.887V55H113.713V49.225H113.042L111.194 52.987C111.084 53.218 110.908 53.614 110.809 53.845L110.787 53.823C110.82 53.394 110.809 52.954 110.809 52.525V49.225H110.16V55ZM116.595 49.225C115.495 49.225 114.769 49.962 114.769 51.062C114.769 52.008 115.242 52.701 115.968 52.855L114.571 55H115.341L116.661 52.888H117.541V55H118.19V49.225H116.595ZM117.541 52.283H116.529C115.803 52.283 115.429 51.843 115.429 51.062C115.429 50.303 115.858 49.852 116.595 49.852H117.541V52.283ZM122.495 49.225H118.986V49.83H120.416V55H121.065V49.83H122.495V49.225ZM123.351 55H124.022L125.815 51.381C126.002 50.996 126.2 50.589 126.277 50.336L126.299 50.347C126.277 50.809 126.255 51.282 126.255 51.887V55H126.904V49.225H126.233L124.385 52.987C124.275 53.218 124.099 53.614 124 53.845L123.978 53.823C124.011 53.394 124 52.954 124 52.525V49.225H123.351V55ZM131.437 53.229C131.349 54.076 130.931 54.472 130.095 54.472C129.336 54.472 128.874 54.021 128.874 53.053V52.426H132.009V51.15C132.009 49.83 131.239 49.093 130.084 49.093C128.962 49.093 128.214 49.83 128.214 51.15V53.053C128.214 54.373 128.951 55.11 130.073 55.11C131.283 55.11 131.998 54.439 132.086 53.229H131.437ZM130.095 49.731C130.887 49.731 131.36 50.182 131.36 51.15V51.821H128.874V51.15C128.874 50.182 129.336 49.731 130.095 49.731Z" fill="white"/>
<defs>
<clipPath id="clip0_310_117">
<rect width="139" height="60" fill="white"/>
</clipPath>
</defs>
</svg>
