<svg width="110" height="110" viewBox="0 0 110 110" fill="none" xmlns="http://www.w3.org/2000/svg">
<g clip-path="url(#clip0_151_38)">
<path d="M55 110C85.3757 110 110 85.3757 110 55C110 24.6243 85.3757 0 55 0C24.6243 0 0 24.6243 0 55C0 85.3757 24.6243 110 55 110Z" fill="#F96C00"/>
<path d="M55 110C85.3757 110 110 85.3757 110 55C110 24.6243 85.3757 0 55 0C24.6243 0 0 24.6243 0 55C0 85.3757 24.6243 110 55 110Z" fill="url(#paint0_linear_151_38)"/>
<path d="M72.0755 51.132L48.9623 35.283C47.9246 34.5282 46.7925 34.1509 45.9435 34.1509C44.151 34.1509 43.1133 35.566 43.1133 37.8301V72.0754C43.1133 74.4339 44.151 75.7547 45.8491 75.7547C46.7925 75.7547 47.8303 75.3773 48.868 74.6226L71.9812 58.7735C73.4906 57.7358 74.3397 56.415 74.3397 54.9056C74.3397 53.3962 73.585 52.1697 72.0755 51.132Z" fill="white"/>
</g>
<defs>
<linearGradient id="paint0_linear_151_38" x1="55" y1="0" x2="55" y2="110" gradientUnits="userSpaceOnUse">
<stop stop-color="#4606C8"/>
<stop offset="1" stop-color="#762ABE"/>
</linearGradient>
<clipPath id="clip0_151_38">
<rect width="110" height="110" fill="white"/>
</clipPath>
</defs>
</svg>
