<svg width="447" height="447" viewBox="0 0 447 447" fill="none" xmlns="http://www.w3.org/2000/svg">
<g clip-path="url(#clip0_165_166)">
<path d="M267.872 161.079C267.188 161.079 266.504 160.942 265.957 160.532C253.377 152.054 238.746 147.541 223.432 147.541C220.697 147.541 217.962 147.678 215.227 147.952C213.313 148.225 211.672 146.858 211.399 144.943C211.262 143.029 212.492 141.388 214.407 141.115C217.415 140.841 220.423 140.568 223.432 140.568C239.977 140.568 255.975 145.49 269.786 154.652C271.29 155.746 271.7 157.797 270.743 159.438C270.06 160.532 268.966 161.079 267.872 161.079Z" fill="#4606C8" fill-opacity="0.05"/>
<path d="M150.003 196.631C149.593 196.631 149.182 196.494 148.635 196.357C146.858 195.674 146.037 193.623 146.721 191.845C155.199 171.197 172.018 154.652 192.802 146.448C194.58 145.764 196.494 146.584 197.178 148.362C197.862 150.14 197.041 152.054 195.264 152.738C176.257 160.258 160.805 175.436 153.011 194.443C152.738 195.81 151.37 196.631 150.003 196.631Z" fill="#4606C8" fill-opacity="0.05"/>
<path d="M223.432 306.296C181.316 306.296 146.037 274.846 141.251 233.14C140.978 231.226 142.345 229.585 144.26 229.311C146.174 229.038 147.815 230.405 148.088 232.32C152.464 270.607 185.008 299.459 223.568 299.459C238.746 299.459 253.514 294.946 266.094 286.468C267.598 285.374 269.786 285.785 270.88 287.426C271.974 288.93 271.564 291.118 269.923 292.211C256.112 301.373 240.114 306.296 223.432 306.296Z" fill="#4606C8" fill-opacity="0.05"/>
<path d="M295.22 260.898C294.673 260.898 294.262 260.761 293.715 260.625C292.075 259.804 291.254 257.753 292.075 256.112C296.86 245.857 299.322 235.054 299.322 223.568C299.322 204.698 292.348 186.512 279.631 172.565C278.401 171.197 278.401 169.009 279.905 167.779C281.272 166.548 283.46 166.548 284.691 168.052C298.501 183.367 306.159 203.058 306.159 223.705C306.159 236.148 303.424 248.045 298.228 259.121C297.818 260.078 296.587 260.898 295.22 260.898Z" fill="#4606C8" fill-opacity="0.05"/>
<path d="M223.432 257.616C204.562 257.616 189.384 242.302 189.384 223.568C189.384 206.886 201.28 192.802 217.689 189.931C219.603 189.657 221.38 190.888 221.654 192.665C221.927 194.58 220.697 196.357 218.919 196.631C205.792 198.955 196.357 210.168 196.357 223.432C196.357 238.473 208.527 250.643 223.568 250.643C227.67 250.643 231.636 249.686 235.328 247.908C236.969 247.088 239.02 247.771 239.84 249.549C240.661 251.19 239.977 253.241 238.199 254.061C233.687 256.386 228.628 257.616 223.432 257.616Z" fill="#4606C8" fill-opacity="0.05"/>
<path d="M252.694 236.148C252.42 236.148 252.01 236.148 251.6 236.012C249.822 235.465 248.865 233.55 249.412 231.773C250.232 229.175 250.643 226.303 250.643 223.568C250.643 216.321 247.771 209.484 242.712 204.288C241.344 202.921 241.344 200.733 242.712 199.502C244.079 198.135 246.267 198.135 247.498 199.502C253.924 205.929 257.48 214.544 257.48 223.568C257.48 227.124 256.933 230.542 255.839 233.824C255.565 235.191 254.198 236.148 252.694 236.148Z" fill="#4606C8" fill-opacity="0.05"/>
<path d="M309.03 134.278C308.21 134.278 307.389 134.004 306.706 133.321C281.956 110.485 249.002 98.7257 214.954 101.05C213.039 101.187 211.399 99.8196 211.262 97.9052C211.125 95.9909 212.493 94.35 214.407 94.2133C250.232 91.752 285.101 104.058 311.218 128.261C312.586 129.492 312.722 131.68 311.355 133.047C310.945 133.868 309.987 134.278 309.03 134.278Z" fill="#4606C8" fill-opacity="0.05"/>
<path d="M109.118 173.522C108.571 173.522 108.161 173.385 107.614 173.248C105.836 172.428 105.152 170.377 105.973 168.736C120.604 137.286 147.815 112.81 180.496 101.324C182.273 100.64 184.188 101.597 184.871 103.375C185.555 105.152 184.598 107.067 182.82 107.75C151.917 118.553 126.21 141.935 112.263 171.608C111.716 172.838 110.485 173.522 109.118 173.522Z" fill="#4606C8" fill-opacity="0.05"/>
<path d="M132.5 314.226C131.543 314.226 130.723 313.816 130.039 313.132C106.793 288.93 93.9397 257.069 93.9397 223.432C93.9397 220.15 94.0764 216.731 94.3499 213.45C94.4867 211.535 96.1275 210.168 98.0419 210.305C99.9562 210.441 101.324 212.082 101.187 213.997C100.913 217.142 100.777 220.287 100.777 223.432C100.777 255.292 112.946 285.511 134.961 308.483C136.329 309.851 136.192 312.039 134.825 313.269C134.278 313.953 133.321 314.226 132.5 314.226Z" fill="#4606C8" fill-opacity="0.05"/>
<path d="M223.432 353.06C204.835 353.06 186.786 349.232 169.967 341.574C168.189 340.754 167.505 338.703 168.326 337.062C169.146 335.284 171.061 334.6 172.838 335.421C188.837 342.668 205.792 346.36 223.432 346.36C252.831 346.36 281.409 335.831 303.561 316.551C304.928 315.32 307.116 315.457 308.347 316.961C309.577 318.329 309.441 320.516 307.936 321.747C284.691 341.848 254.608 353.06 223.432 353.06Z" fill="#4606C8" fill-opacity="0.05"/>
<path d="M332.549 290.16C332.002 290.16 331.319 290.024 330.772 289.75C329.131 288.793 328.584 286.742 329.541 285.101C340.343 266.504 346.086 245.173 346.086 223.568C346.086 201.964 340.343 180.632 329.541 162.036C328.584 160.395 329.131 158.344 330.772 157.387C332.413 156.429 334.464 156.976 335.421 158.617C346.907 178.308 352.923 200.733 352.923 223.568C352.923 246.404 346.907 268.966 335.421 288.519C334.874 289.613 333.78 290.16 332.549 290.16Z" fill="#4606C8" fill-opacity="0.05"/>
<path d="M127.304 263.906C125.937 263.906 124.569 263.086 124.159 261.719C119.51 249.549 117.049 236.695 117.049 223.432C117.049 198.408 125.937 174.069 142.072 154.925C143.302 153.421 145.49 153.284 146.858 154.515C148.362 155.746 148.499 157.934 147.268 159.301C132.227 177.214 123.886 200.049 123.886 223.432C123.886 235.738 126.073 247.771 130.449 259.257C131.133 261.035 130.312 262.949 128.535 263.633C128.124 263.77 127.714 263.906 127.304 263.906Z" fill="#4606C8" fill-opacity="0.05"/>
<path d="M223.432 329.951C189.384 329.951 157.113 313.406 137.149 285.785C136.055 284.28 136.329 282.093 137.97 280.999C139.474 279.905 141.662 280.178 142.756 281.819C161.489 307.663 191.708 323.114 223.568 323.114C225.483 323.114 226.987 324.619 226.987 326.533C226.85 328.447 225.346 329.951 223.432 329.951Z" fill="#4606C8" fill-opacity="0.05"/>
<path d="M280.588 312.722C279.495 312.722 278.401 312.175 277.717 311.218C276.623 309.714 277.033 307.526 278.674 306.432C306.432 287.836 323.114 256.933 323.114 223.432C323.114 221.517 324.618 220.013 326.533 220.013C328.447 220.013 329.951 221.517 329.951 223.432C329.951 259.121 312.175 292.211 282.503 312.039C281.956 312.449 281.272 312.722 280.588 312.722Z" fill="#4606C8" fill-opacity="0.05"/>
<path d="M322.02 196.631C320.516 196.631 319.149 195.674 318.739 194.169C308.757 161.489 281.956 135.645 248.728 127.031C246.951 126.62 245.857 124.706 246.267 122.792C246.677 121.014 248.592 119.92 250.506 120.33C285.921 129.629 314.5 157.113 325.302 192.118C325.849 193.896 324.892 195.81 322.978 196.357C322.704 196.631 322.294 196.631 322.02 196.631Z" fill="#4606C8" fill-opacity="0.05"/>
<path d="M178.308 134.278C177.077 134.278 175.847 133.594 175.3 132.363C174.479 130.723 175.163 128.672 176.804 127.851C190.888 121.014 205.929 117.459 221.517 117.185C223.432 117.185 224.936 118.69 224.936 120.604C224.936 122.518 223.432 124.022 221.517 124.022C206.886 124.296 192.802 127.714 179.675 134.004C179.402 134.141 178.855 134.278 178.308 134.278Z" fill="#4606C8" fill-opacity="0.05"/>
<path d="M269.513 195.81C268.419 195.81 267.325 195.263 266.641 194.306C256.933 179.949 240.798 171.334 223.432 171.334C219.876 171.334 216.321 171.744 212.903 172.428C210.988 172.838 209.211 171.607 208.801 169.83C208.39 167.916 209.621 166.138 211.399 165.728C215.227 164.907 219.33 164.497 223.295 164.497C242.849 164.497 261.172 174.206 272.111 190.477C273.205 191.982 272.795 194.169 271.154 195.263C270.88 195.674 270.196 195.81 269.513 195.81Z" fill="#4606C8" fill-opacity="0.05"/>
<path d="M186.786 268.692C185.965 268.692 185.145 268.419 184.598 267.872C171.881 256.659 164.497 240.524 164.497 223.568C164.497 205.656 172.565 188.837 186.512 177.624C188.016 176.393 190.067 176.667 191.298 178.171C192.529 179.675 192.255 181.726 190.751 182.957C178.308 192.939 171.334 207.707 171.334 223.568C171.334 238.61 177.761 252.831 189.11 262.676C190.477 263.906 190.614 266.094 189.384 267.462C188.7 268.282 187.743 268.692 186.786 268.692Z" fill="#4606C8" fill-opacity="0.05"/>
<path d="M228.491 282.229C226.713 282.229 225.209 280.862 225.072 279.084C224.936 277.17 226.303 275.529 228.217 275.393C255.292 272.931 275.666 250.643 275.666 223.432C275.666 221.517 277.17 220.013 279.084 220.013C280.999 220.013 282.503 221.517 282.503 223.432C282.503 254.198 259.394 279.358 228.901 282.093C228.628 282.229 228.628 282.229 228.491 282.229Z" fill="#4606C8" fill-opacity="0.05"/>
<path d="M57.7039 173.112C57.2936 173.112 57.0202 173.112 56.6099 172.975C54.8323 172.428 53.8752 170.514 54.4221 168.736C65.3612 135.098 85.8721 105.836 113.767 83.8211C142.072 61.5326 176.12 48.5424 212.082 46.3546C213.997 46.2179 215.637 47.722 215.774 49.4996C215.911 51.4139 214.407 53.0548 212.629 53.1915C143.303 57.4305 82.4536 104.742 60.9856 170.65C60.5754 172.155 59.208 173.112 57.7039 173.112Z" fill="#4606C8" fill-opacity="0.05"/>
<path d="M165.591 391.347C165.181 391.347 164.771 391.347 164.497 391.21C97.3583 367.555 50.867 306.432 46.2179 235.465C46.0811 233.55 47.5853 231.909 49.3629 231.773C51.2772 231.636 52.9181 233.14 53.0548 234.918C57.5672 303.15 102.144 361.948 166.822 384.647C168.599 385.331 169.557 387.245 168.873 389.023C168.326 390.39 167.095 391.347 165.591 391.347Z" fill="#4606C8" fill-opacity="0.05"/>
<path d="M223.432 401.056C221.517 401.056 220.013 399.552 220.013 397.637C220.013 395.723 221.517 394.219 223.432 394.219C302.33 394.219 370.563 340.754 389.296 264.317C389.706 262.539 391.621 261.308 393.398 261.855C395.176 262.266 396.407 264.18 395.86 265.958C386.561 303.834 364.546 338.156 333.78 362.632C302.193 387.792 264.043 401.056 223.432 401.056Z" fill="#4606C8" fill-opacity="0.05"/>
<path d="M397.09 242.165C396.953 242.165 396.953 242.165 396.817 242.165C394.902 242.028 393.535 240.387 393.672 238.473C394.082 233.55 394.355 228.491 394.355 223.568C394.355 173.385 372.34 125.937 334.053 93.3927C332.549 92.1621 332.413 89.9743 333.643 88.6069C334.874 87.1027 337.062 86.966 338.429 88.1967C378.22 122.108 401.056 171.334 401.056 223.568C401.056 228.764 400.782 233.961 400.372 239.02C400.372 240.797 398.868 242.165 397.09 242.165Z" fill="#4606C8" fill-opacity="0.05"/>
<path d="M311.492 76.5738C310.945 76.5738 310.261 76.4371 309.714 76.1636C290.434 64.8143 269.376 57.4304 247.224 54.4221C245.31 54.1486 244.079 52.371 244.353 50.5934C244.626 48.6791 246.404 47.4484 248.181 47.7219C271.29 51.0036 293.168 58.5243 313.269 70.2838C314.91 71.241 315.457 73.2921 314.5 74.933C313.816 75.8901 312.722 76.5738 311.492 76.5738Z" fill="#4606C8" fill-opacity="0.05"/>
<path d="M87.2395 54.1487C86.2824 54.1487 85.1885 53.7384 84.5048 52.7813C83.2741 51.2771 83.5476 49.0893 85.0517 47.9954C124.843 16.5454 172.701 0 223.432 0C257.89 0 290.981 7.65739 321.61 22.6987C323.251 23.5191 324.072 25.5702 323.114 27.2111C322.294 28.8519 320.243 29.6724 318.602 28.7152C288.93 14.2209 256.933 6.83695 223.432 6.83695C174.206 6.83695 127.851 22.9722 89.2906 53.3282C88.7437 53.8752 87.9232 54.1487 87.2395 54.1487Z" fill="#4606C8" fill-opacity="0.05"/>
<path d="M3.41848 226.85C1.50413 226.85 0 225.346 0 223.432C0 181.589 11.6228 140.841 33.6378 105.426C34.595 103.785 36.7828 103.375 38.2869 104.332C39.9278 105.289 40.338 107.477 39.3808 108.981C18.0496 143.439 6.83695 182.957 6.83695 223.432C6.83695 225.346 5.33282 226.85 3.41848 226.85Z" fill="#4606C8" fill-opacity="0.05"/>
<path d="M165.591 439.343C165.318 439.343 165.044 439.343 164.634 439.206C128.671 429.361 95.3071 410.354 68.2328 384.237C41.2952 358.12 21.0578 325.576 9.98193 289.887C9.43497 288.109 10.3921 286.195 12.1698 285.648C13.9474 285.101 15.8617 286.058 16.4087 287.836C38.1502 357.846 95.5806 413.225 166.411 432.506C168.189 433.053 169.283 434.83 168.873 436.745C168.463 438.249 167.095 439.343 165.591 439.343Z" fill="#4606C8" fill-opacity="0.05"/>
<path d="M223.432 447C221.517 447 220.013 445.496 220.013 443.581C220.013 441.667 221.517 440.163 223.432 440.163C297.818 440.163 366.187 402.697 406.252 339.797C407.209 338.156 409.397 337.745 411.038 338.703C412.679 339.66 413.089 341.848 412.132 343.488C370.7 408.303 300.279 447 223.432 447Z" fill="#4606C8" fill-opacity="0.05"/>
<path d="M433.6 292.348C433.326 292.348 432.916 292.348 432.642 292.211C430.865 291.664 429.771 289.75 430.455 287.973C436.881 267.188 440.163 245.583 440.163 223.568C440.163 160.395 412.679 100.503 364.82 59.3448C363.453 58.1141 363.179 55.9263 364.41 54.5589C365.64 53.1915 367.828 52.918 369.196 54.1487C418.558 96.6746 447 158.481 447 223.568C447 246.267 443.582 268.556 437.018 290.024C436.471 291.391 435.104 292.348 433.6 292.348Z" fill="#4606C8" fill-opacity="0.05"/>
<path d="M50.3201 322.431C49.0894 322.431 47.9955 321.747 47.3118 320.653C31.0399 291.117 22.2886 257.48 22.2886 223.568C22.2886 148.088 63.8572 79.7188 130.859 44.9871C132.5 44.1667 134.551 44.7136 135.509 46.4912C136.329 48.1321 135.782 50.1832 134.004 51.1404C69.3268 84.7782 29.1255 150.823 29.1255 223.705C29.1255 256.522 37.4666 288.93 53.1916 317.508C54.1488 319.149 53.4651 321.2 51.8242 322.157C51.414 322.294 50.867 322.431 50.3201 322.431Z" fill="#4606C8" fill-opacity="0.05"/>
<path d="M223.432 424.575C171.744 424.575 122.518 405.021 85.0516 369.332C83.6842 367.965 83.6842 365.914 84.9149 364.546C86.2823 363.179 88.3333 363.179 89.7007 364.41C125.937 398.868 173.385 417.738 223.432 417.738C238.199 417.738 252.83 416.097 267.051 412.815C268.829 412.405 270.743 413.499 271.153 415.413C271.564 417.191 270.47 419.105 268.555 419.515C253.924 422.934 238.746 424.575 223.432 424.575Z" fill="#4606C8" fill-opacity="0.05"/>
<path d="M348.274 380.271C347.317 380.271 346.36 379.861 345.676 379.041C344.446 377.537 344.719 375.485 346.223 374.255C391.757 337.199 418.011 282.229 418.011 223.432C418.011 212.219 417.054 201.143 415.14 190.204C414.866 188.29 416.097 186.512 417.875 186.239C419.789 185.965 421.567 187.196 421.84 188.973C423.754 200.186 424.712 211.809 424.712 223.432C424.712 284.281 397.637 341.164 350.462 379.451C349.779 380.135 348.958 380.271 348.274 380.271Z" fill="#4606C8" fill-opacity="0.05"/>
<path d="M389.159 118.826C388.065 118.826 386.972 118.279 386.288 117.322C350.189 62.0795 289.34 29.1254 223.568 29.1254C212.082 29.1254 200.596 30.0826 189.384 32.1337C187.469 32.4071 185.692 31.1765 185.418 29.3989C185.145 27.4845 186.375 25.7069 188.153 25.4335C199.776 23.3824 211.672 22.2885 223.568 22.2885C291.801 22.2885 354.701 56.3365 392.031 113.493C393.125 115.134 392.578 117.185 391.074 118.279C390.39 118.689 389.706 118.826 389.159 118.826Z" fill="#4606C8" fill-opacity="0.05"/>
<path d="M120.33 117.459C119.373 117.459 118.553 117.049 117.869 116.365C116.638 114.998 116.638 112.81 118.006 111.579C146.721 84.6415 184.187 69.7369 223.432 69.7369C235.054 69.7369 246.677 71.1043 258.027 73.7024C259.804 74.1126 261.035 76.0269 260.625 77.8045C260.214 79.5822 258.3 80.8128 256.522 80.4026C245.72 77.9413 234.644 76.7106 223.432 76.7106C185.828 76.7106 150.003 90.9315 122.655 116.638C122.108 117.185 121.287 117.459 120.33 117.459Z" fill="#4606C8" fill-opacity="0.05"/>
<path d="M81.9066 277.717C80.5392 277.717 79.1718 276.897 78.6249 275.393C72.6084 258.71 69.6001 241.208 69.6001 223.432C69.6001 193.623 78.2147 164.634 94.3499 139.747C95.4438 138.107 97.4949 137.696 99.1357 138.79C100.777 139.884 101.187 141.935 100.093 143.576C84.7781 167.232 76.5738 194.99 76.5738 223.432C76.5738 240.524 79.4453 257.206 85.1883 273.068C85.872 274.846 84.9149 276.76 83.1373 277.444C82.727 277.717 82.3168 277.717 81.9066 277.717Z" fill="#4606C8" fill-opacity="0.05"/>
<path d="M223.432 377.263C174.889 377.263 130.176 355.111 100.913 316.414C99.8195 314.91 100.093 312.722 101.597 311.628C103.101 310.534 105.289 310.808 106.383 312.312C134.414 349.232 177.077 370.563 223.432 370.563C229.038 370.563 234.781 370.289 240.387 369.606C242.302 369.332 243.942 370.7 244.216 372.614C244.489 374.528 243.122 376.169 241.208 376.443C235.328 376.853 229.448 377.263 223.432 377.263Z" fill="#4606C8" fill-opacity="0.05"/>
<path d="M302.877 354.564C301.783 354.564 300.553 354.017 300.006 352.924C299.048 351.283 299.459 349.232 301.1 348.274C344.583 321.2 370.426 274.572 370.426 223.432C370.426 221.517 371.93 220.013 373.845 220.013C375.759 220.013 377.263 221.517 377.263 223.432C377.263 276.897 350.189 325.712 304.655 354.017C304.108 354.428 303.424 354.564 302.877 354.564Z" fill="#4606C8" fill-opacity="0.05"/>
<path d="M366.461 180.359C364.957 180.359 363.726 179.402 363.179 178.034C350.462 139.064 321.747 106.93 284.417 89.8376C282.64 89.0171 281.956 86.966 282.776 85.3252C283.597 83.5476 285.648 82.8639 287.289 83.6843C326.396 101.597 356.479 135.235 369.742 175.983C370.289 177.761 369.332 179.675 367.555 180.359C367.144 180.359 366.871 180.359 366.461 180.359Z" fill="#4606C8" fill-opacity="0.05"/>
</g>
<defs>
<clipPath id="clip0_165_166">
<rect width="447" height="447" fill="white"/>
</clipPath>
</defs>
</svg>
