<svg width="738" height="444" viewBox="0 0 738 444" fill="none" xmlns="http://www.w3.org/2000/svg">
<g clip-path="url(#clip0_301_224)">
<path d="M611.776 54.5142C611.198 54.5142 610.744 54.0596 610.744 53.4809V48.0254C610.744 47.4468 611.198 46.9921 611.776 46.9921C612.354 46.9921 612.808 47.4468 612.808 48.0254V53.4809C612.808 54.0596 612.354 54.5142 611.776 54.5142Z" fill="black"/>
<path d="M611.776 28.6417C611.198 28.6417 610.744 28.187 610.744 27.6084V22.1115C610.744 21.5329 611.198 21.0783 611.776 21.0783C612.354 21.0783 612.808 21.5329 612.808 22.1115V27.5671C612.808 28.1457 612.354 28.6417 611.776 28.6417Z" fill="black"/>
<path d="M620.404 33.3946C620.032 33.3946 619.702 33.2293 619.496 32.8573C619.207 32.3613 619.372 31.7414 619.867 31.4521L624.614 28.7243C625.109 28.435 625.729 28.6003 626.017 29.0963C626.306 29.5922 626.141 30.2122 625.646 30.5015L620.899 33.2293C620.775 33.3533 620.61 33.3946 620.404 33.3946Z" fill="black"/>
<path d="M598.031 46.3309C597.659 46.3309 597.329 46.1656 597.123 45.7936C596.834 45.2976 596.999 44.6777 597.494 44.3884L602.241 41.6606C602.736 41.3713 603.355 41.5366 603.644 42.0326C603.933 42.5285 603.768 43.1485 603.273 43.4378L598.526 46.1655C598.402 46.2895 598.196 46.3309 598.031 46.3309Z" fill="black"/>
<path d="M602.57 33.7252C602.405 33.7252 602.199 33.6839 602.075 33.6012L597.328 30.8735C596.833 30.5842 596.668 29.9642 596.957 29.4683C597.246 28.9723 597.865 28.807 598.36 29.0963L603.107 31.8241C603.602 32.1134 603.767 32.7333 603.478 33.2293C603.272 33.5186 602.942 33.7252 602.57 33.7252Z" fill="black"/>
<path d="M624.943 46.6615C624.778 46.6615 624.572 46.6202 624.448 46.5375L619.701 43.8097C619.206 43.5204 619.041 42.9005 619.33 42.4045C619.619 41.9086 620.238 41.7432 620.733 42.0326L625.48 44.7603C625.975 45.0496 626.14 45.6696 625.851 46.1655C625.645 46.4962 625.315 46.6615 624.943 46.6615Z" fill="black"/>
<path d="M630.308 116.716C630.061 116.716 629.772 116.633 629.565 116.426C629.153 116.013 629.153 115.352 629.565 114.98L644.755 99.7705C645.168 99.3572 645.829 99.3572 646.2 99.7705C646.613 100.184 646.613 100.845 646.2 101.217L631.01 116.426C630.845 116.592 630.597 116.716 630.308 116.716Z" fill="black"/>
<path d="M645.498 116.716C645.251 116.716 644.962 116.633 644.755 116.426L629.565 101.217C629.153 100.804 629.153 100.142 629.565 99.7705C629.978 99.3572 630.639 99.3572 631.01 99.7705L646.2 114.98C646.613 115.393 646.613 116.054 646.2 116.426C646.035 116.592 645.746 116.716 645.498 116.716Z" fill="black"/>
<path d="M736.968 126.966H718.434C717.856 126.966 717.402 126.511 717.402 125.932C717.402 125.354 717.856 124.899 718.434 124.899H736.968C737.546 124.899 738 125.354 738 125.932C738 126.47 737.546 126.966 736.968 126.966Z" fill="#71AA02"/>
<path d="M727.721 136.223C727.144 136.223 726.689 135.769 726.689 135.19V116.633C726.689 116.054 727.144 115.6 727.721 115.6C728.299 115.6 728.753 116.054 728.753 116.633V135.19C728.753 135.769 728.299 136.223 727.721 136.223Z" fill="#71AA02"/>
<path d="M716.165 23.1861C709.767 23.1861 704.607 17.9785 704.607 11.6137C704.607 5.2489 709.808 0.0413303 716.165 0.0413303C722.522 0.0413303 727.723 5.2489 727.723 11.6137C727.723 17.9785 722.522 23.1861 716.165 23.1861ZM716.165 2.0665C710.923 2.0665 706.671 6.32348 706.671 11.5724C706.671 16.8213 710.923 21.0783 716.165 21.0783C721.407 21.0783 725.659 16.8213 725.659 11.5724C725.659 6.32348 721.407 2.0665 716.165 2.0665Z" fill="black"/>
<path d="M572.273 179L557 163.708L572.273 148.416L587.545 163.708L572.273 179ZM559.931 163.708L572.273 176.107L584.614 163.749L572.273 151.35L559.931 163.708Z" fill="#71AA02"/>
</g>
<g clip-path="url(#clip1_301_224)">
<path d="M115.112 367.959C115.431 368.441 115.302 369.071 114.82 369.39L110.27 372.4C109.787 372.72 109.158 372.592 108.839 372.11C108.52 371.628 108.649 370.998 109.131 370.679L113.681 367.669C114.164 367.349 114.793 367.477 115.112 367.959Z" fill="black"/>
<path d="M93.5353 382.235C93.8541 382.717 93.7255 383.347 93.243 383.666L88.6586 386.699C88.176 387.018 87.5463 386.89 87.2275 386.408C86.9086 385.927 87.0372 385.297 87.5198 384.978L92.0697 381.967C92.5523 381.648 93.2164 381.753 93.5353 382.235Z" fill="black"/>
<path d="M92.7389 372.418C92.9439 372.728 92.9882 373.094 92.7918 373.472C92.5377 373.986 91.9295 374.191 91.4149 373.937L86.5208 371.483C86.0062 371.23 85.8024 370.622 86.0566 370.108C86.3108 369.593 86.9189 369.389 87.4335 369.642L92.3277 372.096C92.4994 372.131 92.625 372.246 92.7389 372.418Z" fill="black"/>
<path d="M115.872 383.938C116.077 384.248 116.121 384.615 115.925 384.992C115.67 385.507 115.062 385.711 114.548 385.457L109.654 383.004C109.139 382.75 108.935 382.143 109.189 381.628C109.444 381.113 110.052 380.909 110.566 381.162L115.461 383.616C115.632 383.651 115.781 383.8 115.872 383.938Z" fill="black"/>
<path d="M102.854 387.107C102.945 387.245 103.025 387.439 103.024 387.588L103.368 393.052C103.4 393.625 102.974 394.105 102.401 394.138C101.828 394.17 101.349 393.745 101.317 393.172L100.972 387.708C100.94 387.136 101.366 386.656 101.939 386.623C102.295 386.636 102.649 386.797 102.854 387.107Z" fill="black"/>
<path d="M101.297 361.311C101.389 361.448 101.468 361.643 101.467 361.792L101.812 367.256C101.844 367.829 101.418 368.309 100.845 368.341C100.272 368.374 99.7921 367.949 99.76 367.376L99.4158 361.912C99.3837 361.339 99.8097 360.86 100.383 360.827C100.772 360.817 101.092 361.001 101.297 361.311Z" fill="black"/>
<path d="M156.761 318.181C156.898 318.388 156.988 318.674 156.93 318.96C156.813 319.533 156.261 319.898 155.723 319.759L134.657 315.482C134.085 315.366 133.721 314.815 133.86 314.278C133.977 313.705 134.529 313.34 135.067 313.479L156.133 317.756C156.362 317.802 156.602 317.94 156.761 318.181Z" fill="black"/>
<path d="M148.38 305.513C148.516 305.719 148.607 306.006 148.548 306.292L144.245 327.353C144.128 327.925 143.577 328.29 143.039 328.151C142.466 328.035 142.102 327.484 142.242 326.946L146.545 305.885C146.662 305.313 147.213 304.948 147.751 305.087C147.98 305.134 148.243 305.306 148.38 305.513Z" fill="black"/>
<path d="M106.457 223.572L116.683 239.029C117.002 239.511 116.874 240.14 116.391 240.459C115.908 240.779 115.279 240.651 114.96 240.169L104.734 224.712C104.415 224.23 104.543 223.601 105.026 223.282C105.474 222.985 106.138 223.09 106.457 223.572Z" fill="#71AA02"/>
<path d="M119.279 226.175C119.598 226.657 119.469 227.286 118.987 227.606L103.51 237.845C103.028 238.164 102.398 238.036 102.079 237.554C101.76 237.073 101.889 236.443 102.371 236.124L117.848 225.884C118.33 225.565 118.96 225.693 119.279 226.175Z" fill="#71AA02"/>
<path d="M31.3843 298.185C34.9146 303.521 33.4185 310.698 28.1103 314.21C22.8021 317.721 15.5892 316.257 12.0818 310.956C8.57431 305.655 10.0476 298.444 15.3558 294.932C20.664 291.42 27.8768 292.884 31.3843 298.185ZM13.7707 309.839C16.6633 314.21 22.5595 315.407 26.937 312.511C31.3145 309.615 32.5189 303.72 29.6264 299.348C26.7339 294.976 20.8377 293.779 16.4602 296.676C12.0826 299.572 10.8782 305.467 13.7707 309.839Z" fill="black"/>
<path d="M240.728 332.215L236.402 353.39L215.221 349.091L219.548 327.916L240.728 332.215ZM234.785 350.946L238.316 333.812L221.199 330.337L217.669 347.472L234.785 350.946Z" fill="#71AA02"/>
</g>
<defs>
<clipPath id="clip0_301_224">
<rect width="181" height="179" fill="white" transform="translate(557)"/>
</clipPath>
<clipPath id="clip1_301_224">
<rect width="181" height="179" fill="white" transform="translate(99.8711 443.721) rotate(-123.489)"/>
</clipPath>
</defs>
</svg>
