<svg width="181" height="179" viewBox="0 0 181 179" fill="none" xmlns="http://www.w3.org/2000/svg">
<g clip-path="url(#clip0_117_530)">
<path d="M54.7747 54.5142C54.1968 54.5142 53.7428 54.0596 53.7428 53.481V48.0254C53.7428 47.4468 54.1968 46.9922 54.7747 46.9922C55.3526 46.9922 55.8067 47.4468 55.8067 48.0254V53.481C55.8067 54.0596 55.3526 54.5142 54.7747 54.5142Z" fill="black"/>
<path d="M54.7747 28.6417C54.1968 28.6417 53.7428 28.187 53.7428 27.6084V22.1115C53.7428 21.5329 54.1968 21.0783 54.7747 21.0783C55.3526 21.0783 55.8067 21.5329 55.8067 22.1115V27.5671C55.8067 28.1457 55.3526 28.6417 54.7747 28.6417Z" fill="black"/>
<path d="M63.4017 33.3946C63.0302 33.3946 62.7 33.2293 62.4936 32.8573C62.2047 32.3614 62.3698 31.7414 62.8651 31.4521L67.612 28.7243C68.1073 28.435 68.7265 28.6003 69.0154 29.0963C69.3043 29.5923 69.1392 30.2122 68.6439 30.5015L63.897 33.2293C63.7732 33.3533 63.6081 33.3946 63.4017 33.3946Z" fill="black"/>
<path d="M41.0295 46.3309C40.658 46.3309 40.3278 46.1656 40.1214 45.7936C39.8325 45.2976 39.9976 44.6777 40.4929 44.3884L45.2398 41.6606C45.7351 41.3713 46.3543 41.5366 46.6432 42.0326C46.9321 42.5285 46.767 43.1485 46.2717 43.4378L41.5248 46.1656C41.401 46.2896 41.1946 46.3309 41.0295 46.3309Z" fill="black"/>
<path d="M45.5699 33.7252C45.4048 33.7252 45.1985 33.6839 45.0746 33.6012L40.3278 30.8735C39.8324 30.5842 39.6673 29.9642 39.9563 29.4682C40.2452 28.9723 40.8644 28.807 41.3597 29.0963L46.1065 31.8241C46.6019 32.1134 46.767 32.7333 46.478 33.2293C46.2717 33.5186 45.9414 33.7252 45.5699 33.7252Z" fill="black"/>
<path d="M67.9421 46.6615C67.777 46.6615 67.5706 46.6202 67.4468 46.5375L62.6999 43.8097C62.2046 43.5204 62.0395 42.9005 62.3285 42.4045C62.6174 41.9086 63.2365 41.7432 63.7319 42.0326L68.4787 44.7603C68.9741 45.0496 69.1392 45.6696 68.8502 46.1656C68.6439 46.4962 68.3136 46.6615 67.9421 46.6615Z" fill="black"/>
<path d="M73.3081 116.716C73.0604 116.716 72.7715 116.633 72.5651 116.426C72.1523 116.013 72.1523 115.352 72.5651 114.98L87.755 99.7705C88.1678 99.3572 88.8282 99.3572 89.1997 99.7705C89.6125 100.184 89.6125 100.845 89.1997 101.217L74.0098 116.426C73.8447 116.592 73.597 116.716 73.3081 116.716Z" fill="black"/>
<path d="M88.498 116.716C88.2504 116.716 87.9614 116.633 87.755 116.426L72.5651 101.217C72.1523 100.804 72.1523 100.142 72.5651 99.7705C72.9778 99.3572 73.6383 99.3572 74.0098 99.7705L89.1997 114.98C89.6125 115.393 89.6125 116.054 89.1997 116.426C89.0346 116.592 88.7457 116.716 88.498 116.716Z" fill="black"/>
<path d="M179.968 126.966H161.435C160.857 126.966 160.403 126.511 160.403 125.932C160.403 125.354 160.857 124.899 161.435 124.899H179.968C180.546 124.899 181 125.354 181 125.932C181 126.47 180.546 126.966 179.968 126.966Z" fill="#71AA02"/>
<path d="M170.722 136.223C170.144 136.223 169.69 135.769 169.69 135.19V116.633C169.69 116.054 170.144 115.6 170.722 115.6C171.3 115.6 171.754 116.054 171.754 116.633V135.19C171.754 135.769 171.3 136.223 170.722 136.223Z" fill="#71AA02"/>
<path d="M159.164 23.1861C152.766 23.1861 147.607 17.9785 147.607 11.6137C147.607 5.24889 152.808 0.0413208 159.164 0.0413208C165.521 0.0413208 170.722 5.24889 170.722 11.6137C170.722 17.9785 165.521 23.1861 159.164 23.1861ZM159.164 2.06649C153.922 2.06649 149.671 6.32347 149.671 11.5724C149.671 16.8213 153.922 21.0783 159.164 21.0783C164.407 21.0783 168.658 16.8213 168.658 11.5724C168.658 6.32347 164.407 2.06649 159.164 2.06649Z" fill="black"/>
<path d="M15.2725 179L0 163.708L15.2725 148.416L30.545 163.708L15.2725 179ZM2.93067 163.708L15.2725 176.107L27.6144 163.749L15.2725 151.35L2.93067 163.708Z" fill="#71AA02"/>
</g>
<defs>
<clipPath id="clip0_117_530">
<rect width="181" height="179" fill="white"/>
</clipPath>
</defs>
</svg>
