<svg width="181" height="179" viewBox="0 0 181 179" fill="none" xmlns="http://www.w3.org/2000/svg">
<g clip-path="url(#clip0_149_4)">
<path d="M126.225 54.5142C126.803 54.5142 127.257 54.0596 127.257 53.481V48.0254C127.257 47.4468 126.803 46.9922 126.225 46.9922C125.648 46.9922 125.193 47.4468 125.193 48.0254V53.481C125.193 54.0596 125.648 54.5142 126.225 54.5142Z" fill="black"/>
<path d="M126.225 28.6418C126.803 28.6418 127.257 28.1871 127.257 27.6085V22.1116C127.257 21.533 126.803 21.0784 126.225 21.0784C125.648 21.0784 125.193 21.533 125.193 22.1116V27.5672C125.193 28.1458 125.648 28.6418 126.225 28.6418Z" fill="black"/>
<path d="M117.599 33.3947C117.97 33.3947 118.3 33.2294 118.507 32.8574C118.796 32.3614 118.631 31.7415 118.135 31.4522L113.388 28.7244C112.893 28.4351 112.274 28.6004 111.985 29.0964C111.696 29.5923 111.861 30.2123 112.356 30.5016L117.103 33.2294C117.227 33.3533 117.392 33.3947 117.599 33.3947Z" fill="black"/>
<path d="M139.971 46.331C140.342 46.331 140.672 46.1656 140.879 45.7937C141.168 45.2977 141.003 44.6778 140.507 44.3884L135.76 41.6607C135.265 41.3714 134.646 41.5367 134.357 42.0326C134.068 42.5286 134.233 43.1485 134.729 43.4379L139.475 46.1656C139.599 46.2896 139.806 46.331 139.971 46.331Z" fill="black"/>
<path d="M135.43 33.7254C135.595 33.7254 135.802 33.6841 135.926 33.6014L140.672 30.8736C141.168 30.5843 141.333 29.9644 141.044 29.4684C140.755 28.9725 140.136 28.8072 139.64 29.0965L134.894 31.8242C134.398 32.1135 134.233 32.7335 134.522 33.2295C134.728 33.5188 135.059 33.7254 135.43 33.7254Z" fill="black"/>
<path d="M113.058 46.6617C113.223 46.6617 113.43 46.6204 113.553 46.5377L118.3 43.8099C118.796 43.5206 118.961 42.9007 118.672 42.4047C118.383 41.9088 117.764 41.7434 117.268 42.0327L112.522 44.7605C112.026 45.0498 111.861 45.6698 112.15 46.1657C112.356 46.4964 112.687 46.6617 113.058 46.6617Z" fill="black"/>
<path d="M107.692 116.716C107.939 116.716 108.228 116.633 108.435 116.426C108.848 116.013 108.848 115.352 108.435 114.98L93.2448 99.7704C92.8321 99.3571 92.1716 99.3571 91.8001 99.7704C91.3874 100.184 91.3874 100.845 91.8001 101.217L106.99 116.426C107.155 116.592 107.403 116.716 107.692 116.716Z" fill="black"/>
<path d="M92.5019 116.716C92.7495 116.716 93.0385 116.633 93.2448 116.426L108.435 101.217C108.848 100.804 108.848 100.142 108.435 99.7704C108.022 99.3571 107.362 99.3571 106.99 99.7704L91.8001 114.98C91.3874 115.393 91.3874 116.054 91.8001 116.426C91.9652 116.592 92.2542 116.716 92.5019 116.716Z" fill="black"/>
<path d="M1.03196 126.966H19.5654C20.1432 126.966 20.5973 126.511 20.5973 125.932C20.5973 125.354 20.1432 124.899 19.5654 124.899H1.03196C0.454079 124.899 3.05176e-05 125.354 3.05176e-05 125.932C3.05176e-05 126.47 0.454079 126.966 1.03196 126.966Z" fill="#71AA02"/>
<path d="M10.278 136.223C10.8559 136.223 11.3099 135.769 11.3099 135.19V116.633C11.3099 116.054 10.8559 115.6 10.278 115.6C9.70013 115.6 9.24608 116.054 9.24608 116.633V135.19C9.24608 135.769 9.70013 136.223 10.278 136.223Z" fill="#71AA02"/>
<path d="M21.8356 23.186C28.2336 23.186 33.3932 17.9785 33.3932 11.6136C33.3932 5.24883 28.1923 0.0412598 21.8356 0.0412598C15.4789 0.0412598 10.278 5.24883 10.278 11.6136C10.278 17.9785 15.4789 23.186 21.8356 23.186ZM21.8356 2.06643C27.0778 2.06643 31.3293 6.32341 31.3293 11.5723C31.3293 16.8212 27.0778 21.0782 21.8356 21.0782C16.5934 21.0782 12.3419 16.8212 12.3419 11.5723C12.3419 6.32341 16.5934 2.06643 21.8356 2.06643Z" fill="black"/>
<path d="M165.727 179L181 163.708L165.727 148.416L150.455 163.708L165.727 179ZM178.069 163.708L165.727 176.107L153.386 163.749L165.727 151.35L178.069 163.708Z" fill="#71AA02"/>
</g>
<defs>
<clipPath id="clip0_149_4">
<rect width="181" height="179" fill="white" transform="matrix(-1 0 0 1 181 0)"/>
</clipPath>
</defs>
</svg>
