<svg width="495" height="28" viewBox="0 0 495 28" fill="none" xmlns="http://www.w3.org/2000/svg">
<path d="M166.095 27.457C157.361 27.457 152.993 20.954 149.5 15.7516C146.006 10.4047 143.531 7.22552 139.019 7.22552C134.506 7.22552 132.031 10.4047 128.538 15.7516C125.044 20.954 120.677 27.457 111.943 27.457C103.209 27.457 98.8417 20.954 95.348 15.7516C91.8543 10.4047 89.3796 7.22552 84.867 7.22552C80.3543 7.22552 77.8797 10.4047 74.386 15.7516C70.8923 20.954 66.5252 27.457 57.7911 27.457C49.0569 27.457 44.6898 20.954 41.1962 15.7516C37.7025 10.4047 35.2278 7.22552 30.7152 7.22552C26.2025 7.22552 23.7278 10.4047 20.2342 15.7516C16.7405 20.954 12.3734 27.457 3.63924 27.457C1.60126 27.457 0 25.8674 0 23.8442C0 21.8211 1.60126 20.2314 3.63924 20.2314C8.15189 20.2314 10.6266 17.0522 14.1202 11.7053C17.6139 6.50297 21.981 0 30.7152 0C39.4493 0 43.8164 6.50297 47.3101 11.7053C50.8037 16.9077 53.2784 20.2314 57.7911 20.2314C62.3037 20.2314 64.7784 17.0522 68.2721 11.7053C71.7657 6.50297 76.1328 0 84.867 0C93.6012 0 97.9682 6.50297 101.462 11.7053C104.956 16.9077 107.43 20.2314 111.943 20.2314C116.456 20.2314 118.93 17.0522 122.424 11.7053C125.918 6.50297 130.285 0 139.019 0C147.753 0 152.12 6.50297 155.614 11.7053C159.107 16.9077 161.582 20.2314 166.095 20.2314C168.133 20.2314 169.734 21.8211 169.734 23.8442C169.734 25.8674 167.987 27.457 166.095 27.457Z" fill="#71AA02"/>
<path d="M328.34 27.457C319.606 27.457 315.239 20.954 311.745 15.7516C308.252 10.4047 305.777 7.22552 301.264 7.22552C296.752 7.22552 294.277 10.4047 290.783 15.7516C287.29 20.954 282.923 27.457 274.189 27.457C265.454 27.457 261.087 20.954 257.594 15.7516C254.1 10.4047 251.625 7.22552 247.113 7.22552C242.6 7.22552 240.125 10.4047 236.632 15.7516C233.138 20.954 228.771 27.457 220.037 27.457C211.303 27.457 206.935 20.954 203.442 15.7516C199.948 10.4047 197.473 7.22552 192.961 7.22552C188.448 7.22552 185.973 10.4047 182.48 15.7516C178.986 20.954 174.619 27.457 165.885 27.457C163.847 27.457 162.246 25.8674 162.246 23.8442C162.246 21.8211 163.847 20.2314 165.885 20.2314C170.397 20.2314 172.872 17.0522 176.366 11.7053C179.86 6.50297 184.227 0 192.961 0C201.695 0 206.062 6.50297 209.556 11.7053C213.049 16.9077 215.524 20.2314 220.037 20.2314C224.549 20.2314 227.024 17.0522 230.518 11.7053C234.011 6.50297 238.378 0 247.113 0C255.847 0 260.214 6.50297 263.708 11.7053C267.201 16.9077 269.676 20.2314 274.189 20.2314C278.701 20.2314 281.176 17.0522 284.67 11.7053C288.163 6.50297 292.53 0 301.264 0C309.999 0 314.366 6.50297 317.859 11.7053C321.353 16.9077 323.828 20.2314 328.34 20.2314C330.378 20.2314 331.98 21.8211 331.98 23.8442C331.98 25.8674 330.233 27.457 328.34 27.457Z" fill="#71AA02"/>
<path d="M490.586 27.457C481.852 27.457 477.485 20.954 473.991 15.7516C470.497 10.4047 468.023 7.22552 463.51 7.22552C458.997 7.22552 456.523 10.4047 453.029 15.7516C449.535 20.954 445.168 27.457 436.434 27.457C427.7 27.457 423.333 20.954 419.839 15.7516C416.346 10.4047 413.871 7.22552 409.358 7.22552C404.846 7.22552 402.371 10.4047 398.877 15.7516C395.384 20.954 391.016 27.457 382.282 27.457C373.548 27.457 369.181 20.954 365.687 15.7516C362.194 10.4047 359.719 7.22552 355.206 7.22552C350.694 7.22552 348.219 10.4047 344.725 15.7516C341.232 20.954 336.865 27.457 328.13 27.457C326.092 27.457 324.491 25.8674 324.491 23.8442C324.491 21.8211 326.092 20.2314 328.13 20.2314C332.643 20.2314 335.118 17.0522 338.611 11.7053C342.105 6.50297 346.472 0 355.206 0C363.941 0 368.308 6.50297 371.801 11.7053C375.295 16.9077 377.77 20.2314 382.282 20.2314C386.795 20.2314 389.27 17.0522 392.763 11.7053C396.257 6.50297 400.624 0 409.358 0C418.092 0 422.459 6.50297 425.953 11.7053C429.447 16.9077 431.921 20.2314 436.434 20.2314C440.947 20.2314 443.421 17.0522 446.915 11.7053C450.409 6.50297 454.776 0 463.51 0C472.244 0 476.611 6.50297 480.105 11.7053C483.599 16.9077 486.073 20.2314 490.586 20.2314C492.624 20.2314 494.225 21.8211 494.225 23.8442C494.225 25.8674 492.478 27.457 490.586 27.457Z" fill="#71AA02"/>
</svg>
